<svg width="229" height="461" viewBox="0 0 229 461" fill="none" xmlns="http://www.w3.org/2000/svg">
<g clip-path="url(#clip0_1435_3197)">
<path d="M193.62 189.932L149.364 461L197.308 186.244L193.62 189.932Z" fill="#4D3F68"/>
<path d="M175.18 204.684L143.832 461L145.676 461L178.868 200.996L175.18 204.684Z" fill="#4D3F68"/>
<path d="M158.584 217.592L140.144 461L162.272 213.904L158.584 217.592Z" fill="#4D3F68"/>
<path d="M143.832 230.5L134.612 461L136.456 461L147.52 226.812L143.832 230.5Z" fill="#4D3F68"/>
<path d="M130.924 444.404L130.924 425.964L130.924 420.432L130.924 401.992L130.924 396.46L130.924 378.02L130.924 372.488L130.924 354.048L130.924 348.516L132.768 239.72L129.08 241.564L129.08 350.36L129.08 355.892L129.08 372.488L129.08 378.02L129.08 396.46L129.08 401.992L129.08 420.432L129.08 425.964L129.08 444.404L129.08 449.936L129.08 461L130.924 461L130.924 449.936L130.924 444.404Z" fill="#4D3F68"/>
<path d="M125.392 449.936L125.392 444.404L125.392 425.964L125.392 420.432L123.548 403.836L123.548 398.304L123.548 379.864L123.548 374.332L121.704 357.736L121.704 352.204L118.016 250.784L116.172 254.472L119.86 354.048L119.86 357.736L121.704 376.176L121.704 381.708L121.704 398.304L121.704 403.836L123.548 420.432L123.548 425.964L123.548 444.404L125.392 449.936L125.392 461L125.392 449.936Z" fill="#4D3F68"/>
<path d="M119.86 444.404L118.016 425.964L118.016 420.432L116.172 403.836L116.172 398.304L116.172 381.708L114.328 378.02L114.328 361.424L112.484 355.892L105.108 261.848L103.264 263.692L110.64 355.892L112.484 361.424L112.484 378.02L114.328 383.552L114.328 400.148L116.172 403.836L116.172 422.276L118.016 425.964L118.016 444.404L119.86 449.936L119.86 461L121.704 461L119.86 449.936L119.86 444.404Z" fill="#4D3F68"/>
<path d="M114.328 444.404L112.484 427.808L112.484 422.276L110.64 405.68L108.796 400.148L106.952 383.552L106.952 379.864L105.108 363.268L105.108 359.58L94.0444 271.068L92.2004 272.912L103.264 359.58L103.264 365.112L105.108 379.864L105.108 385.396L106.952 400.148L108.796 405.68L110.64 422.276L110.64 427.808L112.484 444.404L114.328 449.936L116.172 461L116.172 449.936L114.328 444.404Z" fill="#4D3F68"/>
<path d="M101.42 446.248L103.264 446.248L99.5762 435.184L97.7322 437.028L101.42 446.248Z" fill="#4D3F68"/>
<path d="M101.42 449.936L105.108 461L103.264 449.936L101.42 449.936Z" fill="#4D3F68"/>
<path d="M62.6962 296.884L64.5402 302.416L66.3842 300.572L68.2282 304.26L66.3842 306.104L68.2282 317.168L70.0722 315.324L71.9162 319.012L70.0722 320.856L71.9162 331.92L73.7602 331.92L75.6042 335.608L73.7602 335.608L75.6042 346.672L77.4482 346.672L79.2922 350.36L77.4482 350.36L79.2922 363.268L81.1362 363.268L82.9802 365.112L81.1362 366.956L82.9802 378.02L84.8242 378.02L86.6682 381.708L84.8242 381.708L88.5122 394.616L90.3562 398.304L88.5122 398.304L92.2002 409.368L94.0442 413.056L92.2002 413.056L94.0442 420.432L95.8882 418.588L66.3842 295.04L62.6962 296.884Z" fill="#4D3F68"/>
<path d="M97.7322 433.34L99.5762 433.34L95.8882 422.276L94.0442 422.276L97.7322 433.34Z" fill="#4D3F68"/>
<path d="M103.264 449.936L103.264 446.248L101.42 446.248L0.000174912 459.156L0.000174831 461L7.37617 461L101.42 449.936L103.264 449.936Z" fill="#4D3F68"/>
<path d="M99.5762 435.184L99.5762 433.34L97.7322 433.34L84.8242 435.184L86.6682 437.028L82.9802 437.028L81.1362 437.028L70.0722 438.872L66.3842 438.872L53.4762 440.716L53.4762 442.56L49.7882 442.56L0.000182299 451.78L0.000182219 453.624L97.7322 437.028L99.5762 435.184Z" fill="#4D3F68"/>
<path d="M77.4482 424.12L64.5402 427.808L66.3842 429.652L62.6962 429.652L62.6962 427.808L49.7882 431.496L51.6322 433.34L62.6962 429.652L66.3842 429.652L77.4482 425.964L77.4482 424.12Z" fill="#4D3F68"/>
<path d="M35.0363 435.184L35.0363 437.028L47.9443 433.34L46.1003 431.496L35.0363 435.184Z" fill="#4D3F68"/>
<path d="M3.6882 442.56L3.6882 444.404L16.5962 440.716L16.5962 438.872L3.6882 442.56Z" fill="#4D3F68"/>
<path d="M20.2841 438.872L20.2841 440.716L31.3481 437.028L31.3481 435.184L20.2841 438.872Z" fill="#4D3F68"/>
<path d="M81.1362 424.12L81.1362 425.964L94.0442 422.276L95.8882 422.276L95.8882 418.588L94.0442 420.432L81.1362 424.12Z" fill="#4D3F68"/>
<path d="M44.2563 341.14L40.5684 330.076L38.7243 331.92L42.4123 341.14L44.2563 341.14Z" fill="#4D3F68"/>
<path d="M38.7241 328.232L35.0361 320.856L33.1921 320.856L36.8801 328.232L38.7241 328.232Z" fill="#4D3F68"/>
<path d="M22.1282 295.04L23.9721 298.728L25.8161 302.416L27.6602 302.416L25.8161 296.884L23.9721 293.196L22.1282 291.352L22.1282 295.04Z" fill="#4D3F68"/>
<path d="M3.68821 248.94L5.5322 252.628L7.37621 258.16L9.22021 258.16L5.5322 252.628L5.5322 248.94L3.68821 247.096L3.68821 248.94Z" fill="#4D3F68"/>
<path d="M27.6604 306.104L29.5044 309.792L29.5044 313.48L31.3484 317.168L33.1924 315.324L31.3484 311.636L29.5044 307.948L29.5044 306.104L27.6604 306.104Z" fill="#4D3F68"/>
<path d="M55.3203 366.956L51.6323 355.892L47.9443 357.736L53.4763 366.956L55.3203 366.956Z" fill="#4D3F68"/>
<path d="M16.5964 278.444L16.5964 280.288L18.4404 282.132L20.2844 287.664L22.1284 287.664L18.4404 282.132L18.4404 278.444L16.5964 276.6L14.7524 276.6L16.5964 278.444Z" fill="#4D3F68"/>
<path d="M9.22046 263.692L11.0644 267.38L12.9085 272.912L14.7524 272.912L12.9085 267.38L11.0644 263.692L9.22046 261.848L9.22046 263.692Z" fill="#4D3F68"/>
<path d="M62.6963 379.864L57.1643 370.644L53.4763 370.644L59.0083 381.708L62.6963 379.864Z" fill="#4D3F68"/>
<path d="M49.7881 354.048L46.1001 342.984L44.2561 344.828L47.9441 354.048L49.7881 354.048Z" fill="#4D3F68"/>
<path d="M73.7603 409.368L70.0722 398.304L66.3842 398.304L70.0722 409.368L73.7603 409.368Z" fill="#4D3F68"/>
<path d="M1.84424 243.408L0.000249028 237.876L0.000248867 241.564L1.84424 243.408Z" fill="#4D3F68"/>
<path d="M68.228 394.616L62.696 383.552L60.852 383.552L64.54 394.616L68.228 394.616Z" fill="#4D3F68"/>
<path d="M77.4482 424.12L81.1362 424.12L81.1362 425.964L81.1362 424.12L75.6042 413.056L71.9162 413.056L77.4482 424.12Z" fill="#4D3F68"/>
<path d="M82.9805 437.028L86.6685 437.028L84.8244 435.184L81.1365 437.028L82.9805 437.028Z" fill="#4D3F68"/>
<path d="M5.53228 267.38L23.9723 319.012L23.9723 322.7L27.6603 331.92L29.5043 333.764L33.1923 344.828L33.1923 346.672L36.8803 355.892L38.7243 359.58L40.5683 368.8L42.4123 372.488L46.1003 381.708L47.9443 385.396L49.7883 396.46L51.6323 398.304L55.3203 409.368L57.1643 413.056L60.8523 424.12L60.8523 425.964L62.6963 427.808L62.6963 429.652L66.3843 429.652L64.5403 427.808L64.5403 424.12L60.8523 413.056L59.0083 409.368L55.3203 398.304L53.4763 396.46L49.7883 385.396L49.7883 381.708L44.2563 372.488L44.2563 368.8L40.5683 359.58L38.7243 355.892L35.0363 346.672L35.0363 342.984L31.3483 333.764L29.5043 331.92L25.8163 320.856L25.8163 319.012L7.37628 271.068L5.53228 265.536L1.84428 254.472L0.000289836 250.784L0.000289917 248.94L0.000289756 252.628L1.84428 254.472L5.53228 267.38Z" fill="#4D3F68"/>
<path d="M47.9443 433.34L51.6323 433.34L49.7883 431.496L0.000343323 265.536L0.000343162 269.224L46.1003 431.496L47.9443 433.34Z" fill="#4D3F68"/>
<path d="M49.7881 442.56L53.4761 442.56L53.4761 440.716L49.7881 442.56Z" fill="#4D3F68"/>
<path d="M31.3481 437.028L35.0361 437.028L35.0361 435.184L0.000141144 287.664L0.000140821 295.04L31.3481 435.184L31.3481 437.028Z" fill="#4D3F68"/>
<path d="M16.5962 440.716L20.2842 440.716L20.2842 438.872L1.84418 331.92L0.000192562 328.232L0.000192642 326.388L0.000192562 328.232L1.84418 331.92L0.0001924 331.92L0.000192078 339.296L16.5962 438.872L16.5962 440.716Z" fill="#4D3F68"/>
<path d="M0.000478721 444.404L3.68847 444.404L3.68847 442.56L0.000480413 405.68L0.000478963 438.872L0.000478801 442.56L0.000478721 444.404Z" fill="#4D3F68"/>
<path d="M0.000249028 328.232L0.000248867 331.92L1.84424 331.92L0.000249028 328.232Z" fill="#4D3F68"/>
<path d="M66.384 306.104L68.228 304.26L66.384 300.572L64.54 302.416L49.788 307.948L40.568 315.324L64.54 306.104L66.384 306.104Z" fill="#4D3F68"/>
<path d="M33.1921 319.012L35.0361 317.168L38.7241 313.48L33.1921 315.324L31.3481 317.168L33.1921 319.012Z" fill="#4D3F68"/>
<path d="M40.568 330.076L68.228 320.856L70.072 320.856L71.916 319.012L70.072 315.324L68.228 317.168L38.724 328.232L36.88 328.232L38.724 331.92L40.568 330.076Z" fill="#4D3F68"/>
<path d="M46.1 342.984L71.916 335.608L73.76 335.608L75.604 335.608L73.76 331.92L71.916 331.92L44.256 341.14L42.412 341.14L44.256 344.828L46.1 342.984Z" fill="#4D3F68"/>
<path d="M51.6325 355.892L77.4485 350.36L79.2925 350.36L77.4485 346.672L75.6045 346.672L49.7885 354.048L47.9445 354.048L47.9445 357.736L51.6325 355.892Z" fill="#4D3F68"/>
<path d="M57.1645 370.644L81.1365 366.956L82.9805 365.112L81.1365 363.268L79.2925 363.268L55.3205 366.956L53.4765 366.956L53.4765 370.644L57.1645 370.644Z" fill="#4D3F68"/>
<path d="M62.6965 383.552L84.8244 381.708L86.6685 381.708L84.8244 378.02L82.9805 378.02L62.6965 379.864L59.0085 381.708L60.8524 383.552L62.6965 383.552Z" fill="#4D3F68"/>
<path d="M70.0724 398.304L88.5124 398.304L90.3564 398.304L88.5124 394.616L86.6684 394.616L68.2285 394.616L64.5405 394.616L66.3844 398.304L70.0724 398.304Z" fill="#4D3F68"/>
<path d="M75.6044 413.056L92.2004 413.056L94.0444 413.056L92.2004 409.368L90.3564 409.368L73.7604 409.368L70.0724 409.368L71.9164 413.056L75.6044 413.056Z" fill="#4D3F68"/>
<path d="M81.1362 424.12L77.4482 424.12L77.4482 425.964L81.1362 425.964L81.1362 424.12Z" fill="#4D3F68"/>
<path d="M33.1922 319.012L33.1922 320.856L35.0362 320.856L40.5682 315.324L49.7882 307.948L62.6962 296.884L66.3842 295.04L92.2002 272.912L94.0442 271.068L103.264 263.692L105.108 261.848L116.172 254.472L118.016 250.784L129.08 241.564L132.768 239.72L143.832 230.5L147.52 226.812L158.584 217.592L162.272 213.904L175.18 204.684L178.868 200.996L193.62 189.932L197.308 186.244L228.656 158.584L197.308 184.4L193.62 188.088L178.868 199.152L175.18 202.84L162.272 212.06L158.584 215.748L147.52 224.968L143.832 228.656L132.768 237.876L129.08 239.72L118.016 248.94L116.172 250.784L105.108 258.16L103.264 261.848L94.0442 269.224L90.3562 271.068L38.7242 313.48L35.0362 317.168L33.1922 319.012Z" fill="#4D3F68"/>
<path d="M25.8162 302.416L27.6602 306.104L29.5042 306.104L90.3562 260.004L92.2002 258.16L101.42 250.784L105.108 248.94L114.328 241.564L118.016 239.72L129.08 232.344L132.768 228.656L143.832 221.28L147.52 217.592L158.584 208.372L162.272 206.528L175.18 197.308L180.712 193.62L193.62 184.4L197.308 180.712L228.656 158.584L197.308 180.712L193.62 182.556L180.712 191.776L175.18 195.464L162.272 204.684L158.584 206.528L147.52 215.748L143.832 219.436L132.768 226.812L129.08 228.656L118.016 237.876L114.328 239.72L105.108 247.096L101.42 248.94L92.2002 256.316L88.5122 258.16L27.6602 302.416L25.8162 302.416Z" fill="#4D3F68"/>
<path d="M22.128 291.352L224.968 158.584L226.812 156.74L223.124 158.584L22.128 287.664L20.284 287.664L22.128 291.352Z" fill="#4D3F68"/>
<path d="M199.152 171.492L208.372 165.96L212.06 164.116L223.124 158.584L226.812 156.74L226.812 154.896L223.124 156.74L212.06 164.116L208.372 165.96L197.308 171.492L199.152 171.492Z" fill="#4D3F68"/>
<path d="M12.9084 272.912L14.7523 276.6L16.5963 276.6L199.152 171.492L195.464 173.336L14.7523 272.912L12.9084 272.912Z" fill="#4D3F68"/>
<path d="M9.22001 261.848L105.108 213.904L108.796 212.06L119.86 206.528L123.548 204.684L134.612 199.152L138.3 197.308L149.364 191.776L153.052 189.932L164.116 184.4L167.804 184.4L178.868 178.868L182.556 177.024L193.62 171.492L197.308 169.648L208.372 164.116L210.216 162.272L221.28 156.74L224.968 154.896L226.812 154.896L224.968 154.896L223.124 156.74L221.28 156.74L210.216 162.272L208.372 164.116L206.528 164.116L195.464 167.804L195.464 169.648L195.464 167.804L197.308 169.648L193.62 171.492L193.62 169.648L182.556 175.18L182.556 177.024L178.868 178.868L178.868 177.024L167.804 182.556L167.804 184.4L164.116 184.4L153.052 189.932L149.364 191.776L138.3 197.308L134.612 199.152L134.612 197.308L123.548 202.84L123.548 204.684L119.86 206.528L119.86 204.684L108.796 210.216L108.796 212.06L105.108 213.904L105.108 212.06L9.22001 258.16L7.376 258.16L9.22001 261.848Z" fill="#4D3F68"/>
<path d="M132.768 191.776L136.456 191.776L147.52 186.244L145.676 184.4L134.612 189.932L136.456 191.776L132.768 191.776Z" fill="#4D3F68"/>
<path d="M147.52 186.244L151.208 184.4L162.272 180.712L160.428 178.868L149.364 184.4L151.208 184.4L147.52 186.244Z" fill="#4D3F68"/>
<path d="M165.96 178.868L177.024 173.336L180.712 173.336L191.776 167.804L195.464 165.96L206.528 162.272L210.216 160.428L221.28 154.896L224.968 153.052L223.124 153.052L224.968 153.052L221.28 154.896L210.216 160.428L206.528 162.272L206.528 160.428L193.62 165.96L195.464 165.96L191.776 167.804L189.932 167.804L178.868 171.492L180.712 173.336L177.024 173.336L175.18 173.336L164.116 178.868L165.96 178.868Z" fill="#4D3F68"/>
<path d="M3.68806 247.096L103.264 204.684L106.952 202.84L118.016 199.152L121.704 197.308L132.768 191.776L121.704 195.464L121.704 197.308L118.016 199.152L118.016 197.308L106.952 200.996L105.108 202.84L106.952 200.996L106.952 202.84L103.264 204.684L103.264 202.84L1.84405 243.408L3.68806 247.096Z" fill="#4D3F68"/>
<path d="M158.584 175.18L162.272 173.336L173.336 169.648L177.024 169.648L189.932 164.116L193.62 164.116L204.684 160.428L208.372 158.584L219.436 154.896L219.436 153.052L208.372 158.584L204.684 158.584L191.776 162.272L193.62 164.116L189.932 164.116L188.088 164.116L177.024 167.804L177.024 169.648L173.336 169.648L162.272 173.336L158.584 175.18L158.584 173.336L158.584 175.18L147.52 178.868L158.584 175.18Z" fill="#4D3F68"/>
<path d="M105.108 193.62L116.172 189.932L119.86 189.932L130.924 186.244L134.612 184.4L143.832 180.712L147.52 178.868L143.832 180.712L143.832 178.868L132.768 182.556L132.768 184.4L130.924 186.244L129.08 184.4L118.016 188.088L119.86 189.932L116.172 189.932L116.172 188.088L105.108 191.776L105.108 193.62L101.42 195.464L101.42 193.62L2.83413e-05 228.656L2.81801e-05 232.344L101.42 195.464L105.108 193.62Z" fill="#4D3F68"/>
<path d="M221.28 153.052L223.124 153.052L224.968 153.052L224.968 151.208L223.124 153.052L221.28 153.052Z" fill="#4D3F68"/>
<path d="M191.776 160.428L202.84 156.74L206.528 156.74L219.436 153.052L223.124 151.208L224.968 151.208L223.124 151.208L221.28 151.208L223.124 151.208L219.436 153.052L206.528 156.74L202.84 156.74L189.932 160.428L188.088 160.428L189.932 160.428L191.776 160.428Z" fill="#4D3F68"/>
<path d="M103.264 186.244L114.328 182.556L118.016 182.556L127.236 178.868L130.924 177.024L141.988 175.18L145.676 173.336L156.74 169.648L160.428 169.648L171.492 165.96L175.18 165.96L188.088 162.272L189.932 160.428L188.088 162.272L186.244 160.428L175.18 164.116L175.18 165.96L171.492 165.96L160.428 167.804L160.428 169.648L156.74 169.648L145.676 171.492L145.676 173.336L141.988 175.18L141.988 173.336L130.924 177.024L127.236 178.868L127.236 177.024L116.172 180.712L118.016 182.556L114.328 182.556L114.328 180.712L103.264 184.4L103.264 186.244L99.5761 186.244L99.5761 184.4L0.000135072 212.06L0.000134911 215.748L99.5761 186.244L103.264 186.244Z" fill="#4D3F68"/>
<path d="M186.244 158.584L184.4 158.584L173.336 160.428L186.244 158.584Z" fill="#4D3F68"/>
<path d="M169.648 162.272L169.648 160.428L158.584 164.116L156.74 164.116L158.584 164.116L156.74 165.96L158.584 164.116L169.648 162.272Z" fill="#4D3F68"/>
<path d="M97.7324 178.868L97.7324 177.024L92.2004 177.024L92.2004 178.868L88.5124 178.868L75.6044 180.712L75.6044 182.556L71.9164 182.556L59.0084 184.4L60.8524 186.244L57.1644 186.244L55.3204 184.4L44.2564 188.088L44.2564 189.932L40.5684 189.932L40.5684 188.088L27.6604 191.776L29.5044 193.62L25.8164 193.62L23.9724 191.776L12.9084 193.62L12.9084 197.308L9.22042 197.308L9.22042 195.464L0.000426359 197.308L0.000426198 200.996L97.7324 178.868Z" fill="#4D3F68"/>
<path d="M125.392 171.492L125.392 169.648L114.328 173.336L114.328 175.18L112.484 175.18L114.328 175.18L125.392 171.492Z" fill="#4D3F68"/>
<path d="M154.896 165.96L154.896 164.116L141.988 165.96L143.832 167.804L140.144 167.804L143.832 167.804L154.896 165.96Z" fill="#4D3F68"/>
<path d="M140.144 169.648L140.144 167.804L129.08 169.648L129.08 171.492L140.144 169.648Z" fill="#4D3F68"/>
<path d="M101.42 177.024L99.5764 178.868L101.42 177.024L112.484 175.18L110.64 173.336L101.42 175.18L101.42 177.024Z" fill="#4D3F68"/>
<path d="M224.968 149.364L223.124 149.364L221.28 149.364L221.28 151.208L224.968 149.364Z" fill="#4D3F68"/>
<path d="M217.592 151.208L204.684 153.052L204.684 154.896L217.592 151.208Z" fill="#4D3F68"/>
<path d="M200.996 154.896L204.684 154.896L200.996 154.896L188.088 156.74L189.932 158.584L186.244 158.584L189.932 158.584L200.996 154.896Z" fill="#4D3F68"/>
<path d="M217.592 151.208L221.28 151.208L221.28 149.364L95.8883 -5.48106e-06L94.0443 -5.56166e-06L217.592 151.208Z" fill="#4D3F68"/>
<path d="M223.124 151.208L221.28 151.208L219.436 153.052L223.124 151.208Z" fill="#4D3F68"/>
<path d="M219.436 154.896L221.28 153.052L223.124 153.052L219.436 153.052L219.436 154.896Z" fill="#4D3F68"/>
<path d="M224.968 153.052L223.124 153.052L221.28 154.896L224.968 153.052Z" fill="#4D3F68"/>
<path d="M224.968 154.896L221.28 156.74L223.124 156.74L224.968 154.896Z" fill="#4D3F68"/>
<path d="M200.996 154.896L204.684 154.896L204.684 153.052L90.3561 -4.99744e-06L200.996 154.896Z" fill="#4D3F68"/>
<path d="M206.528 156.74L206.528 154.896L202.84 156.74L206.528 156.74Z" fill="#4D3F68"/>
<path d="M210.216 160.428L206.528 160.428L206.528 162.272L210.216 160.428Z" fill="#4D3F68"/>
<path d="M210.216 162.272L206.528 164.116L208.372 164.116L210.216 162.272Z" fill="#4D3F68"/>
<path d="M184.4 158.584L186.244 158.584L189.932 158.584L188.088 156.74L86.6681 -4.51381e-06L84.8241 -4.59442e-06L184.4 158.584Z" fill="#4D3F68"/>
<path d="M189.932 160.428L191.776 160.428L189.932 160.428L188.088 160.428L186.244 160.428L188.088 162.272L189.932 160.428Z" fill="#4D3F68"/>
<path d="M193.62 164.116L191.776 162.272L188.088 164.116L189.932 164.116L193.62 164.116Z" fill="#4D3F68"/>
<path d="M195.464 165.96L193.62 165.96L191.776 167.804L195.464 165.96Z" fill="#4D3F68"/>
<path d="M197.308 169.648L195.464 167.804L195.464 169.648L193.62 169.648L193.62 171.492L197.308 169.648Z" fill="#4D3F68"/>
<path d="M199.152 171.492L197.308 171.492L195.464 173.336L199.152 171.492Z" fill="#4D3F68"/>
<path d="M169.648 160.428L169.648 162.272L173.336 162.272L173.336 160.428L81.1364 -4.03019e-06L79.2924 -4.11079e-06L169.648 160.428Z" fill="#4D3F68"/>
<path d="M175.18 165.96L175.18 164.116L171.492 165.96L175.18 165.96Z" fill="#4D3F68"/>
<path d="M177.024 169.648L177.024 167.804L173.336 169.648L177.024 169.648Z" fill="#4D3F68"/>
<path d="M180.712 173.336L178.868 171.492L175.18 173.336L177.024 173.336L180.712 173.336Z" fill="#4D3F68"/>
<path d="M182.556 177.024L182.556 175.18L178.868 177.024L178.868 178.868L182.556 177.024Z" fill="#4D3F68"/>
<path d="M154.896 164.116L154.896 165.96L156.74 165.96L158.584 164.116L156.74 164.116L77.4485 -3.54657e-06L75.6045 -3.62717e-06L154.896 164.116Z" fill="#4D3F68"/>
<path d="M160.428 169.648L160.428 167.804L156.74 169.648L160.428 169.648Z" fill="#4D3F68"/>
<path d="M162.272 173.336L158.584 173.336L158.584 175.18L162.272 173.336Z" fill="#4D3F68"/>
<path d="M162.272 180.712L165.96 178.868L164.116 178.868L164.116 177.024L160.428 178.868L162.272 180.712Z" fill="#4D3F68"/>
<path d="M167.804 184.4L167.804 182.556L164.116 184.4L167.804 184.4Z" fill="#4D3F68"/>
<path d="M153.052 189.932L149.364 191.776L153.052 189.932Z" fill="#4D3F68"/>
<path d="M147.52 186.244L151.208 184.4L149.364 184.4L145.676 184.4L147.52 186.244Z" fill="#4D3F68"/>
<path d="M147.52 178.868L143.832 178.868L143.832 180.712L147.52 178.868Z" fill="#4D3F68"/>
<path d="M145.676 173.336L145.676 171.492L141.988 173.336L141.988 175.18L145.676 173.336Z" fill="#4D3F68"/>
<path d="M140.144 167.804L140.144 169.648L140.144 167.804L143.832 167.804L141.988 165.96L71.916 -3.14355e-06L140.144 167.804Z" fill="#4D3F68"/>
<path d="M138.3 197.308L134.612 197.308L134.612 199.152L138.3 197.308Z" fill="#4D3F68"/>
<path d="M132.768 191.776L136.456 191.776L134.612 189.932L132.768 191.776Z" fill="#4D3F68"/>
<path d="M132.768 184.4L132.768 182.556L129.08 184.4L130.924 186.244L132.768 184.4Z" fill="#4D3F68"/>
<path d="M130.924 177.024L127.236 177.024L127.236 178.868L130.924 177.024Z" fill="#4D3F68"/>
<path d="M125.392 169.648L125.392 171.492L129.08 171.492L129.08 169.648L68.2281 -2.65993e-06L125.392 169.648Z" fill="#4D3F68"/>
<path d="M123.548 204.684L123.548 202.84L119.86 204.684L119.86 206.528L123.548 204.684Z" fill="#4D3F68"/>
<path d="M121.704 197.308L121.704 195.464L118.016 197.308L118.016 199.152L121.704 197.308Z" fill="#4D3F68"/>
<path d="M119.86 189.932L118.016 188.088L116.172 188.088L116.172 189.932L119.86 189.932Z" fill="#4D3F68"/>
<path d="M118.016 182.556L116.172 180.712L114.328 180.712L114.328 182.556L118.016 182.556Z" fill="#4D3F68"/>
<path d="M99.5761 127.236L99.5761 130.924L103.264 141.988L105.108 145.676L103.264 145.676L106.952 158.584L108.796 158.584L108.796 162.272L110.64 173.336L112.484 175.18L114.328 175.18L114.328 173.336L64.5401 -2.1763e-06L97.7321 127.236L99.5761 127.236Z" fill="#4D3F68"/>
<path d="M108.796 212.06L108.796 210.216L105.108 212.06L105.108 213.904L108.796 212.06Z" fill="#4D3F68"/>
<path d="M106.952 202.84L106.952 200.996L105.108 202.84L103.264 202.84L103.264 204.684L106.952 202.84Z" fill="#4D3F68"/>
<path d="M105.108 193.62L105.108 191.776L101.42 193.62L101.42 195.464L105.108 193.62Z" fill="#4D3F68"/>
<path d="M103.264 186.244L103.264 184.4L99.5762 184.4L99.5762 186.244L103.264 186.244Z" fill="#4D3F68"/>
<path d="M94.0444 143.832L90.3564 130.924L88.5124 132.768L90.3564 143.832L94.0444 143.832Z" fill="#4D3F68"/>
<path d="M94.0444 158.584L97.7324 158.584L94.0444 147.52L92.2004 147.52L94.0444 158.584Z" fill="#4D3F68"/>
<path d="M73.76 53.476L71.916 53.476L73.76 66.384L75.604 66.384L73.76 53.476Z" fill="#4D3F68"/>
<path d="M81.1365 101.42L84.8244 112.484L86.6685 112.484L84.8244 101.42L81.1365 101.42Z" fill="#4D3F68"/>
<path d="M94.0444 162.272L97.7324 177.024L97.7324 178.868L99.5764 178.868L101.42 177.024L101.42 175.18L97.7324 162.272L95.8884 162.272L94.0444 162.272Z" fill="#4D3F68"/>
<path d="M79.2925 84.824L81.1365 97.732L82.9805 97.732L81.1365 84.824L79.2925 84.824Z" fill="#4D3F68"/>
<path d="M68.228 33.192L60.852 -3.22416e-07L68.228 35.036L68.228 33.192Z" fill="#4D3F68"/>
<path d="M75.6045 70.072L77.4485 82.98L79.2925 81.136L77.4485 70.072L75.6045 70.072Z" fill="#4D3F68"/>
<path d="M71.916 49.788L70.072 36.88L68.228 36.88L68.228 38.724L71.916 49.788Z" fill="#4D3F68"/>
<path d="M71.9162 51.632L73.7603 53.476L71.9162 49.788L71.9162 51.632Z" fill="#4D3F68"/>
<path d="M84.8244 116.172L88.5124 129.08L90.3564 129.08L88.5124 116.172L84.8244 116.172Z" fill="#4D3F68"/>
<path d="M94.0442 162.272L95.8882 162.272L94.0442 158.584L82.9802 160.428L82.9802 162.272L94.0442 162.272Z" fill="#4D3F68"/>
<path d="M79.2925 162.272L79.2925 160.428L66.3845 160.428L68.2285 164.116L79.2925 162.272Z" fill="#4D3F68"/>
<path d="M64.54 164.116L62.696 160.428L51.632 162.272L51.632 164.116L64.54 164.116Z" fill="#4D3F68"/>
<path d="M3.68824 164.116L0.00024128 164.116L0.000241199 165.96L5.53223 165.96L3.68824 164.116Z" fill="#4D3F68"/>
<path d="M47.9443 164.116L47.9443 162.272L36.8803 162.272L36.8803 164.116L47.9443 164.116Z" fill="#4D3F68"/>
<path d="M33.1924 164.116L33.1924 162.272L22.1284 162.272L22.1284 165.96L33.1924 164.116Z" fill="#4D3F68"/>
<path d="M18.4404 165.96L18.4404 164.116L7.37642 164.116L7.37642 165.96L18.4404 165.96Z" fill="#4D3F68"/>
<path d="M108.796 158.584L106.952 158.584L108.796 162.272L108.796 158.584Z" fill="#4D3F68"/>
<path d="M5.53242 156.74L16.5964 154.896L20.2844 154.896L29.5044 153.052L33.1924 153.052L44.2564 153.052L47.9444 151.208L59.0084 151.208L62.6964 151.208L73.7604 149.364L77.4484 149.364L88.5124 147.52L92.2004 147.52L94.0444 147.52L94.0444 143.832L90.3564 143.832L86.6684 143.832L75.6044 145.676L71.9164 145.676L60.8524 147.52L57.1644 147.52L46.1004 149.364L42.4124 149.364L33.1924 151.208L29.5044 151.208L18.4404 153.052L16.5964 153.052L5.53242 153.052L1.84443 153.052L0.000442021 154.896L0.000441941 156.74L3.68844 156.74L5.53242 156.74Z" fill="#4D3F68"/>
<path d="M103.264 141.988L103.264 145.676L105.108 145.676L103.264 141.988Z" fill="#4D3F68"/>
<path d="M88.5124 132.768L90.3564 130.924L90.3564 129.08L88.5124 129.08L0.000449489 143.832L0.000449409 145.676L88.5124 132.768Z" fill="#4D3F68"/>
<path d="M99.5762 127.236L97.7322 127.236L99.5762 130.924L99.5762 127.236Z" fill="#4D3F68"/>
<path d="M88.5122 116.172L86.6682 112.484L84.8242 112.484L0.000205107 132.768L0.000204946 136.456L84.8242 116.172L88.5122 116.172Z" fill="#4D3F68"/>
<path d="M84.8242 101.42L82.9802 97.732L81.1362 97.732L0.000227834 121.704L0.000227673 125.392L81.1362 101.42L84.8242 101.42Z" fill="#4D3F68"/>
<path d="M81.1362 84.824L79.2922 81.136L77.4482 82.98L0.000235222 110.64L0.00023506 114.328L79.2922 84.824L81.1362 84.824Z" fill="#4D3F68"/>
<path d="M53.4761 79.292L51.6321 75.604L40.5681 81.136L40.5681 82.98L36.8801 84.824L36.8801 82.98L7.90608e-05 99.576L7.89802e-05 101.42L53.4761 79.292Z" fill="#4D3F68"/>
<path d="M55.32 75.604L57.164 77.448L68.228 73.76L66.384 70.072L55.32 75.604Z" fill="#4D3F68"/>
<path d="M75.6042 66.384L73.7602 66.384L70.0722 68.228L70.0722 71.916L75.6042 70.072L77.4482 70.072L75.6042 66.384Z" fill="#4D3F68"/>
<path d="M5.53223 84.824L0.000241199 86.668L0.000241038 90.356L5.53223 86.668L5.53223 84.824Z" fill="#4D3F68"/>
<path d="M7.37618 82.98L9.22019 84.824L20.2842 79.292L18.4402 77.448L7.37618 82.98Z" fill="#4D3F68"/>
<path d="M59.008 57.164L49.788 60.852L49.788 64.54L64.54 57.164L60.852 59.008L59.008 57.164Z" fill="#4D3F68"/>
<path d="M35.0363 68.228L36.8803 71.916L47.9443 66.384L46.1003 62.696L35.0363 68.228Z" fill="#4D3F68"/>
<path d="M22.1284 75.604L22.1284 77.448L33.1924 73.76L33.1924 70.072L22.1284 75.604Z" fill="#4D3F68"/>
<path d="M71.9162 51.632L71.9162 49.788L62.6962 55.32L64.5403 57.164L71.9162 53.476L73.7603 53.476L71.9162 51.632Z" fill="#4D3F68"/>
<path d="M55.3203 40.568L57.1643 44.256L66.3843 38.724L64.5403 36.88L55.3203 40.568Z" fill="#4D3F68"/>
<path d="M1.84447 71.916L0.000480333 73.76L0.000480172 77.448L3.68848 75.604L1.84447 71.916Z" fill="#4D3F68"/>
<path d="M44.2561 47.944L44.2561 51.632L53.4761 46.1L53.4761 42.412L44.2561 47.944Z" fill="#4D3F68"/>
<path d="M5.53218 70.072L5.53218 73.76L16.5962 68.228L14.7522 64.54L5.53218 70.072Z" fill="#4D3F68"/>
<path d="M31.3481 55.32L31.3481 59.008L42.4121 53.476L40.5681 49.788L31.3481 55.32Z" fill="#4D3F68"/>
<path d="M18.4404 62.696L18.4404 66.384L29.5044 60.852L27.6604 57.164L18.4404 62.696Z" fill="#4D3F68"/>
<path d="M68.2283 33.192L68.2283 35.036L66.3843 35.036L68.2283 36.88L70.0723 36.88L68.2283 33.192Z" fill="#4D3F68"/>
<path d="M7.3762 165.96L7.3762 164.116L3.6882 164.116L5.53219 165.96L9.22021 195.464L9.22021 197.308L12.9082 197.308L12.9082 193.62L7.3762 165.96Z" fill="#4D3F68"/>
<path d="M22.1284 165.96L22.1284 162.272L18.4404 164.116L18.4404 165.96L23.9724 191.776L25.8164 193.62L29.5044 193.62L27.6604 191.776L27.6604 189.932L22.1284 165.96Z" fill="#4D3F68"/>
<path d="M36.8804 164.116L36.8804 162.272L33.1923 162.272L33.1923 164.116L40.5683 188.088L40.5683 189.932L44.2563 189.932L44.2563 188.088L36.8804 164.116Z" fill="#4D3F68"/>
<path d="M51.6321 164.116L51.6321 162.272L47.9441 162.272L47.9441 164.116L55.3201 184.4L57.1641 186.244L60.852 186.244L59.0081 184.4L51.6321 164.116Z" fill="#4D3F68"/>
<path d="M68.228 164.116L66.384 160.428L62.696 160.428L64.54 164.116L71.916 180.712L71.916 182.556L75.604 182.556L75.604 180.712L68.228 164.116Z" fill="#4D3F68"/>
<path d="M82.9802 162.272L82.9802 160.428L79.2922 160.428L79.2922 162.272L86.6682 178.868L88.5122 178.868L92.2002 178.868L92.2002 177.024L90.3562 177.024L82.9802 162.272Z" fill="#4D3F68"/>
<path d="M95.8884 162.272L97.7324 162.272L97.7324 158.584L94.0444 158.584L95.8884 162.272Z" fill="#4D3F68"/>
<path d="M5.5322 84.824L5.5322 86.668L9.22021 84.824L7.37621 82.98L5.5322 84.824Z" fill="#4D3F68"/>
<path d="M3.68824 75.604L5.53223 73.76L5.53223 70.072L0.00024128 47.944L0.000240635 62.696L1.84423 71.916L3.68824 75.604Z" fill="#4D3F68"/>
<path d="M18.4404 77.448L20.2844 79.292L22.1284 77.448L22.1284 75.604L18.4404 77.448Z" fill="#4D3F68"/>
<path d="M16.5964 68.228L18.4404 66.384L18.4404 62.696L0.000429153 1.84399L0.00042875 11.064L14.7524 64.54L16.5964 68.228Z" fill="#4D3F68"/>
<path d="M36.8804 84.824L40.5684 82.98L40.5684 81.136L36.8804 82.98L36.8804 84.824Z" fill="#4D3F68"/>
<path d="M33.1924 70.072L33.1924 73.76L36.8804 71.916L35.0364 68.228L33.1924 70.072Z" fill="#4D3F68"/>
<path d="M29.5041 60.852L31.3481 59.008L31.3481 55.32L11.0641 -8.86642e-07L7.37614 -1.04785e-06L27.6601 57.164L29.5041 60.852Z" fill="#4D3F68"/>
<path d="M51.6321 75.604L53.4761 79.292L57.1641 77.448L55.3201 75.604L51.6321 75.604Z" fill="#4D3F68"/>
<path d="M46.1001 62.696L47.9441 66.384L49.7881 64.54L49.7881 60.852L46.1001 62.696Z" fill="#4D3F68"/>
<path d="M42.4123 53.476L44.2563 51.632L44.2563 47.944L22.1284 -9.67245e-07L20.2843 -1.04785e-06L40.5683 49.788L42.4123 53.476Z" fill="#4D3F68"/>
<path d="M53.4761 46.1L57.1641 44.256L55.3201 40.568L35.0361 -9.67245e-07L31.3481 -1.12845e-06L53.4761 42.412L53.4761 46.1Z" fill="#4D3F68"/>
<path d="M63.4131 58.349L61.8003 55.0323L58.4837 56.6451L60.0964 59.9617L63.4131 58.349Z" fill="#4D3F68"/>
<path d="M66.3843 70.072L68.2283 73.76L70.0723 71.916L70.0723 68.228L66.3843 70.072Z" fill="#4D3F68"/>
<path d="M66.384 38.724L68.228 38.724L68.228 36.88L66.384 35.036L46.1 -9.67245e-07L44.256 -1.04785e-06L64.54 36.88L66.384 38.724Z" fill="#4D3F68"/>
</g>
<defs>
<clipPath id="clip0_1435_3197">
<rect width="461" height="228.656" fill="white" transform="translate(228.656) rotate(90)"/>
</clipPath>
</defs>
</svg>
