<svg width="159" height="461" viewBox="0 0 159 461" fill="none" xmlns="http://www.w3.org/2000/svg">
<g clip-path="url(#clip0_1434_3063)">
<path d="M35.036 319.012L86.668 0L31.348 322.7L35.036 319.012Z" fill="#4D3F68"/>
<path d="M53.4759 304.26L90.356 0L49.7879 307.948L53.4759 304.26Z" fill="#4D3F68"/>
<path d="M70.0722 291.352L92.2002 0L66.3842 295.04L70.0722 291.352Z" fill="#4D3F68"/>
<path d="M81.1362 282.132L84.8242 278.444L95.8882 16.596L95.8882 11.064L95.8882 0L94.0442 -8.06037e-08L94.0442 11.064L81.1362 282.132Z" fill="#4D3F68"/>
<path d="M97.7322 18.44L97.7322 35.036L97.7322 42.412L97.7322 59.008L97.7322 64.54L97.7322 82.98L97.7322 88.512L97.7322 106.952L97.7322 112.484L97.7322 130.924L97.7322 136.456L97.7322 154.896L97.7322 160.428L95.8882 269.224L99.5762 265.536L99.5762 158.584L99.5762 153.052L99.5762 134.612L99.5762 130.924L99.5762 112.484L99.5762 106.952L99.5762 88.512L99.5762 82.98L99.5762 64.54L99.5762 59.008L97.7322 42.412L97.7322 35.036L97.7322 18.44L97.7322 12.908L97.7322 -8.06037e-08L97.7322 12.908L97.7322 18.44Z" fill="#4D3F68"/>
<path d="M101.42 18.44L101.42 36.88L101.42 42.412L103.264 59.008L103.264 64.54L103.264 82.98L103.264 88.512L105.108 105.108L105.108 110.64L105.108 129.08L105.108 134.612L106.952 151.208L106.952 156.74L110.64 258.16L112.484 254.472L108.796 154.896L108.796 151.208L106.952 132.768L106.952 127.236L106.952 110.64L106.952 105.108L105.108 88.512L105.108 82.98L103.264 64.54L103.264 59.008L103.264 42.412L103.264 36.88L101.42 18.44L101.42 12.908L101.42 -4.83623e-07L101.42 12.908L101.42 18.44Z" fill="#4D3F68"/>
<path d="M105.108 18.44L106.952 36.88L106.952 42.412L108.796 59.008L108.796 64.54L110.64 82.98L110.64 86.668L112.484 105.108L112.484 110.64L112.484 127.236L114.328 130.924L114.328 147.52L116.172 153.052L123.548 247.096L125.392 245.252L118.016 153.052L116.172 147.52L116.172 130.924L114.328 125.392L114.328 108.796L112.484 105.108L112.484 86.668L110.64 82.98L108.796 64.54L108.796 59.008L106.952 42.412L106.952 36.88L105.108 18.44L105.108 12.908L103.264 -9.67246e-07L105.108 12.908L105.108 18.44Z" fill="#4D3F68"/>
<path d="M108.796 20.284L110.64 36.88L110.64 42.412L112.484 59.008L114.328 64.54L116.172 81.136L116.172 86.668L118.016 103.264L119.86 108.796L121.704 125.392L121.704 129.08L123.548 145.676L123.548 149.364L134.612 237.876L136.456 234.188L125.392 149.364L125.392 143.832L123.548 129.08L123.548 123.548L119.86 108.796L119.86 103.264L118.016 86.668L118.016 81.136L114.328 64.54L114.328 59.008L112.484 42.412L112.484 36.88L108.796 20.284L108.796 14.752L106.952 -1.28966e-06L106.952 14.752L108.796 20.284Z" fill="#4D3F68"/>
<path d="M154.896 177.024L153.052 173.336L154.896 173.336L153.052 162.272L151.208 162.272L149.364 158.584L151.208 158.584L149.364 145.676L147.52 145.676L145.676 141.988L147.52 141.988L145.676 130.924L143.832 130.924L141.988 127.236L143.832 127.236L140.144 114.328L138.3 110.64L140.144 110.64L136.456 99.576L134.612 95.888L136.456 95.888L134.612 88.512L132.768 90.356L158.584 200.996L158.584 191.776L158.584 193.62L156.74 189.932L158.584 188.088L158.584 186.244L156.74 177.024L154.896 177.024Z" fill="#4D3F68"/>
<path d="M130.924 75.604L129.08 75.604L130.924 86.668L134.612 86.668L130.924 75.604Z" fill="#4D3F68"/>
<path d="M112.484 1.84399L114.328 14.752L116.172 14.752L112.484 1.84399Z" fill="#4D3F68"/>
<path d="M127.236 62.696L125.392 62.696L129.08 71.916L130.924 71.916L127.236 62.696Z" fill="#4D3F68"/>
<path d="M123.548 47.944L125.392 59.008L127.236 59.008L123.548 47.944Z" fill="#4D3F68"/>
<path d="M116.172 18.44L118.016 29.504L119.86 29.504L116.172 18.44Z" fill="#4D3F68"/>
<path d="M119.86 33.192L121.704 44.256L123.548 44.256L119.86 33.192Z" fill="#4D3F68"/>
<path d="M112.484 1.844L158.584 7.376L158.584 5.532L119.86 -1.69268e-06L112.484 -2.0151e-06L112.484 1.844Z" fill="#4D3F68"/>
<path d="M114.328 14.752L116.172 18.44L158.584 20.284L158.584 16.596L116.172 14.752L114.328 14.752Z" fill="#4D3F68"/>
<path d="M118.016 29.504L119.86 33.192L158.584 33.192L158.584 29.504L119.86 29.504L118.016 29.504Z" fill="#4D3F68"/>
<path d="M121.704 44.256L123.548 47.944L158.584 46.1L158.584 42.412L123.548 44.256L121.704 44.256Z" fill="#4D3F68"/>
<path d="M125.392 59.008L125.392 62.696L127.236 62.696L158.584 57.164L158.584 55.32L127.236 59.008L125.392 59.008Z" fill="#4D3F68"/>
<path d="M129.08 71.916L129.08 75.604L130.924 75.604L143.832 73.76L141.988 71.916L145.676 71.916L147.52 71.916L158.584 70.072L158.584 68.228L130.924 71.916L129.08 71.916Z" fill="#4D3F68"/>
<path d="M151.208 84.824L158.584 82.98L158.584 79.292L151.208 81.136L151.208 84.824Z" fill="#4D3F68"/>
<path d="M147.52 84.824L147.52 82.98L134.612 86.668L130.924 86.668L132.768 90.356L134.612 88.512L147.52 84.824Z" fill="#4D3F68"/>
<path d="M158.584 99.576L154.896 99.576L158.584 108.796L158.584 101.42L158.584 99.576Z" fill="#4D3F68"/>
<path d="M147.52 82.98L147.52 84.824L153.052 95.888L156.74 95.888L151.208 84.824L147.52 84.824L147.52 82.98Z" fill="#4D3F68"/>
<path d="M145.676 71.916L141.988 71.916L143.832 73.76L147.52 71.916L145.676 71.916Z" fill="#4D3F68"/>
<path d="M158.584 193.62L158.584 191.776L158.584 188.088L156.74 189.932L158.584 193.62Z" fill="#4D3F68"/>
<path d="M154.896 173.336L153.052 173.336L154.896 177.024L156.74 177.024L158.584 177.024L158.584 173.336L156.74 173.336L154.896 173.336Z" fill="#4D3F68"/>
<path d="M151.208 158.584L149.364 158.584L151.208 162.272L153.052 162.272L158.584 160.428L158.584 156.74L151.208 158.584Z" fill="#4D3F68"/>
<path d="M147.52 141.988L145.676 141.988L147.52 145.676L149.364 145.676L158.584 143.832L158.584 140.144L147.52 141.988Z" fill="#4D3F68"/>
<path d="M143.832 127.236L141.988 127.236L143.832 130.924L145.676 130.924L158.584 129.08L158.584 125.392L143.832 127.236Z" fill="#4D3F68"/>
<path d="M140.144 110.64L138.3 110.64L140.144 114.328L141.988 114.328L158.584 114.328L158.584 110.64L140.144 110.64Z" fill="#4D3F68"/>
<path d="M153.052 95.888L136.456 95.888L134.612 95.888L136.456 99.576L138.3 99.576L154.896 99.576L158.584 99.576L156.74 95.888L153.052 95.888Z" fill="#4D3F68"/>
<path d="M147.52 84.824L151.208 84.824L151.208 81.136L147.52 82.98L147.52 84.824Z" fill="#4D3F68"/>
<path d="M134.612 237.876L125.392 245.252L123.548 247.096L112.484 254.472L110.64 258.16L99.576 265.536L95.888 269.224L84.824 278.444L81.136 282.132L70.072 291.352L66.384 295.04L53.476 304.26L49.788 307.948L35.036 319.012L31.348 322.7L-3.63211e-05 350.36L31.348 324.544L35.036 320.856L49.788 309.792L53.476 306.104L66.384 296.884L70.072 293.196L81.136 283.976L84.824 280.288L95.888 271.068L99.576 269.224L110.64 260.004L112.484 258.16L123.548 250.784L125.392 247.096L134.612 239.72L138.3 237.876L158.584 221.28L158.584 217.592L136.456 234.188L134.612 237.876Z" fill="#4D3F68"/>
<path d="M136.456 250.784L127.236 258.16L123.548 260.004L114.328 267.38L110.64 269.224L99.576 276.6L95.888 280.288L84.824 287.664L81.136 291.352L70.072 298.728L66.384 302.416L53.476 311.636L47.944 315.324L35.036 324.544L31.348 328.232L-3.55956e-05 350.36L31.348 328.232L35.036 326.388L47.944 317.168L53.476 313.48L66.384 304.26L70.072 302.416L81.136 293.196L84.824 289.508L95.888 282.132L99.576 280.288L110.64 271.068L114.328 269.224L123.548 261.848L127.236 260.004L136.456 252.628L140.144 250.784L158.584 237.876L158.584 234.188L138.3 248.94L136.456 250.784Z" fill="#4D3F68"/>
<path d="M1.84397 352.204L5.53198 350.36L158.584 252.628L158.584 248.94L3.68798 350.36L1.84397 352.204Z" fill="#4D3F68"/>
<path d="M29.504 337.452L33.192 335.608L158.584 267.38L158.584 263.692L29.504 337.452Z" fill="#4D3F68"/>
<path d="M29.5041 337.452L20.2841 342.984L16.5961 344.828L5.53214 350.36L1.84414 352.204L1.84414 354.048L5.53214 350.36L16.5961 344.828L20.2841 342.984L31.3481 337.452L29.5041 337.452Z" fill="#4D3F68"/>
<path d="M119.86 296.884L108.796 302.416L105.108 304.26L94.044 309.792L90.356 311.636L79.292 317.168L75.604 317.168L64.54 322.7L60.852 324.544L49.788 330.076L46.1 331.92L35.036 337.452L31.348 339.296L20.284 344.828L18.44 346.672L5.53198 352.204L3.68798 354.048L1.84398 354.048L3.68798 354.048L5.53198 352.204L7.37597 352.204L18.44 346.672L20.284 344.828L22.128 344.828L33.192 341.14L33.192 339.296L33.192 341.14L31.348 339.296L35.036 337.452L35.036 339.296L46.1 333.764L46.1 331.92L49.788 330.076L49.788 331.92L60.852 326.388L60.852 324.544L64.54 322.7L64.54 324.544L75.604 319.012L75.604 317.168L79.292 317.168L90.356 311.636L94.044 309.792L94.044 311.636L105.108 306.104L105.108 304.26L108.796 302.416L108.796 304.26L119.86 298.728L119.86 296.884L123.548 295.04L123.548 296.884L158.584 280.288L158.584 276.6L123.548 295.04L119.86 296.884Z" fill="#4D3F68"/>
<path d="M121.704 306.104L110.64 309.792L106.952 311.636L95.888 315.324L95.888 317.168L106.952 313.48L106.952 311.636L110.64 309.792L110.64 311.636L121.704 307.948L123.548 307.948L121.704 307.948L121.704 306.104L125.392 304.26L125.392 306.104L158.584 293.196L158.584 289.508L125.392 304.26L121.704 306.104Z" fill="#4D3F68"/>
<path d="M79.292 322.7L77.448 324.544L66.384 328.232L64.54 330.076L66.384 328.232L66.384 330.076L68.228 330.076L79.292 324.544L77.448 324.544L79.292 322.7Z" fill="#4D3F68"/>
<path d="M95.8882 317.168L92.2002 317.168L81.1362 322.7L81.1362 324.544L94.0442 319.012L92.2002 317.168L95.8882 317.168Z" fill="#4D3F68"/>
<path d="M62.696 330.076L51.632 335.608L47.944 335.608L36.88 341.14L33.192 342.984L22.128 346.672L18.44 348.516L7.37604 354.048L3.68804 355.892L5.53203 355.892L3.68804 355.892L7.37604 354.048L18.44 348.516L22.128 346.672L35.036 342.984L33.192 342.984L36.88 341.14L49.788 337.452L47.944 335.608L51.632 335.608L53.476 335.608L64.54 330.076L62.696 330.076Z" fill="#4D3F68"/>
<path d="M123.548 313.48L112.484 319.012L123.548 317.168L123.548 313.48L127.236 313.48L127.236 315.324L158.584 304.26L158.584 302.416L127.236 313.48L123.548 313.48Z" fill="#4D3F68"/>
<path d="M112.484 319.012L108.796 319.012L97.7319 322.7L94.0439 324.544L82.9799 328.232L81.1359 330.076L70.0719 333.764L66.3839 335.608L55.3199 339.296L51.6319 339.296L38.7239 344.828L35.0359 344.828L23.9719 348.516L20.2839 350.36L9.21988 354.048L9.21988 355.892L20.2839 350.36L23.9719 348.516L23.9719 350.36L36.8799 346.672L35.0359 344.828L38.7239 344.828L40.5679 344.828L51.6319 341.14L51.6319 339.296L55.3199 339.296L66.3839 335.608L70.0719 333.764L81.1359 330.076L82.9799 328.232L84.8239 330.076L95.8879 326.388L94.0439 324.544L97.7319 322.7L99.5759 324.544L108.796 320.856L110.64 320.856L108.796 319.012L112.484 319.012Z" fill="#4D3F68"/>
<path d="M7.37598 354.048L5.53197 355.892L3.68798 355.892L3.68798 357.736L5.53197 355.892L7.37598 354.048Z" fill="#4D3F68"/>
<path d="M36.8801 348.516L25.8161 352.204L22.1281 352.204L9.22011 355.892L5.53212 357.736L3.68813 357.736L5.53212 357.736L7.37612 357.736L5.53212 357.736L9.22011 355.892L22.1281 352.204L25.8161 352.204L38.7241 348.516L36.8801 348.516Z" fill="#4D3F68"/>
<path d="M110.64 326.388L114.328 326.388L110.64 326.388L101.42 330.076L97.7321 331.92L86.6681 333.764L82.9801 335.608L71.9161 337.452L68.2281 339.296L57.1641 342.984L53.4761 342.984L40.5681 346.672L38.7241 348.516L40.5681 346.672L42.4121 348.516L53.4761 344.828L53.4761 342.984L57.1641 342.984L68.2281 341.14L68.2281 339.296L71.9161 337.452L71.9161 339.296L82.9801 335.608L86.6681 333.764L86.6681 335.608L97.7321 331.92L101.42 330.076L101.42 331.92L112.484 328.232L110.64 326.388Z" fill="#4D3F68"/>
<path d="M125.392 322.7L114.328 326.388L114.328 328.232L125.392 324.544L125.392 322.7L129.08 322.7L129.08 324.544L158.584 315.324L158.584 313.48L129.08 322.7L125.392 322.7Z" fill="#4D3F68"/>
<path d="M59.008 348.516L70.072 344.828L71.916 342.984L70.072 344.828L59.008 346.672L59.008 348.516Z" fill="#4D3F68"/>
<path d="M73.7602 344.828L84.8242 341.14L86.6682 341.14L84.8242 341.14L88.5122 339.296L84.8242 341.14L73.7602 342.984L73.7602 344.828Z" fill="#4D3F68"/>
<path d="M11.0642 357.736L23.9722 355.892L23.9722 354.048L11.0642 357.736Z" fill="#4D3F68"/>
<path d="M44.2558 350.36L55.3198 348.516L55.3198 346.672L42.4118 350.36L44.2558 350.36Z" fill="#4D3F68"/>
<path d="M118.016 335.608L127.236 333.764L127.236 331.92L129.08 330.076L127.236 331.92L116.172 333.764L118.016 335.608Z" fill="#4D3F68"/>
<path d="M88.5122 341.14L99.5762 339.296L99.5762 337.452L88.5122 339.296L88.5122 341.14Z" fill="#4D3F68"/>
<path d="M27.6599 354.048L40.5679 352.204L38.7239 350.36L40.5679 350.36L38.7239 350.36L27.6599 354.048L23.9719 354.048L27.6599 354.048Z" fill="#4D3F68"/>
<path d="M130.924 330.076L130.924 331.92L136.456 331.92L136.456 330.076L140.144 330.076L153.052 328.232L153.052 326.388L156.74 326.388L158.584 326.388L158.584 324.544L130.924 330.076Z" fill="#4D3F68"/>
<path d="M103.264 337.452L114.328 335.608L114.328 333.764L116.172 333.764L114.328 333.764L103.264 337.452Z" fill="#4D3F68"/>
<path d="M7.37598 357.736L3.68798 359.58L7.37598 359.58L7.37598 357.736Z" fill="#4D3F68"/>
<path d="M11.0639 357.736L7.37595 357.736L7.37595 359.58L92.1999 461L94.0439 461L11.0639 357.736Z" fill="#4D3F68"/>
<path d="M5.53173 357.736L7.37574 357.736L9.21973 355.892L5.53173 357.736Z" fill="#4D3F68"/>
<path d="M9.21973 354.048L7.37574 354.048L5.53173 355.892L9.21973 355.892L9.21973 354.048Z" fill="#4D3F68"/>
<path d="M3.68798 355.892L5.53197 355.892L7.37598 354.048L3.68798 355.892Z" fill="#4D3F68"/>
<path d="M3.68798 354.048L7.37598 352.204L5.53197 352.204L3.68798 354.048Z" fill="#4D3F68"/>
<path d="M27.6599 354.048L23.9719 354.048L23.9719 355.892L101.42 461L105.108 461L27.6599 354.048Z" fill="#4D3F68"/>
<path d="M20.2842 350.36L23.9722 350.36L23.9722 348.516L20.2842 350.36Z" fill="#4D3F68"/>
<path d="M18.4399 348.516L22.1279 348.516L22.1279 346.672L18.4399 348.516Z" fill="#4D3F68"/>
<path d="M18.4399 346.672L22.1279 344.828L20.2839 344.828L18.4399 346.672Z" fill="#4D3F68"/>
<path d="M44.2561 350.36L42.4121 350.36L40.5681 350.36L38.7241 350.36L40.5681 352.204L110.64 461L114.328 461L44.2561 350.36Z" fill="#4D3F68"/>
<path d="M38.7241 348.516L36.8801 348.516L38.7241 348.516L42.4121 348.516L40.5681 346.672L38.7241 348.516Z" fill="#4D3F68"/>
<path d="M35.0359 344.828L36.8799 346.672L40.5679 344.828L38.7239 344.828L35.0359 344.828Z" fill="#4D3F68"/>
<path d="M33.1919 342.984L35.0359 342.984L36.8799 341.14L33.1919 342.984Z" fill="#4D3F68"/>
<path d="M31.3481 339.296L33.1921 341.14L33.1921 339.296L35.0361 339.296L35.0361 337.452L31.3481 339.296Z" fill="#4D3F68"/>
<path d="M29.5039 337.452L31.3479 337.452L33.1919 335.608L29.5039 337.452Z" fill="#4D3F68"/>
<path d="M59.0081 348.516L59.0081 346.672L55.3201 346.672L55.3201 348.516L119.86 461L121.704 461L59.0081 348.516Z" fill="#4D3F68"/>
<path d="M53.4761 342.984L53.4761 344.828L57.1641 342.984L53.4761 342.984Z" fill="#4D3F68"/>
<path d="M51.6318 339.296L51.6318 341.14L55.3198 339.296L51.6318 339.296Z" fill="#4D3F68"/>
<path d="M47.9441 335.608L49.7881 337.452L53.4761 335.608L51.6321 335.608L47.9441 335.608Z" fill="#4D3F68"/>
<path d="M46.1001 331.92L46.1001 333.764L49.7881 331.92L49.7881 330.076L46.1001 331.92Z" fill="#4D3F68"/>
<path d="M73.7598 344.828L73.7598 342.984L71.9158 342.984L70.0718 344.828L129.08 461L130.924 461L73.7598 344.828Z" fill="#4D3F68"/>
<path d="M68.228 339.296L68.228 341.14L71.916 339.296L71.916 337.452L68.228 339.296Z" fill="#4D3F68"/>
<path d="M66.3838 335.608L70.0718 333.764L66.3838 335.608Z" fill="#4D3F68"/>
<path d="M64.5398 330.076L62.6958 330.076L64.5398 330.076L66.3838 330.076L66.3838 328.232L64.5398 330.076Z" fill="#4D3F68"/>
<path d="M60.852 324.544L60.852 326.388L64.54 324.544L64.54 322.7L60.852 324.544Z" fill="#4D3F68"/>
<path d="M75.604 317.168L75.604 319.012L79.292 317.168L75.604 317.168Z" fill="#4D3F68"/>
<path d="M81.1357 322.7L79.2917 322.7L77.4477 324.544L79.2917 324.544L81.1357 324.544L81.1357 322.7Z" fill="#4D3F68"/>
<path d="M81.1357 330.076L84.8237 330.076L82.9797 328.232L81.1357 330.076Z" fill="#4D3F68"/>
<path d="M82.98 335.608L86.668 335.608L86.668 333.764L82.98 335.608Z" fill="#4D3F68"/>
<path d="M88.5118 341.14L88.5118 339.296L84.8238 341.14L86.6678 341.14L136.456 461L138.3 461L88.5118 341.14Z" fill="#4D3F68"/>
<path d="M90.3559 311.636L94.0439 311.636L94.0439 309.792L90.3559 311.636Z" fill="#4D3F68"/>
<path d="M95.8882 315.324L95.8882 317.168L92.2002 317.168L94.0442 319.012L95.8882 317.168L95.8882 315.324Z" fill="#4D3F68"/>
<path d="M94.0442 324.544L95.8882 326.388L99.5762 324.544L97.7322 322.7L94.0442 324.544Z" fill="#4D3F68"/>
<path d="M97.7319 331.92L101.42 331.92L101.42 330.076L97.7319 331.92Z" fill="#4D3F68"/>
<path d="M103.264 337.452L99.5758 337.452L99.5758 339.296L143.832 461L145.676 461L103.264 337.452Z" fill="#4D3F68"/>
<path d="M105.108 304.26L105.108 306.104L108.796 304.26L108.796 302.416L105.108 304.26Z" fill="#4D3F68"/>
<path d="M106.952 311.636L106.952 313.48L110.64 311.636L110.64 309.792L106.952 311.636Z" fill="#4D3F68"/>
<path d="M112.484 319.012L108.796 319.012L110.64 320.856L112.484 320.856L112.484 319.012Z" fill="#4D3F68"/>
<path d="M114.328 326.388L110.64 326.388L112.484 328.232L114.328 328.232L114.328 326.388Z" fill="#4D3F68"/>
<path d="M129.08 381.708L129.08 378.02L125.392 366.956L123.548 363.268L125.392 363.268L121.704 350.36L119.86 350.36L119.86 346.672L118.016 335.608L116.172 333.764L114.328 333.764L114.328 335.608L149.364 461L151.208 461L129.08 381.708Z" fill="#4D3F68"/>
<path d="M119.86 296.884L119.86 298.728L123.548 296.884L123.548 295.04L119.86 296.884Z" fill="#4D3F68"/>
<path d="M121.704 306.104L121.704 307.948L123.548 307.948L125.392 306.104L125.392 304.26L121.704 306.104Z" fill="#4D3F68"/>
<path d="M123.548 313.48L123.548 317.168L127.236 315.324L127.236 313.48L123.548 313.48Z" fill="#4D3F68"/>
<path d="M125.392 322.7L125.392 324.544L129.08 324.544L129.08 322.7L125.392 322.7Z" fill="#4D3F68"/>
<path d="M140.144 376.176L138.3 365.112L134.612 365.112L138.3 376.176L140.144 376.176Z" fill="#4D3F68"/>
<path d="M145.676 407.524L143.832 396.46L141.988 396.46L143.832 407.524L145.676 407.524Z" fill="#4D3F68"/>
<path d="M143.832 392.772L140.144 379.864L138.3 379.864L140.144 392.772L143.832 392.772Z" fill="#4D3F68"/>
<path d="M153.052 438.872L151.208 425.964L149.364 427.808L151.208 438.872L153.052 438.872Z" fill="#4D3F68"/>
<path d="M156.74 459.156L156.74 461L158.584 461L156.74 459.156Z" fill="#4D3F68"/>
<path d="M156.74 455.468L154.896 442.56L153.052 442.56L154.896 455.468L156.74 455.468Z" fill="#4D3F68"/>
<path d="M130.924 350.36L134.612 361.424L136.456 361.424L134.612 350.36L130.924 350.36Z" fill="#4D3F68"/>
<path d="M156.74 457.312L154.896 457.312L154.896 455.468L156.74 459.156L156.74 457.312Z" fill="#4D3F68"/>
<path d="M149.364 422.276L147.52 411.212L145.676 411.212L147.52 424.12L149.364 422.276Z" fill="#4D3F68"/>
<path d="M127.236 333.764L130.924 346.672L132.768 346.672L130.924 331.92L130.924 330.076L129.08 330.076L127.236 331.92L127.236 333.764Z" fill="#4D3F68"/>
<path d="M132.768 346.672L134.612 350.36L145.676 348.516L143.832 346.672L132.768 346.672Z" fill="#4D3F68"/>
<path d="M149.364 348.516L158.584 348.516L158.584 344.828L149.364 346.672L149.364 348.516Z" fill="#4D3F68"/>
<path d="M119.86 350.36L121.704 350.36L119.86 346.672L119.86 350.36Z" fill="#4D3F68"/>
<path d="M151.208 359.58L140.144 361.424L136.456 361.424L134.612 361.424L134.612 365.112L138.3 365.112L141.988 365.112L153.052 363.268L156.74 363.268L158.584 363.268L158.584 359.58L154.896 359.58L151.208 359.58Z" fill="#4D3F68"/>
<path d="M125.392 366.956L125.392 363.268L123.548 363.268L125.392 366.956Z" fill="#4D3F68"/>
<path d="M138.3 376.176L138.3 379.864L140.144 379.864L158.584 376.176L158.584 374.332L140.144 376.176L138.3 376.176Z" fill="#4D3F68"/>
<path d="M140.144 392.772L141.988 396.46L143.832 396.46L158.584 392.772L158.584 389.084L143.832 392.772L140.144 392.772Z" fill="#4D3F68"/>
<path d="M143.832 407.524L145.676 411.212L147.52 411.212L158.584 407.524L158.584 403.836L145.676 407.524L143.832 407.524Z" fill="#4D3F68"/>
<path d="M147.52 424.12L149.364 427.808L151.208 425.964L158.584 424.12L158.584 420.432L149.364 422.276L147.52 424.12Z" fill="#4D3F68"/>
<path d="M153.052 438.872L151.208 438.872L153.052 442.56L154.896 442.56L158.584 440.716L158.584 438.872L156.74 437.028L153.052 438.872Z" fill="#4D3F68"/>
<path d="M154.896 455.468L154.896 457.312L156.74 457.312L156.74 459.156L158.584 457.312L158.584 453.624L156.74 455.468L154.896 455.468Z" fill="#4D3F68"/>
<path d="M156.74 326.388L153.052 326.388L153.052 328.232L158.584 339.296L158.584 331.92L156.74 328.232L156.74 326.388Z" fill="#4D3F68"/>
<path d="M143.832 346.672L145.676 348.516L149.364 348.516L149.364 346.672L141.988 330.076L140.144 330.076L136.456 330.076L136.456 331.92L143.832 346.672Z" fill="#4D3F68"/>
<path d="M132.768 346.672L130.924 346.672L130.924 350.36L134.612 350.36L132.768 346.672Z" fill="#4D3F68"/>
<path d="M158.584 438.872L158.584 437.028L156.74 437.028L158.584 438.872Z" fill="#4D3F68"/>
</g>
<defs>
<clipPath id="clip0_1434_3063">
<rect width="461" height="158.584" fill="white" transform="translate(158.584) rotate(90)"/>
</clipPath>
</defs>
</svg>
