<svg width="24" height="23" viewBox="0 0 24 23" fill="none" xmlns="http://www.w3.org/2000/svg">
<path d="M7.54688 18.0166C7.17188 18.3604 7.15625 18.7197 7.5 19.0947C7.875 19.4385 8.23438 19.4229 8.57812 19.0479L12.75 14.9229L16.9219 19.0479C17.2656 19.4229 17.6094 19.4385 17.9531 19.0947C18.3281 18.7197 18.3281 18.3604 17.9531 18.0166L13.8281 13.8447L17.9531 9.67285C18.3281 9.3291 18.3281 8.98535 17.9531 8.6416C17.6094 8.2666 17.2656 8.2666 16.9219 8.6416L12.75 12.7666L8.57812 8.6416C8.23438 8.2666 7.875 8.2666 7.5 8.6416C7.15625 8.98535 7.17188 9.3291 7.54688 9.67285L11.6719 13.8447L7.54688 18.0166Z" fill="white"/>
</svg>
