<svg width="29" height="28" viewBox="0 0 29 28" fill="none" xmlns="http://www.w3.org/2000/svg">
<path d="M25 0H4C2.06975 0 0.5 1.56975 0.5 3.5V24.5C0.5 26.4303 2.06975 28 4 28H25C26.9303 28 28.5 26.4303 28.5 24.5V3.5C28.5 1.56975 26.9303 0 25 0Z" fill="white"/>
<path fill-rule="evenodd" clip-rule="evenodd" d="M18.2027 12.407H15.9079V10.5914C15.9079 10.0903 16.3191 10.1375 16.8258 10.1375H17.7437V7.86792H15.9079C15.1776 7.86792 14.4771 8.15485 13.9607 8.6656C13.4443 9.17635 13.1542 9.86907 13.1542 10.5914V12.407H11.3184V14.6766H13.1542V19.6696H15.9079V14.6766H17.2848L18.2027 12.407Z" fill="black"/>
</svg>
