<svg width="169" height="56" viewBox="0 0 169 56" fill="none" xmlns="http://www.w3.org/2000/svg">
<path d="M72.8064 12.4614C72.4581 12.4614 72.1694 12.6107 71.9306 12.9193C71.6917 13.2278 71.5723 13.616 71.5723 14.0838C71.5723 14.5715 71.7017 14.9696 71.9505 15.2781C72.1993 15.5867 72.5178 15.7359 72.8761 15.7359C73.2245 15.7359 73.5131 15.5767 73.752 15.2682C73.9908 14.9596 74.1103 14.5715 74.1103 14.1037C74.1103 13.616 73.9809 13.2079 73.7321 12.9093C73.4932 12.6107 73.1846 12.4614 72.8064 12.4614Z" fill="white"/>
<path d="M79.6446 12.4917C79.5451 12.4917 79.4057 12.5017 79.2266 12.5216C79.2465 12.9893 79.2664 13.487 79.2664 13.9946C79.2664 14.5619 79.2763 15.1193 79.3062 15.6667C79.4555 15.6965 79.6147 15.7165 79.764 15.7165C80.2716 15.7165 80.6498 15.5572 80.8887 15.2487C81.1276 14.9302 81.257 14.552 81.257 14.1041C81.257 13.6562 81.1276 13.268 80.8588 12.9595C80.5901 12.641 80.182 12.4917 79.6446 12.4917Z" fill="white"/>
<path d="M91.1999 12.4421C91.0307 12.4421 90.8515 12.462 90.6724 12.4919C90.7022 12.9398 90.7122 13.4374 90.7122 14.0048C90.7719 14.0048 90.8416 14.0147 90.9212 14.0147C91.7771 14.0147 92.2051 13.746 92.2051 13.1986C92.2051 12.7009 91.8767 12.4421 91.1999 12.4421Z" fill="white"/>
<path d="M86.711 12.4319C86.711 12.5215 86.502 13.1784 86.084 14.4026H87.3679C86.9698 13.1883 86.7608 12.5314 86.7608 12.4319H86.711Z" fill="white"/>
<path d="M53.3585 12.4319C53.3585 12.5215 53.1495 13.1784 52.7314 14.4026H54.0154C53.6173 13.1883 53.4083 12.5314 53.4083 12.4319H53.3585Z" fill="white"/>
<path d="M67.8104 12.4519C67.5914 12.4519 67.3923 12.4718 67.2231 12.5017C67.253 12.8699 67.2629 13.3377 67.2629 13.9249C67.3923 13.9249 67.5018 13.9349 67.5914 13.9349C68.3379 13.9349 68.7161 13.6761 68.7161 13.1586C68.7061 12.6808 68.4075 12.4519 67.8104 12.4519Z" fill="white"/>
<path d="M62.7442 12.4917C62.6447 12.4917 62.5053 12.5017 62.3262 12.5216C62.3461 12.9893 62.366 13.487 62.366 13.9946C62.366 14.5619 62.3759 15.1193 62.4058 15.6667C62.5551 15.6965 62.7143 15.7165 62.8636 15.7165C63.3712 15.7165 63.7494 15.5572 63.9883 15.2487C64.2272 14.9302 64.3566 14.552 64.3566 14.1041C64.3566 13.6562 64.2272 13.268 63.9585 12.9595C63.6897 12.641 63.2916 12.4917 62.7442 12.4917Z" fill="white"/>
<path d="M101.989 12.4614C101.64 12.4614 101.352 12.6107 101.113 12.9193C100.874 13.2278 100.754 13.616 100.754 14.0838C100.754 14.5715 100.884 14.9696 101.133 15.2781C101.381 15.5867 101.7 15.7359 102.058 15.7359C102.407 15.7359 102.695 15.5767 102.934 15.2682C103.173 14.9596 103.292 14.5715 103.292 14.1037C103.292 13.616 103.163 13.2079 102.914 12.9093C102.675 12.6107 102.357 12.4614 101.989 12.4614Z" fill="white"/>
<path d="M95.4396 12.4421C95.2704 12.4421 95.0913 12.462 94.9121 12.4919C94.942 12.9398 94.9519 13.4374 94.9519 14.0048C95.0116 14.0048 95.0813 14.0147 95.1609 14.0147C96.0169 14.0147 96.4449 13.746 96.4449 13.1986C96.4449 12.7009 96.1065 12.4421 95.4396 12.4421Z" fill="white"/>
<path d="M86.2333 29.0034C85.248 29.0034 84.392 29.3717 83.6654 30.1082C82.9389 30.8447 82.5806 31.8201 82.5806 33.0443C82.5806 34.2586 82.9389 35.234 83.6654 35.9804C84.392 36.717 85.248 37.0852 86.2333 37.0852C87.2186 37.0852 88.0746 36.717 88.8012 35.9804C89.5277 35.2439 89.886 34.2685 89.886 33.0443C89.886 31.8301 89.5277 30.8547 88.8012 30.1082C88.0746 29.3717 87.2186 29.0034 86.2333 29.0034Z" fill="white"/>
<path d="M74.0307 29.0034C73.0453 29.0034 72.1894 29.3717 71.4628 30.1082C70.7362 30.8447 70.3779 31.8201 70.3779 33.0443C70.3779 34.2586 70.7362 35.234 71.4628 35.9804C72.1894 36.717 73.0354 37.0852 74.0307 37.0852C75.016 37.0852 75.872 36.717 76.5985 35.9804C77.3251 35.2439 77.6834 34.2685 77.6834 33.0443C77.6834 31.8301 77.3251 30.8547 76.5985 30.1082C75.872 29.3717 75.016 29.0034 74.0307 29.0034Z" fill="white"/>
<path d="M131.957 24.3059H128.444V30.0089H131.957C132.843 30.0089 133.55 29.7104 134.077 29.1231C134.615 28.526 134.873 27.879 134.873 27.1624C134.873 26.4458 134.605 25.7889 134.077 25.2017C133.55 24.6045 132.833 24.3059 131.957 24.3059Z" fill="white"/>
<path d="M144.687 33.751C144.169 34.189 143.911 34.7065 143.911 35.3037C143.911 35.8511 144.15 36.289 144.617 36.6075C145.085 36.926 145.633 37.0853 146.24 37.0853C147.106 37.0853 147.892 36.7568 148.598 36.1198C149.305 35.4729 149.663 34.7065 149.663 33.8306C149.066 33.343 148.18 33.1041 146.996 33.1041C145.971 33.0941 145.205 33.3131 144.687 33.751Z" fill="white"/>
<path d="M114.659 29.0034C113.882 29.0034 113.206 29.2423 112.638 29.73C112.071 30.2177 111.673 30.8746 111.464 31.6907H117.943C117.893 31.0537 117.605 30.4466 117.067 29.8693C116.53 29.2921 115.724 29.0034 114.659 29.0034Z" fill="white"/>
<path d="M98.3462 29.0034C97.3708 29.0034 96.5347 29.3717 95.838 30.1082C95.1413 30.8447 94.793 31.8201 94.793 33.0443C94.793 34.2586 95.1413 35.234 95.838 35.9804C96.5347 36.717 97.3708 37.0852 98.3462 37.0852C99.3315 37.0852 100.178 36.717 100.864 35.9904C101.561 35.2638 101.899 34.2785 101.899 33.0443C101.899 31.8101 101.551 30.8348 100.864 30.0982C100.178 29.3717 99.3415 29.0034 98.3462 29.0034Z" fill="white"/>
<path d="M160.801 0.75708H7.54521C3.44459 0.75708 0.110352 4.08137 0.110352 8.19193V48.3222C0.110352 52.4228 3.43464 55.7571 7.54521 55.7571H160.801C164.901 55.7571 168.236 52.4328 168.236 48.3222V8.19193C168.226 4.09132 164.901 0.75708 160.801 0.75708ZM93.9965 11.8049H94.6136C94.7032 11.8049 94.8724 11.8049 95.1113 11.7949C95.3601 11.7849 95.5691 11.7849 95.7582 11.7849C96.2061 11.7849 96.5843 11.8845 96.8928 12.0935C97.2014 12.2925 97.3507 12.6011 97.3507 13.0191C97.3507 13.5864 97.1417 13.9945 96.7236 14.2632C96.3056 14.532 95.798 14.6614 95.1809 14.6614C95.0714 14.6614 94.9918 14.6614 94.9421 14.6514C94.9421 15.0893 94.952 15.6766 94.9819 16.4031H93.9866C94.0164 15.7263 94.0363 14.9201 94.0363 13.9945C94.0463 13.1485 94.0264 12.412 93.9965 11.8049ZM85.3474 14.1438C85.8948 12.7305 86.1735 11.9541 86.1735 11.8049H87.5072C87.5072 11.9342 87.756 12.7106 88.2537 14.104C88.7513 15.5074 89.0001 16.2737 89.0001 16.3932H87.8655C87.8655 16.2339 87.756 15.796 87.547 15.0694H85.9147C85.6958 15.786 85.5863 16.224 85.5863 16.3932H84.5213C84.5213 16.3036 84.8 15.5571 85.3474 14.1438ZM78.3306 11.8049H78.9477C79.0472 11.8049 79.1965 11.8049 79.3956 11.7949C79.5946 11.7849 79.724 11.7849 79.7837 11.7849C80.6297 11.7849 81.2468 11.994 81.635 12.4219C82.0132 12.8499 82.2122 13.3575 82.2122 13.9447C82.2122 14.6116 81.9933 15.1988 81.5653 15.6965C81.1373 16.1941 80.5401 16.4429 79.7638 16.4429C79.4155 16.4429 78.9377 16.433 78.3206 16.4031C78.3505 15.6965 78.3704 14.8903 78.3704 13.9945C78.3704 13.1385 78.3604 12.402 78.3306 11.8049ZM76.0912 11.8049H77.0865C77.0566 12.402 77.0367 13.1286 77.0367 13.9945C77.0367 14.8803 77.0566 15.6865 77.0865 16.4031H76.0912C76.121 15.6766 76.1409 14.8704 76.1409 13.9945C76.1409 13.1385 76.121 12.402 76.0912 11.8049ZM71.264 12.412C71.7019 11.9342 72.2493 11.6954 72.9062 11.6954C73.5233 11.6954 74.0508 11.9143 74.4688 12.3523C74.8869 12.7902 75.0959 13.3476 75.0959 14.0144C75.0959 14.741 74.8769 15.3382 74.429 15.8159C73.9911 16.2936 73.4437 16.5325 72.7868 16.5325C72.1697 16.5325 71.6422 16.3135 71.2242 15.8756C70.8062 15.4377 70.5972 14.8803 70.5972 14.2135C70.5972 13.4869 70.8261 12.8798 71.264 12.412ZM61.4305 11.8049H62.0476C62.1471 11.8049 62.2964 11.8049 62.4954 11.7949C62.6945 11.7849 62.8239 11.7849 62.8836 11.7849C63.7296 11.7849 64.3467 11.994 64.7349 12.4219C65.1131 12.8499 65.3121 13.3575 65.3121 13.9447C65.3121 14.6116 65.0932 15.1988 64.6652 15.6965C64.2372 16.1941 63.64 16.4429 62.8637 16.4429C62.5154 16.4429 62.0376 16.433 61.4205 16.4031C61.4504 15.6965 61.4703 14.8903 61.4703 13.9945C61.4803 13.1385 61.4603 12.402 61.4305 11.8049ZM56.4142 11.8049H57.4592C57.4592 11.9342 57.7479 12.4319 58.3351 13.2978C58.9522 14.2234 59.3105 14.8505 59.4001 15.1789H59.4498C59.3901 14.6514 59.3603 14.1836 59.3603 13.7656C59.3603 13.1286 59.3404 12.4717 59.3105 11.8049H60.1963C60.1664 12.3921 60.1466 13.1186 60.1466 13.9945C60.1466 14.8803 60.1664 15.6766 60.1963 16.4031H59.3205C59.3205 16.3036 58.992 15.796 58.3451 14.8704C57.6683 13.895 57.2801 13.2381 57.1905 12.8798H57.1308C57.1905 13.3973 57.2204 13.8651 57.2204 14.2732C57.2204 14.8505 57.2403 15.5671 57.2701 16.4031H56.4042C56.444 15.6766 56.454 14.8704 56.454 13.9945C56.464 13.1385 56.4441 12.402 56.4142 11.8049ZM51.9951 14.1438C52.5425 12.7305 52.8212 11.9541 52.8212 11.8049H54.1549C54.1549 11.9342 54.4037 12.7106 54.9013 14.104C55.399 15.5074 55.6478 16.2737 55.6478 16.3932H54.5132C54.5132 16.2339 54.4037 15.796 54.1947 15.0694H52.5624C52.3434 15.786 52.2339 16.224 52.2339 16.3932H51.169C51.169 16.3036 51.4477 15.5571 51.9951 14.1438ZM14.7611 12.5115C21.9073 16.5126 29.0535 20.5236 36.1998 24.5148C36.5282 24.6939 36.5182 24.8034 36.2694 25.0522C34.667 26.6248 33.0845 28.2073 31.502 29.7998C31.3328 29.969 31.2233 30.0685 30.9944 29.8396C25.3112 24.037 19.6181 18.2544 13.9251 12.4617C13.8753 12.412 13.8355 12.3523 13.7459 12.2328C14.1739 12.2229 14.4725 12.3523 14.7611 12.5115ZM12.5615 47.8246C11.9643 47.3667 11.7354 46.7497 11.7354 46.0131C11.7354 42.9178 11.7354 39.8324 11.7254 36.737C11.7254 34.5473 11.7254 32.3676 11.7254 30.178H11.7354C11.7354 24.9627 11.7354 19.7374 11.7354 14.522C11.7354 13.885 11.8548 13.2978 12.3127 12.8101C12.4918 12.621 12.6113 12.5712 12.8302 12.7902C16.3436 16.3733 19.857 19.9464 23.3804 23.5195C25.6596 25.8385 27.9388 28.1476 30.228 30.4567C30.447 30.6756 30.4669 30.7951 30.2379 31.034C24.6444 36.5977 19.0508 42.1713 13.4772 47.7549C13.1288 48.1132 12.8899 48.0734 12.5615 47.8246ZM35.5827 36.4882C28.9241 40.1309 22.2656 43.7936 15.617 47.4464C15.5076 47.5061 15.408 47.6056 15.3483 47.6454C20.5338 42.4002 25.7292 37.165 30.9048 31.9098C31.2233 31.5814 31.3726 31.6311 31.6612 31.9297C32.975 33.3032 34.3087 34.6469 35.6523 35.9905C35.8813 36.2194 35.9012 36.309 35.5827 36.4882ZM44.2517 31.6411C43.9431 31.87 43.5948 32.0591 43.2564 32.2482C41.2459 33.3629 39.2254 34.4677 37.2149 35.5825C36.9462 35.7317 36.787 35.7317 36.558 35.4929C35.1248 34.0198 33.6817 32.5468 32.2385 31.0937C32.0295 30.8847 32.0195 30.7652 32.2385 30.5562C33.9305 28.8941 35.6125 27.212 37.2846 25.53C37.4837 25.3309 37.623 25.311 37.8718 25.4503C39.8624 26.575 41.863 27.6898 43.8536 28.8045C44.4706 29.1528 44.9484 29.6007 44.9783 30.3273C44.9484 30.9245 44.6797 31.3325 44.2517 31.6411ZM65.3818 36.5777C63.849 38.1901 61.8485 38.9963 59.3802 38.9963C57.0213 38.9963 55.0208 38.1802 53.3686 36.5479C51.7164 34.9156 50.8903 32.8852 50.8903 30.4666C50.8903 28.0481 51.7164 26.0177 53.3686 24.3854C55.0208 22.7531 57.0213 21.937 59.3802 21.937C60.5546 21.937 61.6693 22.1659 62.7343 22.6237C63.7993 23.0815 64.6552 23.6887 65.2922 24.4451L63.859 25.8783C62.7741 24.5844 61.2911 23.9375 59.3901 23.9375C57.6683 23.9375 56.1853 24.5446 54.9312 25.7489C53.6771 26.9532 53.0501 28.5258 53.0501 30.4567C53.0501 32.3876 53.6771 33.9601 54.9312 35.1644C56.1853 36.3687 57.6683 36.9759 59.3901 36.9759C61.2115 36.9759 62.7343 36.3687 63.9585 35.1545C64.7448 34.3682 65.2026 33.2634 65.332 31.8501H59.4001V29.8993H67.3226C67.4022 30.3273 67.4321 30.7354 67.4321 31.1335C67.4122 33.4127 66.7354 35.2241 65.3818 36.5777ZM67.2629 14.5618C67.2629 15.169 67.2729 15.7761 67.2928 16.3932H66.3074C66.3373 15.6865 66.3572 14.8803 66.3572 13.9846C66.3572 13.1286 66.3373 12.3921 66.3074 11.7949H66.9145C66.9842 11.7949 67.1335 11.7949 67.3624 11.7849C67.5914 11.775 67.7904 11.775 67.9895 11.775C69.0743 11.775 69.6118 12.1433 69.6118 12.8798C69.6118 13.467 69.3033 13.8751 68.6862 14.104V14.1537C68.9251 14.2234 69.1341 14.4026 69.3132 14.7111C69.4924 15.0197 69.7312 15.577 70.0398 16.3832H68.9947C68.726 15.5472 68.517 15.0396 68.3677 14.8405C68.2184 14.6414 67.9895 14.5519 67.661 14.5519C67.5217 14.5618 67.3923 14.5618 67.2629 14.5618ZM78.1514 37.3043C77.0666 38.4389 75.6931 39.0063 74.021 39.0063C72.3489 39.0063 70.9754 38.4389 69.8905 37.3043C68.8056 36.1697 68.2682 34.7564 68.2682 33.0444C68.2682 31.3425 68.8056 29.9192 69.8905 28.7846C70.9654 27.65 72.3489 27.0826 74.021 27.0826C75.6931 27.0826 77.0666 27.65 78.1514 28.7846C79.2264 29.9192 79.7738 31.3325 79.7738 33.0444C79.7738 34.7464 79.2363 36.1697 78.1514 37.3043ZM90.3637 37.3043C89.2788 38.4389 87.9053 39.0063 86.2332 39.0063C84.5611 39.0063 83.1876 38.4389 82.1028 37.3043C81.0179 36.1697 80.4804 34.7564 80.4804 33.0444C80.4804 31.3425 81.0179 29.9192 82.1028 28.7846C83.1777 27.65 84.5611 27.0826 86.2332 27.0826C87.9053 27.0826 89.2788 27.65 90.3637 28.7846C91.4386 29.9192 91.986 31.3325 91.986 33.0444C91.986 34.7464 91.4386 36.1697 90.3637 37.3043ZM90.9509 14.6514C90.8414 14.6514 90.7618 14.6514 90.7121 14.6414C90.7121 15.0794 90.722 15.6666 90.7519 16.3932H89.7566C89.7864 15.7164 89.8063 14.9102 89.8063 13.9846C89.8063 13.1385 89.7864 12.402 89.7566 11.7949H90.3737C90.4632 11.7949 90.6324 11.7949 90.8713 11.7849C91.1201 11.775 91.3291 11.775 91.5182 11.775C91.9661 11.775 92.3444 11.8745 92.6529 12.0835C92.9614 12.2826 93.1107 12.5911 93.1107 13.0092C93.1107 13.5765 92.9017 13.9845 92.4837 14.2533C92.0756 14.522 91.558 14.6514 90.9509 14.6514ZM103.92 38.0607C103.92 39.9817 103.362 41.4348 102.257 42.4301C101.143 43.4254 99.7891 43.923 98.1967 43.923C96.8729 43.923 95.798 43.5946 94.952 42.9277C94.116 42.2609 93.5188 41.5045 93.1505 40.6585L95.0714 39.8622C95.2805 40.4694 95.6786 40.9769 96.2459 41.395C96.8132 41.803 97.4701 42.0121 98.1967 42.0121C99.3512 42.0121 100.257 41.6637 100.924 40.977C101.591 40.2802 101.919 39.3447 101.919 38.1603V37.0853H101.83C101.461 37.6328 100.944 38.0906 100.277 38.4589C99.61 38.8271 98.8536 39.0063 98.0175 39.0063C96.5743 39.0063 95.3203 38.4389 94.2752 37.2944C93.2302 36.1498 92.7026 34.7365 92.7026 33.0544C92.7026 31.3624 93.2302 29.9491 94.2752 28.8144C95.3203 27.6699 96.5743 27.1025 98.0175 27.1025C98.8536 27.1025 99.61 27.2817 100.277 27.65C100.944 28.0182 101.461 28.476 101.83 29.0235H101.919V27.4708H103.93V38.0607H103.92ZM103.611 15.8159C103.173 16.2936 102.626 16.5325 101.969 16.5325C101.352 16.5325 100.824 16.3135 100.406 15.8756C99.9882 15.4377 99.7792 14.8803 99.7792 14.2135C99.7792 13.4869 99.9982 12.8897 100.446 12.412C100.884 11.9342 101.431 11.6954 102.088 11.6954C102.705 11.6954 103.233 11.9143 103.651 12.3523C104.069 12.7902 104.278 13.3476 104.278 14.0144C104.278 14.741 104.059 15.3382 103.611 15.8159ZM108 38.638H105.9V22.2953H108V38.638ZM109.065 16.4031H108.189C108.189 16.3036 107.861 15.796 107.214 14.8704C106.537 13.895 106.149 13.2381 106.06 12.8798H106C106.06 13.3973 106.089 13.8651 106.089 14.2732C106.089 14.8505 106.109 15.5671 106.139 16.4031H105.273C105.313 15.6766 105.323 14.8704 105.323 13.9945C105.323 13.1385 105.303 12.402 105.273 11.8049H106.318C106.318 11.9342 106.607 12.4319 107.194 13.2978C107.811 14.2234 108.17 14.8505 108.259 15.1789H108.309C108.249 14.6514 108.219 14.1836 108.219 13.7656C108.219 13.1286 108.199 12.4717 108.17 11.8049H109.055C109.025 12.3921 109.006 13.1186 109.006 13.9945C109.016 14.8803 109.025 15.6766 109.065 16.4031ZM120.163 33.4326H111.335C111.394 34.5573 111.772 35.4531 112.459 36.1C113.156 36.7569 113.962 37.0853 114.888 37.0853C116.391 37.0853 117.416 36.4484 117.943 35.1644L119.814 35.9408C119.446 36.8067 118.849 37.5332 118.013 38.1205C117.177 38.7077 116.152 38.9963 114.938 38.9963C113.246 38.9963 111.872 38.429 110.817 37.3043C109.762 36.1796 109.235 34.7564 109.235 33.0345C109.235 31.4022 109.752 30.0088 110.777 28.8344C111.802 27.6599 113.116 27.0826 114.709 27.0826C116.371 27.0826 117.695 27.6201 118.69 28.705C119.685 29.7799 120.183 31.233 120.183 33.0444L120.163 33.4326ZM135.5 30.6358C134.485 31.5515 133.291 32.0193 131.907 32.0193H128.444V38.638H126.344V22.2953H131.907C133.291 22.2953 134.485 22.7531 135.5 23.6787C136.516 24.6043 137.013 25.7589 137.013 27.1623C137.023 28.5557 136.516 29.7202 135.5 30.6358ZM140.487 38.638H138.387V22.2953H140.487V38.638ZM151.664 38.638H149.653V37.0853H149.564C148.728 38.3593 147.504 39.0063 145.891 39.0063C144.707 39.0063 143.712 38.6679 142.915 37.9811C142.119 37.2944 141.721 36.3886 141.721 35.264C141.721 34.0497 142.189 33.0942 143.134 32.3975C144.08 31.7008 145.244 31.3624 146.628 31.3624C147.862 31.3624 148.867 31.5913 149.663 32.0492V31.7307C149.663 30.9046 149.385 30.2477 148.817 29.76C148.25 29.2623 147.563 29.0135 146.737 29.0135C146.13 29.0135 145.573 29.1628 145.085 29.4514C144.587 29.7401 144.249 30.1382 144.07 30.6358L142.149 29.8097C142.408 29.1429 142.915 28.5258 143.682 27.9485C144.438 27.3812 145.443 27.0926 146.697 27.0926C148.131 27.0926 149.315 27.5106 150.261 28.3467C151.206 29.1827 151.674 30.3671 151.674 31.88V38.638H151.664ZM156.232 43.5647H154.063L156.66 37.9313L152.052 27.4608H154.331L157.666 35.4929H157.715L160.95 27.4608H163.229L156.232 43.5647Z" fill="white"/>
</svg>
