<svg width="159" height="56" viewBox="0 0 159 56" fill="none" xmlns="http://www.w3.org/2000/svg">
<path d="M20.86 14.6338H23.8542C24.0532 14.6338 24.2123 14.4746 24.2123 14.2856C24.2123 14.0867 24.0532 13.9275 23.8542 13.9275H20.86C20.671 13.9275 20.5019 14.0867 20.5019 14.2856C20.5019 14.4746 20.6611 14.6338 20.86 14.6338ZM22.3521 40.9053C21.4967 40.9053 20.7904 41.6115 20.7904 42.467C20.7904 43.3225 21.4867 44.0288 22.3521 44.0288C23.2176 44.0288 23.9139 43.3325 23.9139 42.467C23.9139 41.6016 23.2176 40.9053 22.3521 40.9053ZM14.7124 39.5723H30.0118V16.9416H14.7124V39.5723ZM63.7439 32.1415C63.0177 32.1415 62.3612 32.3802 61.7743 32.8577C61.1874 33.3451 60.7994 33.9718 60.6204 34.7577C60.5308 35.1257 60.491 35.4242 60.491 35.653V37.8514C60.491 38.8163 60.7795 39.632 61.3764 40.2885C61.9633 40.9451 62.7292 41.2833 63.6743 41.2833C64.7784 41.2833 65.6439 40.8555 66.2606 40C66.8774 39.1445 67.1857 38.0205 67.1857 36.6179C67.1857 35.3346 66.8973 34.2702 66.3203 33.4347C65.6737 32.5792 64.8182 32.1415 63.7439 32.1415ZM117.391 31.9525C116.217 31.9525 115.312 32.4797 114.705 33.5242C114.168 34.3896 113.909 35.4441 113.909 36.6975C113.909 37.9111 114.168 38.9555 114.705 39.821C115.332 40.8655 116.227 41.3927 117.371 41.3927C118.485 41.3927 119.371 40.8655 120.007 39.7911C120.554 38.9158 120.833 37.8613 120.833 36.6477C120.833 35.4341 120.574 34.3896 120.047 33.5242C119.41 32.4797 118.535 31.9525 117.391 31.9525ZM78.2872 32.1415C77.561 32.1415 76.9045 32.3802 76.3176 32.8577C75.7307 33.3451 75.3427 33.9718 75.1537 34.7577C75.0642 35.1257 75.0244 35.4242 75.0244 35.653V37.8514C75.0244 38.8163 75.3129 39.632 75.9097 40.2885C76.4967 40.9451 77.2626 41.2833 78.2076 41.2833C79.3218 41.2833 80.1772 40.8555 80.8039 40C81.4207 39.1445 81.7291 38.0205 81.7291 36.6179C81.7291 35.3346 81.4406 34.2702 80.8537 33.4347C80.217 32.5792 79.3615 32.1415 78.2872 32.1415ZM47.9074 27.4064H47.8477C47.6587 28.1923 47.3802 29.3363 46.9723 30.8682L45.4504 35.6629H50.3744L48.8325 30.8682C48.6634 30.3708 48.355 29.2169 47.9074 27.4064ZM139.693 31.8132C138.738 31.8132 137.953 32.2211 137.356 33.0169C136.868 33.6535 136.57 34.4095 136.48 35.2948H142.608C142.628 34.4294 142.439 33.6734 142.041 33.0368C141.524 32.231 140.738 31.8132 139.693 31.8132ZM60.8691 18.7521C60.9088 18.6228 60.9088 18.5034 60.9088 18.3741V17.439C59.6952 17.429 58.5314 17.6777 58.5314 18.7123C58.5314 19.3887 58.9691 19.6971 59.5062 19.6971C60.2125 19.6871 60.6999 19.2395 60.8691 18.7521ZM44.8237 14.4746C44.6446 13.8977 44.4854 13.261 44.3462 12.7139H44.3163C44.1771 13.261 44.0279 13.9176 43.8687 14.4746L43.1425 16.8024H45.5598L44.8237 14.4746ZM151.591 0.737061H6.68475C3.00416 0.737061 0 3.74122 0 7.42181V49.0623C0 52.7428 3.00416 55.7371 6.68475 55.7371H151.591C155.281 55.7371 158.275 52.7428 158.275 49.0623V7.42181C158.285 3.74122 155.281 0.737061 151.591 0.737061ZM142.409 13.7982C144.617 13.7982 145.354 15.6186 145.354 17.1107C145.354 17.429 145.324 17.6877 145.294 17.8369H140.728C140.768 19.0704 141.723 19.5976 142.827 19.5976C143.623 19.5976 144.19 19.4683 144.717 19.2892L144.966 20.4631C144.379 20.7117 143.563 20.9007 142.588 20.9007C140.38 20.9007 139.077 19.5479 139.077 17.4589C139.077 15.5788 140.221 13.7982 142.409 13.7982ZM115.093 13.9574L115.173 14.982H115.213C115.521 14.4448 116.257 13.8081 117.391 13.8081C118.585 13.8081 119.808 14.5741 119.808 16.7327V20.7814H118.087V16.9317C118.087 15.9568 117.719 15.2107 116.784 15.2107C116.098 15.2107 115.62 15.6982 115.441 16.2154C115.382 16.3547 115.362 16.5636 115.362 16.7626V20.7814H113.641V15.9966C113.641 15.2107 113.611 14.5542 113.581 13.9673H115.093V13.9574ZM97.0085 13.7982C99.2169 13.7982 99.953 15.6186 99.953 17.1107C99.953 17.429 99.9231 17.6877 99.8933 17.8369H95.3274C95.3672 19.0704 96.3221 19.5976 97.4263 19.5976C98.2221 19.5976 98.7792 19.4683 99.3163 19.2892L99.565 20.4631C98.9781 20.7117 98.1624 20.9007 97.1876 20.9007C94.9792 20.9007 93.6761 19.5479 93.6761 17.4589C93.6761 15.5788 94.83 13.7982 97.0085 13.7982ZM89.9557 10.8338H91.6766V20.7714H89.9557V10.8338ZM76.3076 15.0118C75.6312 15.0118 74.9349 15.2207 74.4773 15.5191L74.1391 14.395C74.6464 14.0867 75.5218 13.7982 76.6061 13.7982C78.7945 13.7982 79.4212 15.1809 79.4212 16.683V19.1301C79.4212 19.7468 79.4511 20.3437 79.5307 20.7714H77.9788L77.8495 20.0154H77.8097C77.4019 20.5426 76.6857 20.9306 75.7904 20.9306C74.4176 20.9306 73.6517 19.9358 73.6517 18.9013C73.6517 17.1903 75.1736 16.3149 77.7003 16.3249V16.2154C77.6904 15.7579 77.5014 15.0118 76.3076 15.0118ZM66.1214 11.1124C66.7083 11.1124 67.0763 11.5202 67.0863 12.0474C67.0863 12.5547 66.7083 12.9725 66.1015 12.9725C65.5245 12.9725 65.1465 12.5547 65.1465 12.0474C65.1564 11.5202 65.5543 11.1124 66.1214 11.1124ZM66.9768 13.9574V20.7714H65.2559V13.9574H66.9768V13.9574ZM43.3017 11.3312H45.5001L48.5639 20.7615H46.7037L45.8483 18.0856H42.864L42.0483 20.7615H40.2677L43.3017 11.3312ZM31.8322 42.6162C31.8322 44.2775 30.4793 45.6304 28.818 45.6304H15.8862C14.225 45.6304 12.8721 44.2874 12.8721 42.6162V13.8877C12.8721 12.2265 14.225 10.8736 15.8862 10.8736H28.818C30.4793 10.8736 31.8322 12.2265 31.8322 13.8877V42.6162ZM52.6126 43.3026L50.9016 37.9111H44.9331L43.3017 43.3026H40.2577L46.1566 24.9494H49.8074L55.7461 43.3026H52.6126ZM53.2791 20.7714H51.588L49.0514 13.9574H50.9116L52.0157 17.4191C52.2147 18.016 52.354 18.5631 52.4733 19.1301H52.5131C52.6424 18.573 52.7916 18.0358 52.9707 17.4191L54.0649 13.9574H55.8754L53.2791 20.7714ZM56.8303 18.8913C56.8303 17.1804 58.3523 16.305 60.879 16.3149V16.2055C60.879 15.7579 60.6999 15.0118 59.4963 15.0118C58.8199 15.0118 58.1235 15.2207 57.6659 15.5191L57.3277 14.395C57.8351 14.0867 58.7104 13.7982 59.7947 13.7982C61.9732 13.7982 62.6099 15.1809 62.6099 16.683V19.1301C62.6099 19.7468 62.6397 20.3437 62.7193 20.7714H61.1675L61.0382 20.0154H60.9984C60.5905 20.5426 59.8743 20.9306 58.979 20.9306C57.5963 20.9206 56.8303 19.9259 56.8303 18.8913ZM68.3397 41.8702C67.2454 43.0241 65.8826 43.611 64.2612 43.611C62.5004 43.611 61.2471 42.9843 60.4811 41.7309V48.6842H57.5466V34.4195C57.5466 33.0069 57.5068 31.5546 57.4372 30.0724H60.0235L60.1827 32.1713H60.2324C61.2172 30.5996 62.6994 29.8038 64.6989 29.8038C66.2606 29.8038 67.5638 30.4205 68.6082 31.654C69.6527 32.8875 70.17 34.5189 70.17 36.5283C70.18 38.7864 69.5632 40.5571 68.3397 41.8702ZM71.4035 20.7714H69.6826V10.8338H71.4035V20.7714ZM82.883 41.8702C81.7887 43.0241 80.4259 43.611 78.8045 43.611C77.0537 43.611 75.7904 42.9843 75.0344 41.7309V48.6842H72.0899V34.4195C72.0899 33.0069 72.0501 31.5546 71.9805 30.0724H74.5569L74.726 32.1713H74.7757C75.7605 30.5996 77.2427 29.8038 79.2422 29.8038C80.8039 29.8038 82.1071 30.4205 83.1516 31.654C84.1961 32.8875 84.7233 34.5189 84.7233 36.5283C84.7133 38.7864 84.1065 40.5571 82.883 41.8702ZM84.9023 20.9206C84.017 20.9206 83.2411 20.5824 82.7437 19.7468H82.7139L82.6343 20.7714H81.162C81.1919 20.3138 81.2217 19.5578 81.2217 18.8515V10.8338H82.9427V14.8924H82.9725C83.3903 14.2359 84.1364 13.7982 85.161 13.7982C86.8222 13.7982 88.0159 15.1809 88.006 17.25C87.996 19.707 86.4343 20.9206 84.9023 20.9206ZM99.7043 41.9697C98.5006 43.044 96.8394 43.5712 94.7007 43.5712C92.7211 43.5712 91.1394 43.1932 89.9457 42.4272L90.6321 39.9801C91.9154 40.7362 93.3379 41.1241 94.8698 41.1241C95.9839 41.1241 96.8394 40.8754 97.4561 40.378C98.0729 39.8807 98.3813 39.2142 98.3813 38.3686C98.3813 37.6325 98.1226 37.0058 97.6252 36.4985C97.108 35.9912 96.2724 35.5236 95.0986 35.0859C91.8855 33.8922 90.284 32.1415 90.284 29.8336C90.284 28.3316 90.841 27.0881 91.985 26.1232C93.119 25.1682 94.6211 24.6808 96.4912 24.6808C98.1624 24.6808 99.5451 24.9693 100.659 25.5462L99.9132 27.9436C98.8786 27.3865 97.7048 27.0981 96.3918 27.0981C95.3572 27.0981 94.5415 27.3567 93.9546 27.8541C93.4672 28.3117 93.2185 28.8687 93.2185 29.5153C93.2185 30.2315 93.497 30.8383 94.064 31.3158C94.5515 31.7535 95.4467 32.2211 96.73 32.7284C98.3116 33.3551 99.4755 34.1111 100.222 34.9666C100.968 35.8221 101.336 36.8765 101.336 38.1498C101.326 39.7215 100.779 40.9948 99.7043 41.9697ZM110.07 32.2708H106.827V38.7069C106.827 40.3383 107.404 41.154 108.548 41.154C109.075 41.154 109.503 41.1142 109.851 41.0246L109.93 43.2529C109.353 43.4717 108.587 43.5812 107.642 43.5812C106.489 43.5812 105.573 43.233 104.917 42.5168C104.26 41.8105 103.932 40.6168 103.932 38.9555V32.2708H102.002V30.0724H103.932V27.6551L106.817 26.7797V30.0724H110.06V32.2708H110.07ZM108.408 20.9206C106.489 20.9206 104.996 19.6076 104.996 17.4092C104.996 15.171 106.469 13.7982 108.528 13.7982C110.557 13.7982 111.92 15.2306 111.92 17.2997C111.91 19.8065 110.139 20.9206 108.408 20.9206ZM122.136 41.5916C120.912 42.9346 119.301 43.601 117.292 43.601C115.342 43.601 113.79 42.9545 112.646 41.6712C111.492 40.388 110.925 38.7566 110.925 36.7969C110.925 34.7477 111.522 33.0666 112.706 31.7635C113.899 30.4504 115.491 29.8038 117.51 29.8038C119.46 29.8038 121.022 30.4404 122.196 31.7336C123.32 32.9771 123.877 34.5985 123.877 36.5781C123.867 38.6173 123.29 40.2786 122.136 41.5916ZM125.17 13.9574H126.135V12.6741L127.826 12.1966V13.9474H129.467V15.2306H127.826V18.2447C127.826 19.0803 128.045 19.5081 128.711 19.5081C129.02 19.5081 129.189 19.4981 129.388 19.4385L129.418 20.7416C129.169 20.8411 128.701 20.9206 128.174 20.9206C127.528 20.9206 127.01 20.7117 126.692 20.3636C126.314 19.9756 126.145 19.339 126.145 18.4437V15.2406H125.18V13.9574H125.17ZM132.72 32.6587C132.432 32.609 132.123 32.5792 131.795 32.5792C130.761 32.5792 129.965 32.9671 129.398 33.743C128.91 34.4394 128.662 35.2948 128.662 36.3592V43.3026H125.717V34.2305C125.717 32.7184 125.687 31.3258 125.638 30.0724H128.194L128.303 32.609H128.383C128.691 31.7436 129.179 31.0373 129.855 30.52C130.512 30.0425 131.218 29.8137 131.984 29.8137C132.253 29.8137 132.501 29.8237 132.71 29.8635V32.6587H132.72ZM133.168 16.683V20.7714H131.447V10.8338H133.168V14.8825H133.198C133.407 14.5642 133.705 14.2956 134.053 14.1165C134.401 13.9176 134.809 13.8081 135.247 13.8081C136.411 13.8081 137.624 14.5741 137.624 16.7626V20.7814H135.903V16.9516C135.903 15.9668 135.535 15.2107 134.59 15.2107C133.914 15.2107 133.446 15.6584 133.247 16.1757C133.178 16.3149 133.168 16.5039 133.168 16.683ZM145.304 37.4037H136.48C136.52 38.7069 136.938 39.7016 137.764 40.388C138.51 41.0047 139.465 41.3131 140.648 41.3131C141.961 41.3131 143.145 41.1042 144.22 40.6864L144.687 42.7356C143.444 43.2827 141.952 43.5513 140.251 43.5513C138.201 43.5513 136.59 42.9545 135.426 41.7409C134.252 40.5372 133.665 38.9158 133.665 36.8865C133.665 34.887 134.212 33.2258 135.297 31.9027C136.451 30.4902 137.992 29.7839 139.932 29.7839C141.842 29.7839 143.285 30.4902 144.259 31.9027C145.035 33.0268 145.433 34.4195 145.433 36.0708C145.403 36.588 145.373 37.0357 145.304 37.4037ZM84.5243 15.1411C83.828 15.1411 83.1814 15.6484 83.0024 16.4045C82.9725 16.5338 82.9427 16.683 82.9427 16.8521V17.9563C82.9427 18.0955 82.9526 18.2348 82.9825 18.3641C83.1615 19.0604 83.7683 19.5678 84.5044 19.5678C85.5788 19.5678 86.2452 18.7123 86.2452 17.3296C86.2452 16.1259 85.6683 15.1411 84.5243 15.1411ZM96.909 14.972C95.8446 14.972 95.397 15.9369 95.3274 16.6332H98.3216C98.3415 16.0065 98.0629 14.972 96.909 14.972ZM108.478 15.0416C107.264 15.0416 106.767 16.2353 106.767 17.3694C106.767 18.6824 107.424 19.6772 108.458 19.6772C109.433 19.6772 110.119 18.7222 110.119 17.3395C110.129 16.2751 109.652 15.0416 108.478 15.0416ZM75.3527 18.7123C75.3527 19.3887 75.7904 19.6971 76.3275 19.6971C77.0239 19.6971 77.5212 19.2495 77.6904 18.762C77.7301 18.6327 77.7301 18.5133 77.7301 18.384V17.4489C76.5165 17.429 75.3527 17.6777 75.3527 18.7123ZM142.31 14.972C141.245 14.972 140.798 15.9369 140.728 16.6332H143.722C143.732 16.0065 143.454 14.972 142.31 14.972Z" fill="white"/>
</svg>
