<svg width="174" height="60" viewBox="0 0 174 60" fill="none" xmlns="http://www.w3.org/2000/svg">
<path d="M23.6944 15.1601H26.9608C27.1778 15.1601 27.3514 14.9864 27.3514 14.7802C27.3514 14.5632 27.1778 14.3896 26.9608 14.3896H23.6944C23.4882 14.3896 23.3037 14.5632 23.3037 14.7802C23.3037 14.9864 23.4773 15.1601 23.6944 15.1601ZM25.3221 43.8199C24.3889 43.8199 23.6184 44.5903 23.6184 45.5236C23.6184 46.4569 24.378 47.2273 25.3221 47.2273C26.2663 47.2273 27.0259 46.4677 27.0259 45.5236C27.0259 44.5795 26.2663 43.8199 25.3221 43.8199ZM16.9879 42.3657H33.6781V17.6777H16.9879V42.3657ZM70.4768 34.2594C69.6846 34.2594 68.9684 34.5198 68.3281 35.0407C67.6879 35.5724 67.2646 36.2561 67.0693 37.1134C66.9716 37.5149 66.9282 37.8405 66.9282 38.0901V40.4883C66.9282 41.541 67.2429 42.4308 67.894 43.147C68.5343 43.8633 69.3699 44.2322 70.4008 44.2322C71.6054 44.2322 72.5495 43.7656 73.2223 42.8323C73.8951 41.8991 74.2315 40.6728 74.2315 39.1427C74.2315 37.7428 73.9168 36.5817 73.2874 35.6701C72.582 34.7368 71.6488 34.2594 70.4768 34.2594ZM129.001 34.0532C127.72 34.0532 126.733 34.6283 126.071 35.7678C125.485 36.7119 125.203 37.8622 125.203 39.2295C125.203 40.5534 125.485 41.6929 126.071 42.637C126.755 43.7765 127.731 44.3516 128.979 44.3516C130.195 44.3516 131.16 43.7764 131.855 42.6044C132.452 41.6495 132.756 40.4992 132.756 39.1753C132.756 37.8513 132.474 36.7119 131.898 35.7678C131.204 34.6283 130.249 34.0532 129.001 34.0532ZM86.3422 34.2594C85.55 34.2594 84.8338 34.5198 84.1936 35.0407C83.5533 35.5724 83.1301 36.2561 82.9239 37.1134C82.8262 37.5149 82.7828 37.8405 82.7828 38.0901V40.4883C82.7828 41.541 83.0975 42.4308 83.7486 43.147C84.3889 43.8633 85.2245 44.2322 86.2554 44.2322C87.4708 44.2322 88.4041 43.7656 89.0877 42.8323C89.7606 41.8991 90.097 40.6728 90.097 39.1427C90.097 37.7428 89.7823 36.5817 89.142 35.6701C88.4475 34.7368 87.5142 34.2594 86.3422 34.2594ZM53.2006 29.0939H53.1355C52.9293 29.9512 52.6255 31.1991 52.1805 32.8703L50.5202 38.1009H55.8919L54.2098 32.8703C54.0253 32.3277 53.6889 31.0689 53.2006 29.0939ZM153.331 33.9012C152.289 33.9012 151.432 34.3462 150.781 35.2143C150.249 35.9088 149.923 36.7336 149.826 37.6994H156.51C156.532 36.7553 156.326 35.9305 155.892 35.236C155.328 34.357 154.47 33.9012 153.331 33.9012ZM67.3406 19.6527C67.384 19.5117 67.384 19.3814 67.384 19.2404V18.2203C66.0601 18.2094 64.7904 18.4807 64.7904 19.6093C64.7904 20.3473 65.2679 20.6837 65.8539 20.6837C66.6244 20.6728 67.1561 20.1845 67.3406 19.6527ZM49.8365 14.9864C49.6412 14.357 49.4676 13.6625 49.3156 13.0657H49.2831C49.1312 13.6625 48.9684 14.3787 48.7947 14.9864L48.0026 17.5258H50.6396L49.8365 14.9864ZM166.31 0H8.23045C4.21525 0 0.937988 3.27727 0.937988 7.29246V52.7184C0.937988 56.7336 4.21525 60 8.23045 60H166.31C170.336 60 173.602 56.7336 173.602 52.7184V7.29246C173.613 3.27727 170.336 0 166.31 0ZM156.293 14.2485C158.703 14.2485 159.506 16.2344 159.506 17.8622C159.506 18.2094 159.473 18.4916 159.44 18.6544H154.459C154.503 20 155.545 20.5751 156.749 20.5751C157.617 20.5751 158.236 20.4341 158.811 20.2387L159.082 21.5193C158.442 21.7906 157.552 21.9967 156.489 21.9967C154.08 21.9967 152.658 20.5209 152.658 18.242C152.658 16.191 153.906 14.2485 156.293 14.2485ZM126.494 14.4221L126.581 15.5399H126.624C126.961 14.9539 127.764 14.2594 129.001 14.2594C130.303 14.2594 131.638 15.095 131.638 17.4498V21.8665H129.761V17.6668C129.761 16.6034 129.359 15.7895 128.339 15.7895C127.59 15.7895 127.069 16.3212 126.874 16.8855C126.809 17.0374 126.787 17.2653 126.787 17.4824V21.8665H124.91V16.6468C124.91 15.7895 124.877 15.0733 124.845 14.433H126.494V14.4221ZM106.765 14.2485C109.175 14.2485 109.978 16.2344 109.978 17.8622C109.978 18.2094 109.945 18.4916 109.912 18.6544H104.931C104.975 20 106.017 20.5751 107.221 20.5751C108.089 20.5751 108.697 20.4341 109.283 20.2387L109.554 21.5193C108.914 21.7906 108.024 21.9967 106.961 21.9967C104.552 21.9967 103.13 20.5209 103.13 18.242C103.13 16.191 104.389 14.2485 106.765 14.2485ZM99.0715 11.0146H100.949V21.8557H99.0715V11.0146ZM84.1827 15.5724C83.4448 15.5724 82.6851 15.8003 82.186 16.1259L81.817 14.8996C82.3704 14.5632 83.3254 14.2485 84.5083 14.2485C86.8957 14.2485 87.5793 15.7569 87.5793 17.3956V20.0651C87.5793 20.7379 87.6119 21.389 87.6987 21.8557H86.0058L85.8647 21.0309H85.8213C85.3764 21.6061 84.5951 22.0293 83.6184 22.0293C82.1208 22.0293 81.2852 20.9441 81.2852 19.8155C81.2852 17.949 82.9456 16.994 85.702 17.0049V16.8855C85.6911 16.3863 85.4849 15.5724 84.1827 15.5724ZM73.0704 11.3185C73.7106 11.3185 74.1122 11.7634 74.123 12.3386C74.123 12.892 73.7106 13.3478 73.0487 13.3478C72.4193 13.3478 72.0069 12.892 72.0069 12.3386C72.0177 11.7634 72.4518 11.3185 73.0704 11.3185ZM74.0036 14.4221V21.8557H72.1263V14.4221H74.0036V14.4221ZM48.1762 11.5572H50.5745L53.9168 21.8448H51.8875L50.9543 18.9257H47.6987L46.8089 21.8448H44.8664L48.1762 11.5572ZM35.664 45.6864C35.664 47.4986 34.1881 48.9745 32.3759 48.9745H18.2684C16.4562 48.9745 14.9803 47.5095 14.9803 45.6864V14.3462C14.9803 12.5339 16.4562 11.0581 18.2684 11.0581H32.3759C34.1881 11.0581 35.664 12.5339 35.664 14.3462V45.6864ZM58.3335 46.4352L56.467 40.5534H49.9559L48.1762 46.4352H44.8555L51.2907 26.4135H55.2733L61.7519 46.4352H58.3335ZM59.0606 21.8557H57.2158L54.4486 14.4221H56.4779L57.6824 18.1986C57.8995 18.8497 58.0514 19.4466 58.1816 20.0651H58.225C58.3661 19.4574 58.5289 18.8714 58.7242 18.1986L59.9179 14.4221H61.893L59.0606 21.8557ZM62.9347 19.8047C62.9347 17.9381 64.5951 16.9832 67.3514 16.994V16.8747C67.3514 16.3863 67.1561 15.5724 65.843 15.5724C65.1051 15.5724 64.3455 15.8003 63.8463 16.1259L63.4773 14.8996C64.0308 14.5632 64.9857 14.2485 66.1686 14.2485C68.5452 14.2485 69.2397 15.7569 69.2397 17.3956V20.0651C69.2397 20.7379 69.2722 21.389 69.359 21.8557H67.6662L67.5251 21.0309H67.4817C67.0367 21.6061 66.2554 22.0293 65.2787 22.0293C63.7703 22.0184 62.9347 20.9333 62.9347 19.8047ZM75.4903 44.8725C74.2966 46.1313 72.8099 46.7716 71.0411 46.7716C69.1203 46.7716 67.753 46.0879 66.9174 44.7206V52.306H63.7161V36.7444C63.7161 35.2035 63.6727 33.6191 63.5967 32.0022H66.4182L66.5918 34.2919H66.6461C67.7204 32.5773 69.3373 31.7092 71.5186 31.7092C73.2223 31.7092 74.6439 32.382 75.7834 33.7276C76.9228 35.0733 77.4871 36.853 77.4871 39.045C77.4979 41.5084 76.8251 43.44 75.4903 44.8725ZM78.8327 21.8557H76.9554V11.0146H78.8327V21.8557ZM91.3558 44.8725C90.1621 46.1313 88.6754 46.7716 86.9065 46.7716C84.9966 46.7716 83.6184 46.0879 82.7937 44.7206V52.306H79.5815V36.7444C79.5815 35.2035 79.5381 33.6191 79.4621 32.0022H82.2728L82.4573 34.2919H82.5115C83.5858 32.5773 85.2028 31.7092 87.384 31.7092C89.0877 31.7092 90.5093 32.382 91.6488 33.7276C92.7882 35.0733 93.3634 36.853 93.3634 39.045C93.3525 41.5084 92.6906 43.44 91.3558 44.8725ZM93.5587 22.0184C92.5929 22.0184 91.7465 21.6495 91.2039 20.7379H91.1713L91.0845 21.8557H89.4784C89.511 21.3565 89.5435 20.5317 89.5435 19.7613V11.0146H91.4209V15.4422H91.4535C91.9092 14.726 92.7231 14.2485 93.8409 14.2485C95.6531 14.2485 96.9554 15.7569 96.9445 18.0141C96.9336 20.6945 95.2299 22.0184 93.5587 22.0184ZM109.706 44.981C108.393 46.153 106.581 46.7282 104.248 46.7282C102.088 46.7282 100.363 46.3158 99.0606 45.4802L99.8094 42.8106C101.209 43.6354 102.761 44.0586 104.432 44.0586C105.648 44.0586 106.581 43.7873 107.254 43.2447C107.927 42.7021 108.263 41.975 108.263 41.0526C108.263 40.2496 107.981 39.5659 107.438 39.0125C106.874 38.459 105.962 37.949 104.682 37.4715C101.177 36.1693 99.4296 34.2594 99.4296 31.7417C99.4296 30.1031 100.037 28.7466 101.285 27.694C102.522 26.6522 104.161 26.1205 106.201 26.1205C108.024 26.1205 109.533 26.4352 110.748 27.0646L109.934 29.6799C108.806 29.0722 107.525 28.7575 106.093 28.7575C104.964 28.7575 104.074 29.0396 103.434 29.5822C102.902 30.0814 102.631 30.6891 102.631 31.3945C102.631 32.1758 102.935 32.8378 103.553 33.3587C104.085 33.8361 105.062 34.3462 106.462 34.8996C108.187 35.5833 109.457 36.408 110.271 37.3413C111.084 38.2746 111.486 39.4249 111.486 40.8139C111.475 42.5285 110.878 43.9175 109.706 44.981ZM121.014 34.4004H117.476V41.4216C117.476 43.2013 118.106 44.0912 119.354 44.0912C119.929 44.0912 120.395 44.0477 120.775 43.9501L120.862 46.3809C120.233 46.6196 119.397 46.739 118.366 46.739C117.107 46.739 116.109 46.3592 115.393 45.5779C114.676 44.8074 114.318 43.5052 114.318 41.6929V34.4004H112.213V32.0022H114.318V29.3652L117.465 28.4102V32.0022H121.003V34.4004H121.014ZM119.202 22.0184C117.107 22.0184 115.48 20.586 115.48 18.1877C115.48 15.7461 117.086 14.2485 119.332 14.2485C121.546 14.2485 123.032 15.8112 123.032 18.0684C123.022 20.803 121.09 22.0184 119.202 22.0184ZM134.177 44.5686C132.842 46.0336 131.084 46.7607 128.892 46.7607C126.765 46.7607 125.073 46.0553 123.825 44.6555C122.566 43.2556 121.947 41.4759 121.947 39.338C121.947 37.1026 122.598 35.2686 123.89 33.847C125.192 32.4145 126.928 31.7092 129.131 31.7092C131.258 31.7092 132.962 32.4037 134.242 33.8144C135.469 35.1709 136.076 36.9398 136.076 39.0993C136.065 41.3239 135.436 43.1362 134.177 44.5686ZM137.487 14.4221H138.54V13.0222L140.385 12.5014V14.4113H142.175V15.8112H140.385V19.0993C140.385 20.0109 140.623 20.4775 141.35 20.4775C141.687 20.4775 141.871 20.4666 142.088 20.4015L142.121 21.8231C141.85 21.9316 141.34 22.0184 140.764 22.0184C140.059 22.0184 139.495 21.7906 139.147 21.4107C138.735 20.9875 138.551 20.293 138.551 19.3163V15.822H137.498V14.4221H137.487ZM145.724 34.8237C145.409 34.7694 145.073 34.7368 144.714 34.7368C143.586 34.7368 142.718 35.1601 142.099 36.0065C141.567 36.7661 141.296 37.6994 141.296 38.8606V46.4352H138.084V36.5383C138.084 34.8888 138.051 33.3695 137.997 32.0022H140.786L140.905 34.7694H140.992C141.329 33.8253 141.86 33.0548 142.598 32.4905C143.315 31.9696 144.085 31.72 144.921 31.72C145.214 31.72 145.485 31.7309 145.713 31.7743V34.8237H145.724ZM146.212 17.3956V21.8557H144.335V11.0146H146.212V15.4314H146.245C146.472 15.0841 146.798 14.7911 147.178 14.5958C147.558 14.3787 148.003 14.2594 148.48 14.2594C149.75 14.2594 151.074 15.095 151.074 17.4824V21.8665H149.196V17.6886C149.196 16.6142 148.795 15.7895 147.764 15.7895C147.026 15.7895 146.516 16.2778 146.299 16.8421C146.223 16.994 146.212 17.2002 146.212 17.3956ZM159.451 40H149.826C149.869 41.4216 150.325 42.5068 151.226 43.2556C152.039 43.9284 153.081 44.2648 154.373 44.2648C155.805 44.2648 157.096 44.0369 158.268 43.5811L158.778 45.8166C157.422 46.4135 155.794 46.7065 153.939 46.7065C151.703 46.7065 149.945 46.0553 148.675 44.7314C147.395 43.4183 146.755 41.6495 146.755 39.4357C146.755 37.2545 147.351 35.4422 148.534 33.9989C149.793 32.4579 151.475 31.6875 153.591 31.6875C155.675 31.6875 157.248 32.4579 158.312 33.9989C159.158 35.2252 159.592 36.7444 159.592 38.5458C159.56 39.1101 159.527 39.5985 159.451 40ZM93.1463 15.7135C92.3867 15.7135 91.6813 16.267 91.486 17.0917C91.4535 17.2328 91.4209 17.3956 91.4209 17.58V18.7846C91.4209 18.9365 91.4317 19.0884 91.4643 19.2295C91.6596 19.9891 92.3216 20.5426 93.1246 20.5426C94.2966 20.5426 95.0237 19.6093 95.0237 18.1009C95.0237 16.7878 94.3943 15.7135 93.1463 15.7135ZM106.657 15.529C105.496 15.529 105.007 16.5817 104.931 17.3413H108.198C108.22 16.6576 107.916 15.529 106.657 15.529ZM119.278 15.605C117.954 15.605 117.411 16.9072 117.411 18.1443C117.411 19.5768 118.127 20.662 119.256 20.662C120.319 20.662 121.068 19.6202 121.068 18.1118C121.079 16.9506 120.558 15.605 119.278 15.605ZM83.1409 19.6093C83.1409 20.3473 83.6184 20.6837 84.2044 20.6837C84.964 20.6837 85.5066 20.1953 85.6911 19.6636C85.7345 19.5225 85.7345 19.3923 85.7345 19.2512V18.2311C84.4106 18.2094 83.1409 18.4807 83.1409 19.6093ZM156.185 15.529C155.024 15.529 154.535 16.5817 154.459 17.3413H157.726C157.737 16.6576 157.433 15.529 156.185 15.529Z" fill="white"/>
</svg>
