<svg width="28" height="28" viewBox="0 0 28 28" fill="none" xmlns="http://www.w3.org/2000/svg">
<rect width="28" height="28" rx="3" fill="white"/>
<path fill-rule="evenodd" clip-rule="evenodd" d="M12.7145 12.4845H14.5715V13.4095C14.839 12.8775 15.525 12.3995 16.5555 12.3995C18.531 12.3995 19 13.4585 19 15.4015V19H17V15.844C17 14.7375 16.7325 14.1135 16.0515 14.1135C15.107 14.1135 14.7145 14.786 14.7145 15.8435V19H12.7145V12.4845ZM9.285 18.915H11.285V12.3995H9.285V18.915ZM11.5715 10.275C11.5716 10.4426 11.5383 10.6086 11.4737 10.7633C11.4091 10.918 11.3143 11.0583 11.195 11.176C10.9532 11.4163 10.6259 11.5508 10.285 11.55C9.94469 11.5498 9.61816 11.4156 9.376 11.1765C9.25711 11.0584 9.16269 10.9179 9.09817 10.7632C9.03365 10.6085 9.00029 10.4426 9 10.275C9 9.9365 9.135 9.6125 9.3765 9.3735C9.61844 9.13408 9.94512 8.99985 10.2855 9C10.6265 9 10.9535 9.1345 11.195 9.3735C11.436 9.6125 11.5715 9.9365 11.5715 10.275Z" fill="black"/>
</svg>
