<svg width="29" height="28" viewBox="0 0 29 28" fill="none" xmlns="http://www.w3.org/2000/svg">
<path d="M22.1095 0H6.41965C2.89035 0 0.0292969 2.81377 0.0292969 6.28472V21.7153C0.0292969 25.1862 2.89035 28 6.41965 28H22.1095C25.6388 28 28.4999 25.1862 28.4999 21.7153V6.28472C28.4999 2.81377 25.6388 0 22.1095 0Z" fill="white"/>
<path d="M10.9396 12.1113H8.66144V18.6726H10.9396V12.1113Z" fill="black"/>
<path d="M10.5566 9.04938C10.3395 8.92008 10.0843 8.85108 9.82329 8.85107C9.64913 8.85107 9.47669 8.8818 9.31588 8.94149C9.15508 9.00119 9.00908 9.08867 8.88628 9.1989C8.76349 9.30914 8.66632 9.43995 8.60037 9.58383C8.53441 9.7277 8.50097 9.88179 8.50197 10.0372C8.50348 10.2702 8.58224 10.4976 8.72834 10.6906C8.87443 10.8837 9.08132 11.0338 9.32288 11.122C9.56445 11.2102 9.82988 11.2326 10.0857 11.1864C10.3415 11.1401 10.5762 11.0272 10.7602 10.862C10.9443 10.6968 11.0694 10.4867 11.1197 10.2581C11.1701 10.0295 11.1435 9.79269 11.0433 9.57758C10.9431 9.36247 10.7737 9.17867 10.5566 9.04938Z" fill="black"/>
<path d="M14.5964 12.111H12.4018L12.3942 18.6858H14.6723V15.4391C14.6723 14.585 14.8546 13.7581 16.0392 13.7581C17.2238 13.7581 17.2238 14.7409 17.2238 15.5001V18.6722H19.502V15.0731C19.502 13.304 19.0387 11.9483 16.7606 11.9483C16.3264 11.9332 15.8958 12.0235 15.5146 12.2097C15.1334 12.396 14.8161 12.6711 14.5964 13.0057V12.111Z" fill="black"/>
</svg>
