<svg width="29" height="28" viewBox="0 0 29 28" fill="none" xmlns="http://www.w3.org/2000/svg">
<path d="M28.9688 24.1111C28.9688 25.1425 28.559 26.1317 27.8297 26.861C27.1004 27.5903 26.1113 28 25.0799 28H4.85764C3.82624 28 2.83709 27.5903 2.10778 26.861C1.37847 26.1317 0.96875 25.1425 0.96875 24.1111V3.88889C0.96875 2.85749 1.37847 1.86834 2.10778 1.13903C2.83709 0.409721 3.82624 0 4.85764 0H25.0799C26.1113 0 27.1004 0.409721 27.8297 1.13903C28.559 1.86834 28.9688 2.85749 28.9688 3.88889V24.1111Z" fill="white"/>
<path d="M20.3768 10.8216C19.9792 11.0037 19.4757 11.1747 19.0245 11.2315C19.4834 10.9502 20.2113 10.3641 20.3768 9.83398C19.9481 10.0944 19.1728 10.3725 18.6671 10.4731C18.2632 10.0306 17.6871 9.83398 17.0488 9.83398C15.8228 9.83398 14.9677 10.9078 14.9677 12.1633V13.095C13.1647 13.095 11.4067 11.6755 10.3127 10.2998C10.1149 10.6466 10.011 11.0419 10.0121 11.4444C10.0121 12.2918 10.7653 13.1518 11.3616 13.5608C10.9979 13.5492 10.3091 13.2622 10.0094 13.095V13.1215C10.0094 14.2242 10.7581 14.9728 11.7727 15.1815C11.5875 15.2342 11.3616 15.4242 10.4926 15.4242C10.7747 16.3257 12.1933 16.8022 13.1647 16.8218C12.4047 17.4307 11.0497 17.7535 10.0094 17.7535C9.8295 17.7535 9.73214 17.7638 9.55859 17.7428C10.5403 18.3857 11.9115 18.6852 13.1647 18.6852C17.2472 18.6852 19.4753 15.4624 19.4753 12.4567C19.4753 12.358 19.4721 12.0272 19.4671 11.9303C19.9035 11.6126 20.0802 11.28 20.3768 10.8216Z" fill="black"/>
</svg>
