<svg width="21" height="17" viewBox="0 0 21 17" fill="none" xmlns="http://www.w3.org/2000/svg">
<path d="M18.9336 0.177734H1.27734C0.63117 0.177734 0.105469 0.703435 0.105469 1.3496V15.4121C0.105469 16.0583 0.63117 16.584 1.27734 16.584H18.9336C19.5798 16.584 20.1055 16.0583 20.1055 15.4121V1.34957C20.1055 0.703396 19.5798 0.177734 18.9336 0.177734ZM1.27734 0.958981H18.9336C19.149 0.958981 19.3242 1.13421 19.3242 1.3496V2.91222H0.886716V1.34957C0.886716 1.13422 1.06195 0.958981 1.27734 0.958981ZM18.9336 15.8027H1.27734C1.06195 15.8027 0.886716 15.6274 0.886716 15.4121V3.69342H19.3242V15.4121C19.3242 15.6274 19.149 15.8027 18.9336 15.8027Z" fill="white"/>
<path d="M18.3478 2.32617C18.5636 2.32617 18.7384 2.15129 18.7384 1.93555C18.7384 1.7198 18.5636 1.54492 18.3478 1.54492H18.3475C18.1318 1.54492 17.957 1.7198 17.957 1.93555C17.957 2.15129 18.1321 2.32617 18.3478 2.32617Z" fill="white"/>
<path d="M16.9806 2.32617C17.1964 2.32617 17.3712 2.15129 17.3712 1.93555C17.3712 1.7198 17.1964 1.54492 16.9806 1.54492H16.9804C16.7646 1.54492 16.5898 1.7198 16.5898 1.93555C16.5898 2.15129 16.7649 2.32617 16.9806 2.32617Z" fill="white"/>
<path d="M15.6139 2.32617C15.8297 2.32617 16.0046 2.15129 16.0046 1.93555C16.0046 1.7198 15.8297 1.54492 15.6139 1.54492H15.6137C15.3979 1.54492 15.2231 1.7198 15.2231 1.93555C15.2231 2.15129 15.3982 2.32617 15.6139 2.32617Z" fill="white"/>
<path d="M16.387 5.8201L10.6806 11.5265C10.6377 11.5694 10.6054 11.6217 10.5862 11.6792L9.96904 13.5307C9.86927 13.83 10.1635 14.1247 10.4631 14.0248L12.3147 13.4076C12.3722 13.3884 12.4245 13.3561 12.4674 13.3132L18.1738 7.60686C18.6664 7.11424 18.6664 6.31272 18.1738 5.8201C17.6811 5.32752 16.8797 5.32756 16.387 5.8201ZM12.6849 11.9908L12.003 11.309L15.6757 7.63627L16.3576 8.31815L12.6849 11.9908ZM10.9573 13.0366L11.2983 12.0137L11.4506 11.8614L12.1325 12.5433L11.9802 12.6956L10.9573 13.0366ZM17.6213 7.05444L16.9101 7.76573L16.2282 7.08385L16.9395 6.3726C17.1275 6.18463 17.4334 6.18463 17.6214 6.3726C17.7118 6.46295 17.7615 6.58405 17.7615 6.71354C17.7615 6.84303 17.7117 6.96405 17.6213 7.05444Z" fill="white"/>
<path d="M2.05859 6.23242H13.1524C13.3682 6.23242 13.543 6.05754 13.543 5.8418C13.543 5.62605 13.3682 5.45117 13.1524 5.45117H2.05859C1.84285 5.45117 1.66797 5.62605 1.66797 5.8418C1.66797 6.05754 1.84289 6.23242 2.05859 6.23242Z" fill="white"/>
<path d="M12.3714 7.4043C12.3714 7.18855 12.1965 7.01367 11.9808 7.01367H7.87939C7.66365 7.01367 7.48877 7.18855 7.48877 7.4043C7.48877 7.62004 7.66365 7.79492 7.87939 7.79492H11.9808C12.1965 7.79492 12.3714 7.62004 12.3714 7.4043Z" fill="white"/>
<path d="M11.1994 8.9668C11.1994 8.75105 11.0245 8.57617 10.8088 8.57617H3.81641C3.60066 8.57617 3.42578 8.75105 3.42578 8.9668C3.42578 9.18254 3.60066 9.35742 3.81641 9.35742H10.8088C11.0245 9.35742 11.1994 9.18254 11.1994 8.9668Z" fill="white"/>
<path d="M2.05859 10.1387C1.84285 10.1387 1.66797 10.3136 1.66797 10.5293C1.66797 10.745 1.84285 10.9199 2.05859 10.9199H5.53535C5.75109 10.9199 5.92598 10.745 5.92598 10.5293C5.92598 10.3136 5.75109 10.1387 5.53535 10.1387H2.05859Z" fill="white"/>
<path d="M8.3868 11.7012H2.05859C1.84285 11.7012 1.66797 11.8761 1.66797 12.0918C1.66797 12.3075 1.84285 12.4824 2.05859 12.4824H8.3868C8.60254 12.4824 8.77742 12.3075 8.77742 12.0918C8.77742 11.8761 8.60254 11.7012 8.3868 11.7012Z" fill="white"/>
<path d="M7.21488 13.2637H2.05859C1.84285 13.2637 1.66797 13.4386 1.66797 13.6543C1.66797 13.87 1.84285 14.0449 2.05859 14.0449H7.21488C7.43063 14.0449 7.60551 13.87 7.60551 13.6543C7.60551 13.4386 7.43063 13.2637 7.21488 13.2637Z" fill="white"/>
<path d="M2.05859 7.79492H5.53535C5.75109 7.79492 5.92598 7.62004 5.92598 7.4043C5.92598 7.18855 5.75109 7.01367 5.53535 7.01367H2.05859C1.84285 7.01367 1.66797 7.18855 1.66797 7.4043C1.66797 7.62004 1.84289 7.79492 2.05859 7.79492Z" fill="white"/>
<path d="M2.05871 9.35742C2.27445 9.35742 2.44934 9.18254 2.44934 8.9668C2.44934 8.75105 2.27445 8.57617 2.05871 8.57617H2.05844C1.8427 8.57617 1.66797 8.75105 1.66797 8.9668C1.66797 9.18254 1.84301 9.35742 2.05871 9.35742Z" fill="white"/>
</svg>
