<svg width="21" height="21" viewBox="0 0 21 21" fill="none" xmlns="http://www.w3.org/2000/svg">
<path d="M7.22122 0.847656H1.56101C0.758271 0.847656 0.105469 1.50056 0.105469 2.30299V7.96372C0.105469 8.76625 0.758376 9.41905 1.56101 9.41905H7.22122C8.02396 9.41905 8.67676 8.76615 8.67676 7.96351V2.30289C8.67676 1.50056 8.02396 0.847656 7.22122 0.847656ZM7.22122 8.70473H1.5608C1.152 8.70473 0.819586 8.37241 0.819586 7.96361V2.30299C0.819586 1.89419 1.15211 1.56188 1.5608 1.56188H7.22101C7.62981 1.56188 7.96222 1.89419 7.96222 2.30299V7.96361H7.96233C7.96233 8.37241 7.62991 8.70473 7.22122 8.70473Z" fill="white"/>
<path d="M18.6499 0.847656H12.9897C12.187 0.847656 11.5342 1.50056 11.5342 2.30299V7.96372C11.5342 8.76625 12.1871 9.41905 12.9897 9.41905H18.6499C19.4526 9.41905 20.1055 8.76615 20.1055 7.96351V2.30289C20.1055 1.50056 19.4526 0.847656 18.6499 0.847656ZM19.3909 7.96361C19.3909 8.37241 19.0584 8.70473 18.6497 8.70473H12.9895C12.5807 8.70473 12.2483 8.37241 12.2483 7.96361V2.30299C12.2483 1.89419 12.5808 1.56188 12.9895 1.56188H18.6497C19.0585 1.56188 19.3909 1.89419 19.3909 2.30299V7.96361Z" fill="white"/>
<path d="M7.22122 12.2764H1.56101C0.758481 12.2764 0.105469 12.9293 0.105469 13.7317V19.3924C0.105469 20.195 0.758376 20.8478 1.56101 20.8478H7.22122C8.02396 20.8478 8.67676 20.1949 8.67676 19.3922V13.7316C8.67676 12.9292 8.02396 12.2764 7.22122 12.2764ZM7.22122 20.1334H1.5608C1.152 20.1334 0.819586 19.8011 0.819586 19.3923V13.7317C0.819586 13.3229 1.15211 12.9906 1.5608 12.9906H7.22101C7.62981 12.9906 7.96222 13.3229 7.96222 13.7317V19.3923H7.96233C7.96233 19.8011 7.62991 20.1334 7.22122 20.1334Z" fill="white"/>
<path d="M18.6499 12.2764H12.9897C12.187 12.2764 11.5342 12.9293 11.5342 13.7317V19.3924C11.5342 20.195 12.1871 20.8478 12.9897 20.8478H18.6499C19.4526 20.8478 20.1055 20.1949 20.1055 19.3922V13.7316C20.1055 12.9292 19.4526 12.2764 18.6499 12.2764ZM19.3909 19.3923C19.3909 19.8011 19.0584 20.1334 18.6497 20.1334H12.9895C12.5807 20.1334 12.2483 19.8011 12.2483 19.3923V13.7317C12.2483 13.3229 12.5808 12.9906 12.9895 12.9906H18.6497C19.0585 12.9906 19.3909 13.3229 19.3909 13.7317V19.3923Z" fill="white"/>
</svg>
