<svg width="200" height="70" viewBox="0 0 200 70" fill="none" xmlns="http://www.w3.org/2000/svg">
<path d="M86.4784 14.9233C86.064 14.9233 85.7207 15.1134 85.4365 15.506C85.1523 15.8987 85.0103 16.3928 85.0103 16.9881C85.0103 17.6088 85.1642 18.1155 85.4602 18.5082C85.7562 18.9009 86.135 19.0909 86.5613 19.0909C86.9757 19.0909 87.319 18.8882 87.6032 18.4955C87.8874 18.1029 88.0294 17.6088 88.0294 17.0135C88.0294 16.3928 87.8755 15.8734 87.5795 15.4934C87.2954 15.1134 86.9283 14.9233 86.4784 14.9233Z" fill="white"/>
<path d="M94.613 14.9617C94.4946 14.9617 94.3288 14.9743 94.1157 14.9997C94.1394 15.595 94.1631 16.2284 94.1631 16.8744C94.1631 17.5965 94.1749 18.3059 94.2104 19.0026C94.388 19.0406 94.5775 19.0659 94.7551 19.0659C95.3589 19.0659 95.8088 18.8632 96.093 18.4705C96.3771 18.0652 96.5311 17.5838 96.5311 17.0138C96.5311 16.4438 96.3771 15.9497 96.0575 15.557C95.7378 15.1517 95.2524 14.9617 94.613 14.9617Z" fill="white"/>
<path d="M108.359 14.8988C108.158 14.8988 107.945 14.9241 107.731 14.9621C107.767 15.5322 107.779 16.1655 107.779 16.8876C107.85 16.8876 107.933 16.9003 108.027 16.9003C109.046 16.9003 109.555 16.5582 109.555 15.8615C109.555 15.2282 109.164 14.8988 108.359 14.8988Z" fill="white"/>
<path d="M103.019 14.8855C103.019 14.9995 102.771 15.8356 102.273 17.3936H103.801C103.327 15.8482 103.079 15.0122 103.079 14.8855H103.019Z" fill="white"/>
<path d="M63.3436 14.8855C63.3436 14.9995 63.0949 15.8356 62.5977 17.3936H64.125C63.6514 15.8482 63.4028 15.0122 63.4028 14.8855H63.3436Z" fill="white"/>
<path d="M80.5355 14.9109C80.275 14.9109 80.0382 14.9362 79.8369 14.9742C79.8724 15.4429 79.8843 16.0383 79.8843 16.7857C80.0382 16.7857 80.1684 16.7983 80.275 16.7983C81.163 16.7983 81.6129 16.469 81.6129 15.8103C81.6011 15.2022 81.2459 14.9109 80.5355 14.9109Z" fill="white"/>
<path d="M74.5085 14.9617C74.3901 14.9617 74.2243 14.9743 74.0112 14.9997C74.0349 15.595 74.0586 16.2284 74.0586 16.8744C74.0586 17.5965 74.0704 18.3059 74.1059 19.0026C74.2835 19.0406 74.473 19.0659 74.6506 19.0659C75.2544 19.0659 75.7043 18.8632 75.9885 18.4705C76.2727 18.0652 76.4266 17.5838 76.4266 17.0138C76.4266 16.4438 76.2727 15.9497 75.953 15.557C75.6333 15.1517 75.1597 14.9617 74.5085 14.9617Z" fill="white"/>
<path d="M121.193 14.9233C120.779 14.9233 120.436 15.1134 120.151 15.506C119.867 15.8987 119.725 16.3928 119.725 16.9881C119.725 17.6088 119.879 18.1155 120.175 18.5082C120.471 18.9009 120.85 19.0909 121.276 19.0909C121.691 19.0909 122.034 18.8882 122.318 18.4955C122.602 18.1029 122.744 17.6088 122.744 17.0135C122.744 16.3928 122.59 15.8734 122.294 15.4934C122.01 15.1134 121.631 14.9233 121.193 14.9233Z" fill="white"/>
<path d="M113.402 14.8988C113.201 14.8988 112.988 14.9241 112.775 14.9621C112.81 15.5322 112.822 16.1655 112.822 16.8876C112.893 16.8876 112.976 16.9003 113.071 16.9003C114.089 16.9003 114.598 16.5582 114.598 15.8615C114.598 15.2282 114.196 14.8988 113.402 14.8988Z" fill="white"/>
<path d="M102.451 35.9769C101.279 35.9769 100.26 36.4456 99.396 37.383C98.5317 38.3204 98.1055 39.5618 98.1055 41.1199C98.1055 42.6653 98.5317 43.9067 99.396 44.8568C100.26 45.7942 101.279 46.2629 102.451 46.2629C103.623 46.2629 104.641 45.7942 105.505 44.8568C106.37 43.9194 106.796 42.678 106.796 41.1199C106.796 39.5745 106.37 38.3331 105.505 37.383C104.641 36.4456 103.623 35.9769 102.451 35.9769Z" fill="white"/>
<path d="M87.9351 35.9769C86.7629 35.9769 85.7447 36.4456 84.8804 37.383C84.0161 38.3204 83.5898 39.5618 83.5898 41.1199C83.5898 42.6653 84.0161 43.9067 84.8804 44.8568C85.7447 45.7942 86.7511 46.2629 87.9351 46.2629C89.1072 46.2629 90.1255 45.7942 90.9898 44.8568C91.8541 43.9194 92.2803 42.678 92.2803 41.1199C92.2803 39.5745 91.8541 38.3331 90.9898 37.383C90.1255 36.4456 89.1072 35.9769 87.9351 35.9769Z" fill="white"/>
<path d="M156.843 29.9977H152.664V37.2562H156.843C157.897 37.2562 158.737 36.8761 159.365 36.1288C160.004 35.3687 160.312 34.5453 160.312 33.6333C160.312 32.7212 159.992 31.8852 159.365 31.1378C158.737 30.3778 157.885 29.9977 156.843 29.9977Z" fill="white"/>
<path d="M171.987 42.0192C171.371 42.5765 171.063 43.2352 171.063 43.9953C171.063 44.692 171.348 45.2494 171.904 45.6547C172.461 46.0601 173.112 46.2627 173.834 46.2627C174.864 46.2627 175.799 45.8447 176.64 45.034C177.481 44.2106 177.907 43.2352 177.907 42.1205C177.197 41.4998 176.143 41.1958 174.734 41.1958C173.514 41.1831 172.603 41.4618 171.987 42.0192Z" fill="white"/>
<path d="M136.265 35.9769C135.342 35.9769 134.537 36.2809 133.862 36.9016C133.187 37.5223 132.713 38.3584 132.465 39.3971H140.173C140.113 38.5864 139.77 37.8137 139.131 37.079C138.491 36.3443 137.532 35.9769 136.265 35.9769Z" fill="white"/>
<path d="M116.86 35.9769C115.7 35.9769 114.705 36.4456 113.876 37.383C113.048 38.3204 112.633 39.5618 112.633 41.1199C112.633 42.6653 113.048 43.9067 113.876 44.8568C114.705 45.7942 115.7 46.2629 116.86 46.2629C118.032 46.2629 119.039 45.7942 119.856 44.8694C120.684 43.9447 121.087 42.6906 121.087 41.1199C121.087 39.5491 120.673 38.3077 119.856 37.3703C119.039 36.4456 118.044 35.9769 116.86 35.9769Z" fill="white"/>
<path d="M191.156 0.0267334H8.84442C3.96638 0.0267334 0 4.25764 0 9.48927V60.5642C0 65.7832 3.95454 70.0267 8.84442 70.0267H191.156C196.034 70.0267 200 65.7958 200 60.5642V9.48927C199.988 4.27031 196.034 0.0267334 191.156 0.0267334ZM111.686 14.0875H112.42C112.527 14.0875 112.728 14.0875 113.012 14.0749C113.308 14.0622 113.557 14.0622 113.782 14.0622C114.314 14.0622 114.764 14.1889 115.131 14.4549C115.498 14.7082 115.676 15.1009 115.676 15.633C115.676 16.355 115.427 16.8744 114.93 17.2164C114.433 17.5584 113.829 17.7231 113.095 17.7231C112.965 17.7231 112.87 17.7231 112.811 17.7104C112.811 18.2678 112.823 19.0152 112.858 19.9399H111.674C111.71 19.0785 111.733 18.0524 111.733 16.8744C111.745 15.7976 111.722 14.8602 111.686 14.0875ZM101.397 17.0644C102.048 15.2656 102.38 14.2775 102.38 14.0875H103.966C103.966 14.2522 104.262 15.2403 104.854 17.0137C105.446 18.7998 105.742 19.7752 105.742 19.9272H104.393C104.393 19.7245 104.262 19.1672 104.014 18.2424H102.072C101.811 19.1545 101.681 19.7119 101.681 19.9272H100.414C100.414 19.8132 100.746 18.8631 101.397 17.0644ZM93.05 14.0875H93.784C93.9024 14.0875 94.08 14.0875 94.3168 14.0749C94.5536 14.0622 94.7076 14.0622 94.7786 14.0622C95.785 14.0622 96.5191 14.3282 96.9808 14.8729C97.4307 15.4176 97.6675 16.0637 97.6675 16.811C97.6675 17.6597 97.407 18.4071 96.8979 19.0405C96.3888 19.6739 95.6784 19.9905 94.7549 19.9905C94.3405 19.9905 93.7722 19.9779 93.0381 19.9399C93.0736 19.0405 93.0973 18.0144 93.0973 16.8744C93.0973 15.785 93.0855 14.8476 93.05 14.0875ZM90.386 14.0875H91.57C91.5344 14.8476 91.5108 15.7723 91.5108 16.8744C91.5108 18.0018 91.5344 19.0278 91.57 19.9399H90.386C90.4215 19.0152 90.4452 17.9891 90.4452 16.8744C90.4452 15.785 90.4215 14.8476 90.386 14.0875ZM84.6436 14.8602C85.1646 14.2522 85.8158 13.9482 86.5972 13.9482C87.3313 13.9482 87.9588 14.2269 88.4561 14.7842C88.9534 15.3416 89.202 16.051 89.202 16.8997C89.202 17.8244 88.9415 18.5845 88.4087 19.1925C87.8878 19.8005 87.2366 20.1045 86.4551 20.1045C85.7211 20.1045 85.0935 19.8259 84.5963 19.2685C84.099 18.7111 83.8503 18.0018 83.8503 17.153C83.8503 16.2283 84.1227 15.4556 84.6436 14.8602ZM72.9458 14.0875H73.6798C73.7982 14.0875 73.9759 14.0875 74.2127 14.0749C74.4495 14.0622 74.6034 14.0622 74.6744 14.0622C75.6808 14.0622 76.4149 14.3282 76.8766 14.8729C77.3266 15.4176 77.5634 16.0637 77.5634 16.811C77.5634 17.6597 77.3029 18.4071 76.7937 19.0405C76.2846 19.6739 75.5742 19.9905 74.6507 19.9905C74.2363 19.9905 73.668 19.9779 72.9339 19.9399C72.9695 19.0405 72.9931 18.0144 72.9931 16.8744C73.005 15.785 72.9813 14.8476 72.9458 14.0875ZM66.9785 14.0875H68.2216C68.2216 14.2522 68.565 14.8856 69.2636 15.9876C69.9976 17.1657 70.4239 17.9638 70.5304 18.3818H70.5896C70.5186 17.7104 70.4831 17.115 70.4831 16.583C70.4831 15.7723 70.4594 14.9363 70.4239 14.0875H71.4776C71.4421 14.8349 71.4184 15.7596 71.4184 16.8744C71.4184 18.0018 71.4421 19.0152 71.4776 19.9399H70.4357C70.4357 19.8132 70.045 19.1672 69.2754 17.9891C68.4703 16.7477 68.0085 15.9116 67.902 15.4556H67.8309C67.902 16.1143 67.9375 16.7097 67.9375 17.2291C67.9375 17.9638 67.9612 18.8758 67.9967 19.9399H66.9666C67.014 19.0152 67.0258 17.9891 67.0258 16.8744C67.0376 15.785 67.014 14.8476 66.9785 14.0875ZM61.7215 17.0644C62.3727 15.2656 62.7042 14.2775 62.7042 14.0875H64.2908C64.2908 14.2522 64.5868 15.2403 65.1788 17.0137C65.7708 18.7998 66.0668 19.7752 66.0668 19.9272H64.717C64.717 19.7245 64.5868 19.1672 64.3381 18.2424H62.3964C62.1359 19.1545 62.0057 19.7119 62.0057 19.9272H60.7388C60.7388 19.8132 61.0703 18.8631 61.7215 17.0644ZM17.4284 14.9869C25.9294 20.0792 34.4305 25.1842 42.9316 30.2638C43.3223 30.4918 43.3104 30.6312 43.0144 30.9478C41.1082 32.9493 39.2257 34.9634 37.3431 36.9902C37.1419 37.2055 37.0116 37.3322 36.7393 37.0408C29.9787 29.6558 23.2063 22.296 16.4338 14.9236C16.3746 14.8602 16.3273 14.7842 16.2207 14.6322C16.7298 14.6196 17.085 14.7842 17.4284 14.9869ZM14.8118 59.9308C14.1014 59.3481 13.829 58.5628 13.829 57.6254C13.829 53.6858 13.829 49.7589 13.8172 45.8194C13.8172 43.0325 13.8172 40.2584 13.8172 37.4715H13.829C13.829 30.8338 13.829 24.1834 13.829 17.5457C13.829 16.735 13.9711 15.9876 14.5158 15.3669C14.7289 15.1263 14.8709 15.0629 15.1314 15.3416C19.3109 19.9019 23.4904 24.4495 27.6817 28.9971C30.3931 31.9486 33.1044 34.8874 35.8276 37.8262C36.0881 38.1049 36.1118 38.2569 35.8395 38.5609C29.1854 45.642 22.5314 52.7357 15.901 59.8422C15.4866 60.2982 15.2025 60.2475 14.8118 59.9308ZM42.1975 45.5027C34.2766 50.1389 26.3557 54.8005 18.4466 59.4495C18.3164 59.5255 18.198 59.6521 18.1269 59.7028C24.2955 53.0271 30.476 46.3641 36.6327 39.6757C37.0116 39.2576 37.1892 39.321 37.5326 39.701C39.0954 41.4491 40.682 43.1592 42.2804 44.8693C42.5527 45.1606 42.5764 45.2747 42.1975 45.5027ZM52.5101 39.3336C52.143 39.625 51.7286 39.8657 51.3261 40.1064C48.9344 41.5251 46.5309 42.9312 44.1392 44.3499C43.8196 44.5399 43.6301 44.5399 43.3578 44.2359C41.6528 42.3612 39.9361 40.4864 38.2193 38.6369C37.9706 38.3709 37.9588 38.2189 38.2193 37.9529C40.2321 35.8374 42.233 33.6967 44.2221 31.5559C44.4589 31.3025 44.6247 31.2772 44.9207 31.4545C47.2887 32.8859 49.6685 34.3047 52.0365 35.7234C52.7705 36.1668 53.3389 36.7368 53.3744 37.6616C53.3389 38.4216 53.0192 38.941 52.5101 39.3336ZM77.6462 45.6167C75.8229 47.6688 73.4431 48.6948 70.5068 48.6948C67.7007 48.6948 65.3209 47.6561 63.3554 45.5787C61.39 43.5012 60.4073 40.9171 60.4073 37.8389C60.4073 34.7607 61.39 32.1766 63.3554 30.0991C65.3209 28.0217 67.7007 26.9829 70.5068 26.9829C71.9039 26.9829 73.2299 27.2743 74.4968 27.857C75.7637 28.4397 76.7819 29.2124 77.5397 30.1751L75.8347 31.9992C74.5442 30.3525 72.78 29.5291 70.5186 29.5291C68.4703 29.5291 66.7061 30.3018 65.2143 31.8346C63.7225 33.3673 62.9766 35.3688 62.9766 37.8262C62.9766 40.2837 63.7225 42.2852 65.2143 43.8179C66.7061 45.3507 68.4703 46.1234 70.5186 46.1234C72.6853 46.1234 74.4968 45.3507 75.9531 43.8052C76.8885 42.8045 77.4331 41.3984 77.587 39.5997H70.5304V37.1169H79.955C80.0497 37.6616 80.0852 38.1809 80.0852 38.6876C80.0616 41.5884 79.2565 43.8939 77.6462 45.6167ZM79.884 17.5964C79.884 18.3691 79.8958 19.1418 79.9195 19.9272H78.7473C78.7829 19.0278 78.8065 18.0018 78.8065 16.8617C78.8065 15.7723 78.7829 14.8349 78.7473 14.0749H79.4696C79.5524 14.0749 79.7301 14.0749 80.0024 14.0622C80.2747 14.0495 80.5115 14.0495 80.7483 14.0495C82.0388 14.0495 82.6782 14.5182 82.6782 15.4556C82.6782 16.203 82.3112 16.7224 81.5771 17.0137V17.077C81.8612 17.1657 82.1099 17.3937 82.323 17.7864C82.5361 18.1791 82.8203 18.8885 83.1873 19.9145H81.9441C81.6244 18.8505 81.3758 18.2044 81.1982 17.9511C81.0206 17.6977 80.7483 17.5837 80.3576 17.5837C80.1918 17.5964 80.0379 17.5964 79.884 17.5964ZM92.8368 46.5414C91.5463 47.9855 89.9124 48.7075 87.9233 48.7075C85.9342 48.7075 84.3003 47.9855 83.0097 46.5414C81.7192 45.0973 81.0798 43.2985 81.0798 41.1197C81.0798 38.9536 81.7192 37.1422 83.0097 35.6981C84.2884 34.254 85.9342 33.532 87.9233 33.532C89.9124 33.532 91.5463 34.254 92.8368 35.6981C94.1156 37.1422 94.7668 38.941 94.7668 41.1197C94.7668 43.2859 94.1274 45.0973 92.8368 46.5414ZM107.364 46.5414C106.074 47.9855 104.44 48.7075 102.451 48.7075C100.462 48.7075 98.8279 47.9855 97.5373 46.5414C96.2467 45.0973 95.6074 43.2985 95.6074 41.1197C95.6074 38.9536 96.2467 37.1422 97.5373 35.6981C98.816 34.254 100.462 33.532 102.451 33.532C104.44 33.532 106.074 34.254 107.364 35.6981C108.643 37.1422 109.294 38.941 109.294 41.1197C109.294 43.2859 108.643 45.0973 107.364 46.5414ZM108.063 17.7104C107.933 17.7104 107.838 17.7104 107.779 17.6977C107.779 18.2551 107.791 19.0025 107.826 19.9272H106.642C106.678 19.0658 106.701 18.0398 106.701 16.8617C106.701 15.785 106.678 14.8476 106.642 14.0749H107.376C107.483 14.0749 107.684 14.0749 107.968 14.0622C108.264 14.0495 108.513 14.0495 108.738 14.0495C109.271 14.0495 109.721 14.1762 110.088 14.4422C110.455 14.6956 110.632 15.0883 110.632 15.6203C110.632 16.3423 110.384 16.8617 109.886 17.2037C109.401 17.5457 108.785 17.7104 108.063 17.7104ZM123.49 47.5041C123.49 49.9489 122.827 51.7984 121.513 53.0651C120.187 54.3318 118.577 54.9652 116.682 54.9652C115.108 54.9652 113.829 54.5472 112.823 53.6985C111.828 52.8498 111.118 51.887 110.68 50.8103L112.965 49.7969C113.213 50.5696 113.687 51.2157 114.362 51.7477C115.037 52.2671 115.818 52.5331 116.682 52.5331C118.056 52.5331 119.133 52.0897 119.927 51.2157C120.72 50.3289 121.111 49.1382 121.111 47.6308V46.2627H121.004C120.566 46.9594 119.95 47.5421 119.157 48.0108C118.364 48.4795 117.464 48.7075 116.469 48.7075C114.753 48.7075 113.261 47.9855 112.018 46.5287C110.774 45.072 110.147 43.2732 110.147 41.1324C110.147 38.979 110.774 37.1802 112.018 35.7361C113.261 34.2794 114.753 33.5573 116.469 33.5573C117.464 33.5573 118.364 33.7853 119.157 34.254C119.95 34.7227 120.566 35.3054 121.004 36.0021H121.111V34.026H123.502V47.5041H123.49ZM123.123 19.1925C122.602 19.8005 121.951 20.1045 121.17 20.1045C120.436 20.1045 119.808 19.8259 119.311 19.2685C118.814 18.7111 118.565 18.0018 118.565 17.153C118.565 16.2283 118.825 15.4683 119.358 14.8602C119.879 14.2522 120.53 13.9482 121.312 13.9482C122.046 13.9482 122.673 14.2269 123.171 14.7842C123.668 15.3416 123.917 16.051 123.917 16.8997C123.917 17.8244 123.656 18.5845 123.123 19.1925ZM128.345 48.2388H125.847V27.439H128.345V48.2388ZM129.612 19.9399H128.57C128.57 19.8132 128.179 19.1672 127.409 17.9891C126.604 16.7477 126.143 15.9116 126.036 15.4556H125.965C126.036 16.1143 126.072 16.7097 126.072 17.2291C126.072 17.9638 126.095 18.8758 126.131 19.9399H125.101C125.148 19.0152 125.16 17.9891 125.16 16.8744C125.16 15.785 125.136 14.8476 125.101 14.0875H126.344C126.344 14.2522 126.687 14.8856 127.386 15.9876C128.12 17.1657 128.546 17.9638 128.653 18.3818H128.712C128.641 17.7104 128.605 17.115 128.605 16.583C128.605 15.7723 128.582 14.9363 128.546 14.0875H129.6C129.564 14.8349 129.541 15.7596 129.541 16.8744C129.552 18.0018 129.564 19.0152 129.612 19.9399ZM142.813 41.6138H132.311C132.382 43.0452 132.832 44.1853 133.649 45.0086C134.478 45.8447 135.437 46.2627 136.538 46.2627C138.326 46.2627 139.545 45.452 140.173 43.8179L142.399 44.806C141.961 45.908 141.25 46.8327 140.256 47.5801C139.261 48.3275 138.042 48.6948 136.597 48.6948C134.584 48.6948 132.951 47.9728 131.695 46.5414C130.44 45.11 129.813 43.2985 129.813 41.1071C129.813 39.0296 130.429 37.2562 131.648 35.7614C132.868 34.2667 134.431 33.532 136.325 33.532C138.302 33.532 139.877 34.216 141.061 35.5968C142.245 36.9648 142.837 38.8143 142.837 41.1197L142.813 41.6138ZM161.058 38.0542C159.851 39.2196 158.43 39.815 156.784 39.815H152.664V48.2388H150.166V27.439H156.784C158.43 27.439 159.851 28.0217 161.058 29.1997C162.266 30.3778 162.858 31.8472 162.858 33.6333C162.87 35.4068 162.266 36.8888 161.058 38.0542ZM166.99 48.2388H164.492V27.439H166.99V48.2388ZM180.287 48.2388H177.895V46.2627H177.788C176.794 47.8841 175.337 48.7075 173.419 48.7075C172.01 48.7075 170.826 48.2768 169.879 47.4028C168.932 46.5287 168.458 45.376 168.458 43.9446C168.458 42.3992 169.015 41.1831 170.14 40.2964C171.265 39.4097 172.65 38.979 174.296 38.979C175.764 38.979 176.96 39.2703 177.907 39.853V39.4477C177.907 38.3963 177.575 37.5602 176.9 36.9395C176.225 36.3061 175.408 35.9895 174.426 35.9895C173.704 35.9895 173.04 36.1795 172.46 36.5468C171.868 36.9142 171.466 37.4209 171.253 38.0542L168.968 37.0028C169.275 36.1541 169.879 35.3688 170.791 34.634C171.691 33.912 172.887 33.5446 174.378 33.5446C176.083 33.5446 177.492 34.0767 178.617 35.1407C179.742 36.2048 180.298 37.7122 180.298 39.6377V48.2388H180.287ZM185.721 54.5092H183.14L186.23 47.3394L180.748 34.0133H183.46L187.426 44.2359H187.485L191.333 34.0133H194.045L185.721 54.5092Z" fill="white"/>
</svg>
