<svg width="200" height="70" viewBox="0 0 200 70" fill="none" xmlns="http://www.w3.org/2000/svg">
<path d="M86.4784 14.8966C86.064 14.8966 85.7207 15.0866 85.4365 15.4793C85.1523 15.872 85.0103 16.366 85.0103 16.9614C85.0103 17.5821 85.1642 18.0888 85.4602 18.4815C85.7562 18.8742 86.135 19.0642 86.5613 19.0642C86.9757 19.0642 87.319 18.8615 87.6032 18.4688C87.8874 18.0761 88.0294 17.5821 88.0294 16.9867C88.0294 16.366 87.8755 15.8467 87.5795 15.4666C87.2954 15.0866 86.9283 14.8966 86.4784 14.8966Z" fill="#F2994A"/>
<path d="M94.613 14.9349C94.4946 14.9349 94.3288 14.9476 94.1157 14.9729C94.1394 15.5683 94.1631 16.2017 94.1631 16.8477C94.1631 17.5698 94.1749 18.2791 94.2104 18.9758C94.388 19.0138 94.5775 19.0392 94.7551 19.0392C95.3589 19.0392 95.8088 18.8365 96.093 18.4438C96.3771 18.0384 96.5311 17.5571 96.5311 16.9871C96.5311 16.417 96.3771 15.923 96.0575 15.5303C95.7378 15.1249 95.2524 14.9349 94.613 14.9349Z" fill="#F2994A"/>
<path d="M108.359 14.8717C108.158 14.8717 107.945 14.897 107.731 14.935C107.767 15.5051 107.779 16.1384 107.779 16.8605C107.85 16.8605 107.933 16.8732 108.027 16.8732C109.046 16.8732 109.555 16.5311 109.555 15.8344C109.555 15.2011 109.164 14.8717 108.359 14.8717Z" fill="#F2994A"/>
<path d="M103.019 14.8589C103.019 14.9729 102.771 15.8089 102.273 17.367H103.801C103.327 15.8216 103.079 14.9856 103.079 14.8589H103.019Z" fill="#F2994A"/>
<path d="M63.3436 14.8589C63.3436 14.9729 63.0949 15.8089 62.5977 17.367H64.125C63.6514 15.8216 63.4028 14.9856 63.4028 14.8589H63.3436Z" fill="#F2994A"/>
<path d="M80.535 14.8842C80.2745 14.8842 80.0377 14.9095 79.8364 14.9475C79.8719 15.4162 79.8838 16.0116 79.8838 16.7589C80.0377 16.7589 80.1679 16.7716 80.2745 16.7716C81.1625 16.7716 81.6124 16.4422 81.6124 15.7835C81.6006 15.1755 81.2454 14.8842 80.535 14.8842Z" fill="#F2994A"/>
<path d="M74.5085 14.9349C74.3901 14.9349 74.2243 14.9476 74.0112 14.9729C74.0349 15.5683 74.0586 16.2017 74.0586 16.8477C74.0586 17.5698 74.0704 18.2791 74.1059 18.9758C74.2835 19.0138 74.473 19.0392 74.6506 19.0392C75.2544 19.0392 75.7043 18.8365 75.9885 18.4438C76.2727 18.0384 76.4266 17.5571 76.4266 16.9871C76.4266 16.417 76.2727 15.923 75.953 15.5303C75.6333 15.1249 75.1597 14.9349 74.5085 14.9349Z" fill="#F2994A"/>
<path d="M121.194 14.8966C120.779 14.8966 120.436 15.0866 120.152 15.4793C119.868 15.872 119.726 16.366 119.726 16.9614C119.726 17.5821 119.88 18.0888 120.176 18.4815C120.472 18.8742 120.85 19.0642 121.277 19.0642C121.691 19.0642 122.034 18.8615 122.319 18.4688C122.603 18.0761 122.745 17.5821 122.745 16.9867C122.745 16.366 122.591 15.8467 122.295 15.4666C122.011 15.0866 121.632 14.8966 121.194 14.8966Z" fill="#F2994A"/>
<path d="M113.403 14.8717C113.202 14.8717 112.989 14.897 112.775 14.935C112.811 15.5051 112.823 16.1384 112.823 16.8605C112.894 16.8605 112.977 16.8732 113.071 16.8732C114.09 16.8732 114.599 16.5311 114.599 15.8344C114.599 15.2011 114.196 14.8717 113.403 14.8717Z" fill="#F2994A"/>
<path d="M102.451 35.9498C101.279 35.9498 100.26 36.4185 99.396 37.3559C98.5317 38.2933 98.1055 39.5347 98.1055 41.0928C98.1055 42.6382 98.5317 43.8796 99.396 44.8297C100.26 45.7671 101.279 46.2358 102.451 46.2358C103.623 46.2358 104.641 45.7671 105.505 44.8297C106.37 43.8923 106.796 42.6509 106.796 41.0928C106.796 39.5474 106.37 38.306 105.505 37.3559C104.641 36.4185 103.623 35.9498 102.451 35.9498Z" fill="#F2994A"/>
<path d="M87.9346 35.9498C86.7625 35.9498 85.7442 36.4185 84.8799 37.3559C84.0156 38.2933 83.5894 39.5347 83.5894 41.0928C83.5894 42.6382 84.0156 43.8796 84.8799 44.8297C85.7442 45.7671 86.7506 46.2358 87.9346 46.2358C89.1068 46.2358 90.125 45.7671 90.9893 44.8297C91.8536 43.8923 92.2799 42.6509 92.2799 41.0928C92.2799 39.5474 91.8536 38.306 90.9893 37.3559C90.125 36.4185 89.1068 35.9498 87.9346 35.9498Z" fill="#F2994A"/>
<path d="M156.844 29.9712H152.664V37.2296H156.844C157.897 37.2296 158.738 36.8496 159.365 36.1022C160.005 35.3422 160.313 34.5188 160.313 33.6067C160.313 32.6947 159.993 31.8586 159.365 31.1113C158.738 30.3512 157.885 29.9712 156.844 29.9712Z" fill="#F2994A"/>
<path d="M171.987 41.9921C171.371 42.5495 171.063 43.2082 171.063 43.9682C171.063 44.6649 171.348 45.2223 171.904 45.6277C172.461 46.033 173.112 46.2357 173.834 46.2357C174.864 46.2357 175.799 45.8177 176.64 45.007C177.481 44.1836 177.907 43.2082 177.907 42.0935C177.197 41.4728 176.143 41.1687 174.734 41.1687C173.514 41.1561 172.603 41.4348 171.987 41.9921Z" fill="#F2994A"/>
<path d="M136.266 35.9498C135.342 35.9498 134.537 36.2538 133.862 36.8745C133.188 37.4953 132.714 38.3313 132.465 39.37H140.173C140.114 38.5593 139.771 37.7866 139.131 37.0519C138.492 36.3172 137.533 35.9498 136.266 35.9498Z" fill="#F2994A"/>
<path d="M116.861 35.9498C115.7 35.9498 114.706 36.4185 113.877 37.3559C113.048 38.2933 112.634 39.5347 112.634 41.0928C112.634 42.6382 113.048 43.8796 113.877 44.8297C114.706 45.7671 115.7 46.2358 116.861 46.2358C118.033 46.2358 119.039 45.7671 119.856 44.8423C120.685 43.9176 121.087 42.6635 121.087 41.0928C121.087 39.522 120.673 38.2806 119.856 37.3432C119.039 36.4185 118.045 35.9498 116.861 35.9498Z" fill="#F2994A"/>
<path d="M191.156 0H8.84442C3.96638 0 0 4.23091 0 9.46254V60.5375C0 65.7564 3.95454 70 8.84442 70H191.156C196.034 70 200 65.7691 200 60.5375V9.46254C199.988 4.24358 196.034 0 191.156 0ZM111.686 14.0608H112.42C112.527 14.0608 112.728 14.0608 113.012 14.0481C113.308 14.0355 113.557 14.0355 113.782 14.0355C114.314 14.0355 114.764 14.1621 115.131 14.4282C115.498 14.6815 115.676 15.0742 115.676 15.6062C115.676 16.3283 115.427 16.8476 114.93 17.1896C114.433 17.5317 113.829 17.6963 113.095 17.6963C112.965 17.6963 112.87 17.6963 112.811 17.6837C112.811 18.241 112.823 18.9884 112.858 19.9131H111.674C111.71 19.0518 111.733 18.0257 111.733 16.8476C111.745 15.7709 111.722 14.8335 111.686 14.0608ZM101.397 17.0376C102.048 15.2389 102.38 14.2508 102.38 14.0608H103.966C103.966 14.2255 104.262 15.2135 104.854 16.987C105.446 18.7731 105.742 19.7485 105.742 19.9005H104.393C104.393 19.6978 104.262 19.1404 104.014 18.2157H102.072C101.811 19.1278 101.681 19.6851 101.681 19.9005H100.414C100.414 19.7865 100.746 18.8364 101.397 17.0376ZM93.05 14.0608H93.784C93.9024 14.0608 94.08 14.0608 94.3168 14.0481C94.5536 14.0355 94.7076 14.0355 94.7786 14.0355C95.785 14.0355 96.5191 14.3015 96.9808 14.8462C97.4307 15.3909 97.6675 16.0369 97.6675 16.7843C97.6675 17.633 97.407 18.3804 96.8979 19.0138C96.3888 19.6471 95.6784 19.9638 94.7549 19.9638C94.3405 19.9638 93.7722 19.9511 93.0381 19.9131C93.0736 19.0138 93.0973 17.9877 93.0973 16.8476C93.0973 15.7582 93.0855 14.8208 93.05 14.0608ZM90.386 14.0608H91.57C91.5344 14.8208 91.5108 15.7456 91.5108 16.8476C91.5108 17.975 91.5344 19.0011 91.57 19.9131H90.386C90.4215 18.9884 90.4452 17.9624 90.4452 16.8476C90.4452 15.7582 90.4215 14.8208 90.386 14.0608ZM84.6436 14.8335C85.1646 14.2255 85.8158 13.9215 86.5972 13.9215C87.3313 13.9215 87.9588 14.2001 88.4561 14.7575C88.9534 15.3149 89.202 16.0242 89.202 16.873C89.202 17.7977 88.9415 18.5577 88.4087 19.1658C87.8878 19.7738 87.2366 20.0778 86.4551 20.0778C85.7211 20.0778 85.0935 19.7991 84.5963 19.2418C84.099 18.6844 83.8503 17.975 83.8503 17.1263C83.8503 16.2016 84.1227 15.4289 84.6436 14.8335ZM72.9458 14.0608H73.6798C73.7982 14.0608 73.9759 14.0608 74.2127 14.0481C74.4495 14.0355 74.6034 14.0355 74.6744 14.0355C75.6808 14.0355 76.4149 14.3015 76.8766 14.8462C77.3266 15.3909 77.5634 16.0369 77.5634 16.7843C77.5634 17.633 77.3029 18.3804 76.7937 19.0138C76.2846 19.6471 75.5742 19.9638 74.6507 19.9638C74.2363 19.9638 73.668 19.9511 72.9339 19.9131C72.9695 19.0138 72.9931 17.9877 72.9931 16.8476C73.005 15.7582 72.9813 14.8208 72.9458 14.0608ZM66.9785 14.0608H68.2216C68.2216 14.2255 68.565 14.8588 69.2636 15.9609C69.9976 17.139 70.4239 17.937 70.5304 18.355H70.5896C70.5186 17.6837 70.4831 17.0883 70.4831 16.5563C70.4831 15.7456 70.4594 14.9095 70.4239 14.0608H71.4776C71.4421 14.8082 71.4184 15.7329 71.4184 16.8476C71.4184 17.975 71.4421 18.9884 71.4776 19.9131H70.4357C70.4357 19.7865 70.045 19.1404 69.2754 17.9624C68.4703 16.721 68.0085 15.8849 67.902 15.4289H67.8309C67.902 16.0876 67.9375 16.683 67.9375 17.2023C67.9375 17.937 67.9612 18.8491 67.9967 19.9131H66.9666C67.014 18.9884 67.0258 17.9624 67.0258 16.8476C67.0376 15.7582 67.014 14.8208 66.9785 14.0608ZM61.7215 17.0376C62.3727 15.2389 62.7042 14.2508 62.7042 14.0608H64.2908C64.2908 14.2255 64.5868 15.2135 65.1788 16.987C65.7708 18.7731 66.0668 19.7485 66.0668 19.9005H64.717C64.717 19.6978 64.5868 19.1404 64.3381 18.2157H62.3964C62.1359 19.1278 62.0057 19.6851 62.0057 19.9005H60.7388C60.7388 19.7865 61.0703 18.8364 61.7215 17.0376ZM17.4284 14.9602C25.9294 20.0525 34.4305 25.1574 42.9316 30.2371C43.3223 30.4651 43.3104 30.6044 43.0144 30.9211C41.1082 32.9225 39.2257 34.9367 37.3431 36.9634C37.1419 37.1788 37.0116 37.3055 36.7393 37.0141C29.9787 29.629 23.2063 22.2693 16.4338 14.8969C16.3746 14.8335 16.3273 14.7575 16.2207 14.6055C16.7298 14.5928 17.085 14.7575 17.4284 14.9602ZM14.8118 59.9041C14.1014 59.3214 13.829 58.536 13.829 57.5986C13.829 53.6591 13.829 49.7322 13.8172 45.7926C13.8172 43.0058 13.8172 40.2316 13.8172 37.4448H13.829C13.829 30.8071 13.829 24.1567 13.829 17.519C13.829 16.7083 13.9711 15.9609 14.5158 15.3402C14.7289 15.0995 14.8709 15.0362 15.1314 15.3149C19.3109 19.8751 23.4904 24.4227 27.6817 28.9703C30.3931 31.9218 33.1044 34.8607 35.8276 37.7995C36.0881 38.0782 36.1118 38.2302 35.8395 38.5342C29.1854 45.6153 22.5314 52.709 15.901 59.8154C15.4866 60.2714 15.2025 60.2208 14.8118 59.9041ZM42.1975 45.4759C34.2766 50.1122 26.3557 54.7738 18.4466 59.4227C18.3164 59.4987 18.198 59.6254 18.1269 59.6761C24.2955 53.0004 30.476 46.3373 36.6327 39.6489C37.0116 39.2309 37.1892 39.2942 37.5326 39.6743C39.0954 41.4224 40.682 43.1325 42.2804 44.8426C42.5527 45.1339 42.5764 45.2479 42.1975 45.4759ZM52.5101 39.3069C52.143 39.5983 51.7286 39.8389 51.3261 40.0796C48.9344 41.4984 46.5309 42.9045 44.1392 44.3232C43.8196 44.5132 43.6301 44.5132 43.3578 44.2092C41.6528 42.3344 39.9361 40.4596 38.2193 38.6102C37.9706 38.3442 37.9588 38.1922 38.2193 37.9262C40.2321 35.8107 42.233 33.6699 44.2221 31.5291C44.4589 31.2758 44.6247 31.2505 44.9207 31.4278C47.2887 32.8592 49.6685 34.278 52.0365 35.6967C52.7705 36.1401 53.3389 36.7101 53.3744 37.6348C53.3389 38.3949 53.0192 38.9142 52.5101 39.3069ZM77.6462 45.5899C75.8229 47.6421 73.4431 48.6681 70.5068 48.6681C67.7007 48.6681 65.3209 47.6294 63.3554 45.5519C61.39 43.4745 60.4073 40.8903 60.4073 37.8122C60.4073 34.734 61.39 32.1498 63.3554 30.0724C65.3209 27.9949 67.7007 26.9562 70.5068 26.9562C71.9039 26.9562 73.2299 27.2476 74.4968 27.8303C75.7637 28.413 76.7819 29.1857 77.5397 30.1484L75.8347 31.9725C74.5442 30.3257 72.78 29.5024 70.5186 29.5024C68.4703 29.5024 66.7061 30.2751 65.2143 31.8078C63.7225 33.3406 62.9766 35.342 62.9766 37.7995C62.9766 40.257 63.7225 42.2584 65.2143 43.7912C66.7061 45.3239 68.4703 46.0966 70.5186 46.0966C72.6853 46.0966 74.4968 45.3239 75.9531 43.7785C76.8885 42.7778 77.4331 41.3717 77.587 39.5729H70.5304V37.0901H79.955C80.0497 37.6348 80.0852 38.1542 80.0852 38.6609C80.0616 41.5617 79.2565 43.8672 77.6462 45.5899ZM79.884 17.5697C79.884 18.3424 79.8958 19.1151 79.9195 19.9005H78.7473C78.7829 19.0011 78.8065 17.975 78.8065 16.835C78.8065 15.7456 78.7829 14.8082 78.7473 14.0481H79.4696C79.5524 14.0481 79.7301 14.0481 80.0024 14.0355C80.2747 14.0228 80.5115 14.0228 80.7483 14.0228C82.0388 14.0228 82.6782 14.4915 82.6782 15.4289C82.6782 16.1763 82.3112 16.6956 81.5771 16.987V17.0503C81.8612 17.139 82.1099 17.367 82.323 17.7597C82.5361 18.1524 82.8203 18.8617 83.1873 19.8878H81.9441C81.6244 18.8237 81.3758 18.1777 81.1982 17.9244C81.0206 17.671 80.7483 17.557 80.3576 17.557C80.1918 17.5697 80.0379 17.5697 79.884 17.5697ZM92.8368 46.5147C91.5463 47.9587 89.9124 48.6808 87.9233 48.6808C85.9342 48.6808 84.3003 47.9587 83.0097 46.5147C81.7192 45.0706 81.0798 43.2718 81.0798 41.093C81.0798 38.9269 81.7192 37.1155 83.0097 35.6714C84.2884 34.2273 85.9342 33.5052 87.9233 33.5052C89.9124 33.5052 91.5463 34.2273 92.8368 35.6714C94.1156 37.1155 94.7668 38.9142 94.7668 41.093C94.7668 43.2591 94.1274 45.0706 92.8368 46.5147ZM107.364 46.5147C106.074 47.9587 104.44 48.6808 102.451 48.6808C100.462 48.6808 98.8279 47.9587 97.5373 46.5147C96.2467 45.0706 95.6074 43.2718 95.6074 41.093C95.6074 38.9269 96.2467 37.1155 97.5373 35.6714C98.816 34.2273 100.462 33.5052 102.451 33.5052C104.44 33.5052 106.074 34.2273 107.364 35.6714C108.643 37.1155 109.294 38.9142 109.294 41.093C109.294 43.2591 108.643 45.0706 107.364 46.5147ZM108.063 17.6837C107.933 17.6837 107.838 17.6837 107.779 17.671C107.779 18.2284 107.791 18.9758 107.826 19.9005H106.642C106.678 19.0391 106.701 18.013 106.701 16.835C106.701 15.7582 106.678 14.8208 106.642 14.0481H107.376C107.483 14.0481 107.684 14.0481 107.968 14.0355C108.264 14.0228 108.513 14.0228 108.738 14.0228C109.271 14.0228 109.721 14.1495 110.088 14.4155C110.455 14.6688 110.632 15.0615 110.632 15.5936C110.632 16.3156 110.384 16.835 109.886 17.177C109.401 17.519 108.785 17.6837 108.063 17.6837ZM123.49 47.4774C123.49 49.9222 122.827 51.7716 121.513 53.0384C120.187 54.3051 118.577 54.9385 116.682 54.9385C115.108 54.9385 113.829 54.5205 112.823 53.6717C111.828 52.823 111.118 51.8603 110.68 50.7836L112.965 49.7702C113.213 50.5429 113.687 51.1889 114.362 51.721C115.037 52.2403 115.818 52.5063 116.682 52.5063C118.056 52.5063 119.133 52.063 119.927 51.1889C120.72 50.3022 121.111 49.1115 121.111 47.6041V46.236H121.004C120.566 46.9327 119.95 47.5154 119.157 47.9841C118.364 48.4528 117.464 48.6808 116.469 48.6808C114.753 48.6808 113.261 47.9587 112.018 46.502C110.774 45.0452 110.147 43.2465 110.147 41.1057C110.147 38.9522 110.774 37.1535 112.018 35.7094C113.261 34.2526 114.753 33.5306 116.469 33.5306C117.464 33.5306 118.364 33.7586 119.157 34.2273C119.95 34.696 120.566 35.2787 121.004 35.9754H121.111V33.9993H123.502V47.4774H123.49ZM123.123 19.1658C122.602 19.7738 121.951 20.0778 121.17 20.0778C120.436 20.0778 119.808 19.7991 119.311 19.2418C118.814 18.6844 118.565 17.975 118.565 17.1263C118.565 16.2016 118.825 15.4415 119.358 14.8335C119.879 14.2255 120.53 13.9215 121.312 13.9215C122.046 13.9215 122.673 14.2001 123.171 14.7575C123.668 15.3149 123.917 16.0242 123.917 16.873C123.917 17.7977 123.656 18.5577 123.123 19.1658ZM128.345 48.2121H125.847V27.4122H128.345V48.2121ZM129.612 19.9131H128.57C128.57 19.7865 128.179 19.1404 127.409 17.9624C126.604 16.721 126.143 15.8849 126.036 15.4289H125.965C126.036 16.0876 126.072 16.683 126.072 17.2023C126.072 17.937 126.095 18.8491 126.131 19.9131H125.101C125.148 18.9884 125.16 17.9624 125.16 16.8476C125.16 15.7582 125.136 14.8208 125.101 14.0608H126.344C126.344 14.2255 126.687 14.8588 127.386 15.9609C128.12 17.139 128.546 17.937 128.653 18.355H128.712C128.641 17.6837 128.605 17.0883 128.605 16.5563C128.605 15.7456 128.582 14.9095 128.546 14.0608H129.6C129.564 14.8082 129.541 15.7329 129.541 16.8476C129.552 17.975 129.564 18.9884 129.612 19.9131ZM142.813 41.587H132.311C132.382 43.0185 132.832 44.1585 133.649 44.9819C134.478 45.818 135.437 46.236 136.538 46.236C138.326 46.236 139.545 45.4253 140.173 43.7912L142.399 44.7792C141.961 45.8813 141.25 46.806 140.256 47.5534C139.261 48.3008 138.042 48.6681 136.597 48.6681C134.584 48.6681 132.951 47.9461 131.695 46.5147C130.44 45.0832 129.813 43.2718 129.813 41.0804C129.813 39.0029 130.429 37.2295 131.648 35.7347C132.868 34.24 134.431 33.5052 136.325 33.5052C138.302 33.5052 139.877 34.1893 141.061 35.57C142.245 36.9381 142.837 38.7876 142.837 41.093L142.813 41.587ZM161.058 38.0275C159.851 39.1929 158.43 39.7883 156.784 39.7883H152.664V48.2121H150.166V27.4122H156.784C158.43 27.4122 159.851 27.9949 161.058 29.173C162.266 30.3511 162.858 31.8205 162.858 33.6066C162.87 35.38 162.266 36.8621 161.058 38.0275ZM166.99 48.2121H164.492V27.4122H166.99V48.2121ZM180.287 48.2121H177.895V46.236H177.788C176.794 47.8574 175.337 48.6808 173.419 48.6808C172.01 48.6808 170.826 48.2501 169.879 47.376C168.932 46.502 168.458 45.3493 168.458 43.9178C168.458 42.3724 169.015 41.1564 170.14 40.2696C171.265 39.3829 172.65 38.9522 174.296 38.9522C175.764 38.9522 176.96 39.2436 177.907 39.8263V39.4209C177.907 38.3695 177.575 37.5335 176.9 36.9128C176.225 36.2794 175.408 35.9627 174.426 35.9627C173.704 35.9627 173.04 36.1527 172.46 36.5201C171.868 36.8874 171.466 37.3941 171.253 38.0275L168.968 36.9761C169.275 36.1274 169.879 35.342 170.791 34.6073C171.691 33.8853 172.887 33.5179 174.378 33.5179C176.083 33.5179 177.492 34.0499 178.617 35.114C179.742 36.1781 180.298 37.6855 180.298 39.6109V48.2121H180.287ZM185.721 54.4824H183.14L186.23 47.3127L180.748 33.9866H183.46L187.426 44.2092H187.485L191.333 33.9866H194.045L185.721 54.4824Z" fill="#F2994A"/>
</svg>
