<svg width="21" height="21" viewBox="0 0 21 21" fill="none" xmlns="http://www.w3.org/2000/svg">
<path d="M19.5684 9.13937C19.5678 9.13891 19.5673 9.1383 19.5668 9.13784L11.4076 0.978906C11.0598 0.63097 10.5974 0.439453 10.1056 0.439453C9.61374 0.439453 9.15136 0.63097 8.80342 0.978906L0.648452 9.13372C0.645705 9.13647 0.642806 9.13937 0.640211 9.14211C-0.0739722 9.86042 -0.0727514 11.0259 0.643721 11.7423C0.971055 12.0698 1.40323 12.2593 1.86546 12.2793C1.88439 12.2812 1.90331 12.2821 1.92238 12.2821H2.24743V18.2864C2.24743 19.4747 3.21432 20.4415 4.40265 20.4415H7.5948C7.91847 20.4415 8.1808 20.179 8.1808 19.8555V15.148C8.1808 14.6058 8.62197 14.1647 9.16417 14.1647H11.047C11.5892 14.1647 12.0302 14.6058 12.0302 15.148V19.8555C12.0302 20.179 12.2925 20.4415 12.6162 20.4415H15.8084C16.9968 20.4415 17.9636 19.4747 17.9636 18.2864V12.2821H18.2651C18.7568 12.2821 19.2192 12.0906 19.5673 11.7425C20.2845 11.0249 20.2848 9.85737 19.5684 9.13937ZM18.7385 10.9138C18.612 11.0403 18.4438 11.1101 18.2651 11.1101H17.3776C17.0539 11.1101 16.7916 11.3724 16.7916 11.6961V18.2864C16.7916 18.8285 16.3506 19.2695 15.8084 19.2695H13.2022V15.148C13.2022 13.9596 12.2355 12.9928 11.047 12.9928H9.16417C7.9757 12.9928 7.0088 13.9596 7.0088 15.148V19.2695H4.40265C3.8606 19.2695 3.41942 18.8285 3.41942 18.2864V11.6961C3.41942 11.3724 3.1571 11.1101 2.83343 11.1101H1.96115C1.95199 11.1095 1.94299 11.109 1.93368 11.1089C1.7591 11.1058 1.59536 11.0365 1.47266 10.9137C1.21171 10.6527 1.21171 10.228 1.47266 9.96694C1.47282 9.96694 1.47282 9.96678 1.47297 9.96663L1.47343 9.96617L9.63236 1.80754C9.75872 1.68103 9.92673 1.61145 10.1056 1.61145C10.2843 1.61145 10.4523 1.68103 10.5788 1.80754L18.7359 9.96449C18.7371 9.96571 18.7385 9.96694 18.7397 9.96816C18.9993 10.2296 18.9988 10.6533 18.7385 10.9138Z" fill="white"/>
</svg>
