<svg width="200" height="70" viewBox="0 0 200 70" fill="none" xmlns="http://www.w3.org/2000/svg">
<path d="M26.3591 17.6867H30.1427C30.3941 17.6867 30.5952 17.4842 30.5952 17.2436C30.5952 16.9904 30.3941 16.7878 30.1427 16.7878H26.3591C26.1203 16.7878 25.9066 16.9904 25.9066 17.2436C25.9066 17.4842 26.1077 17.6867 26.3591 17.6867ZM28.2446 51.1232C27.1636 51.1232 26.2711 52.0221 26.2711 53.1109C26.2711 54.1997 27.151 55.0986 28.2446 55.0986C29.3382 55.0986 30.2181 54.2123 30.2181 53.1109C30.2181 52.0094 29.3382 51.1232 28.2446 51.1232ZM18.5909 49.4267H37.9234V20.624H18.5909V49.4267ZM80.548 39.9693C79.6304 39.9693 78.8008 40.2731 78.0592 40.8808C77.3176 41.5012 76.8273 42.2988 76.6011 43.299C76.4879 43.7674 76.4377 44.1472 76.4377 44.4384V47.2364C76.4377 48.4645 76.8022 49.5026 77.5564 50.3382C78.298 51.1738 79.2659 51.6043 80.46 51.6043C81.8553 51.6043 82.9489 51.0599 83.7282 49.9711C84.5076 48.8823 84.8972 47.4516 84.8972 45.6665C84.8972 44.0333 84.5327 42.6786 83.8036 41.6151C82.9866 40.5263 81.9056 39.9693 80.548 39.9693ZM148.338 39.7287C146.854 39.7287 145.71 40.3997 144.944 41.7291C144.265 42.8305 143.938 44.1725 143.938 45.7678C143.938 47.3124 144.265 48.6417 144.944 49.7432C145.736 51.0725 146.867 51.7435 148.312 51.7435C149.72 51.7435 150.839 51.0725 151.643 49.7052C152.335 48.5911 152.687 47.249 152.687 45.7045C152.687 44.1599 152.36 42.8305 151.694 41.7291C150.889 40.3997 149.783 39.7287 148.338 39.7287ZM98.9252 39.9693C98.0076 39.9693 97.178 40.2731 96.4364 40.8808C95.6948 41.5012 95.2046 42.2988 94.9657 43.299C94.8526 43.7674 94.8023 44.1472 94.8023 44.4384V47.2364C94.8023 48.4645 95.1668 49.5026 95.921 50.3382C96.6627 51.1738 97.6306 51.6043 98.8247 51.6043C100.233 51.6043 101.314 51.0599 102.105 49.9711C102.885 48.8823 103.274 47.4516 103.274 45.6665C103.274 44.0333 102.91 42.6786 102.168 41.6151C101.364 40.5263 100.283 39.9693 98.9252 39.9693ZM60.5367 33.9428H60.4613C60.2225 34.943 59.8705 36.399 59.3552 38.3487L57.432 44.4511H63.6541L61.7057 38.3487C61.492 37.7157 61.1024 36.2471 60.5367 33.9428ZM176.519 39.5515C175.313 39.5515 174.32 40.0705 173.565 41.0834C172.949 41.8937 172.572 42.8559 172.459 43.9826H180.202C180.227 42.8812 179.989 41.919 179.486 41.1087C178.832 40.0832 177.839 39.5515 176.519 39.5515ZM76.9153 22.9282C76.9656 22.7636 76.9656 22.6117 76.9656 22.4471V21.257C75.4321 21.2443 73.9614 21.5609 73.9614 22.8776C73.9614 23.7385 74.5145 24.1309 75.1932 24.1309C76.0857 24.1183 76.7016 23.5486 76.9153 22.9282ZM56.64 17.4842C56.4138 16.7499 56.2127 15.9396 56.0367 15.2433H55.999C55.823 15.9396 55.6345 16.7752 55.4333 17.4842L54.5157 20.4467H57.5702L56.64 17.4842ZM191.553 0H8.44698C3.79611 0 0 3.82348 0 8.50787V61.5048C0 66.1892 3.79611 70 8.44698 70H191.553C196.216 70 200 66.1892 200 61.5048V8.50787C200.013 3.82348 196.216 0 191.553 0ZM179.951 16.6233C182.741 16.6233 183.672 18.9401 183.672 20.8392C183.672 21.2443 183.634 21.5735 183.596 21.7634H177.827C177.877 23.3333 179.084 24.0043 180.479 24.0043C181.484 24.0043 182.201 23.8398 182.867 23.6119L183.181 25.1058C182.44 25.4223 181.409 25.6629 180.177 25.6629C177.387 25.6629 175.74 23.941 175.74 21.2823C175.74 18.8895 177.186 16.6233 179.951 16.6233ZM145.434 16.8258L145.535 18.1299H145.585C145.974 17.4462 146.905 16.6359 148.338 16.6359C149.846 16.6359 151.392 17.6108 151.392 20.3581V25.5109H149.217V20.6113C149.217 19.3706 148.752 18.4211 147.571 18.4211C146.704 18.4211 146.1 19.0414 145.874 19.6998C145.798 19.877 145.773 20.1429 145.773 20.3961V25.5109H143.599V19.4212C143.599 18.4211 143.561 17.5855 143.523 16.8385H145.434V16.8258ZM122.582 16.6233C125.372 16.6233 126.303 18.9401 126.303 20.8392C126.303 21.2443 126.265 21.5735 126.227 21.7634H120.458C120.508 23.3333 121.715 24.0043 123.11 24.0043C124.115 24.0043 124.819 23.8398 125.498 23.6119L125.812 25.1058C125.071 25.4223 124.04 25.6629 122.808 25.6629C120.018 25.6629 118.371 23.941 118.371 21.2823C118.371 18.8895 119.829 16.6233 122.582 16.6233ZM113.67 12.8504H115.844V25.4983H113.67V12.8504ZM96.4238 18.1678C95.5691 18.1678 94.6892 18.4337 94.111 18.8135L93.6836 17.3829C94.3247 16.9904 95.4308 16.6233 96.8009 16.6233C99.5663 16.6233 100.358 18.3831 100.358 20.2948V23.4093C100.358 24.1942 100.396 24.9539 100.496 25.4983H98.5356L98.3722 24.5361H98.3219C97.8065 25.2071 96.9015 25.7008 95.7702 25.7008C94.0356 25.7008 93.0677 24.4348 93.0677 23.1181C93.0677 20.9405 94.9909 19.8264 98.1836 19.839V19.6998C98.1711 19.1174 97.9322 18.1678 96.4238 18.1678ZM83.5522 13.2049C84.2939 13.2049 84.759 13.724 84.7715 14.395C84.7715 15.0407 84.2939 15.5724 83.5271 15.5724C82.798 15.5724 82.3204 15.0407 82.3204 14.395C82.333 13.724 82.8358 13.2049 83.5522 13.2049ZM84.6333 16.8258V25.4983H82.4587V16.8258H84.6333V16.8258ZM54.7168 13.4834H57.4948L61.3663 25.4856H59.0158L57.9347 22.0799H54.1638L53.133 25.4856H50.883L54.7168 13.4834ZM40.2237 53.3008C40.2237 55.4151 38.5142 57.1369 36.415 57.1369H20.0742C17.975 57.1369 16.2655 55.4277 16.2655 53.3008V16.7372C16.2655 14.6229 17.975 12.9011 20.0742 12.9011H36.415C38.5142 12.9011 40.2237 14.6229 40.2237 16.7372V53.3008ZM66.4823 54.1744L64.3203 47.3123H56.7783L54.7168 54.1744H50.8705L58.3244 30.8157H62.9376L70.4418 54.1744H66.4823ZM67.3245 25.4983H65.1876L61.9823 16.8258H64.3328L65.7281 21.2317C65.9795 21.9913 66.1555 22.6876 66.3063 23.4093H66.3566C66.52 22.7003 66.7086 22.0166 66.9348 21.2317L68.3175 16.8258H70.6052L67.3245 25.4983ZM71.8119 23.1054C71.8119 20.9278 73.7351 19.8137 76.9279 19.8264V19.6871C76.9279 19.1174 76.7016 18.1678 75.1807 18.1678C74.3259 18.1678 73.446 18.4337 72.8678 18.8135L72.4404 17.3829C73.0815 16.9904 74.1877 16.6233 75.5578 16.6233C78.3106 16.6233 79.1151 18.3831 79.1151 20.2948V23.4093C79.1151 24.1942 79.1528 24.9539 79.2533 25.4983H77.2924L77.129 24.5361H77.0787C76.5634 25.2071 75.6583 25.7008 74.527 25.7008C72.7798 25.6882 71.8119 24.4221 71.8119 23.1054ZM86.3553 52.3512C84.9726 53.8199 83.2506 54.5668 81.2017 54.5668C78.9768 54.5668 77.393 53.7692 76.4251 52.174V61.0237H72.717V42.8685C72.717 41.0707 72.6667 39.2223 72.5787 37.3359H75.8469L76.048 40.0072H76.1108C77.3553 38.0069 79.2282 36.994 81.7547 36.994C83.7282 36.994 85.3749 37.779 86.6947 39.3489C88.0146 40.9188 88.6682 42.9951 88.6682 45.5525C88.6808 48.4265 87.9014 50.68 86.3553 52.3512ZM90.2269 25.4983H88.0523V12.8504H90.2269V25.4983ZM104.733 52.3512C103.35 53.8199 101.628 54.5668 99.5789 54.5668C97.3666 54.5668 95.7702 53.7692 94.8149 52.174V61.0237H91.0942V42.8685C91.0942 41.0707 91.0439 39.2223 90.9559 37.3359H94.2115L94.4252 40.0072H94.4881C95.7325 38.0069 97.6054 36.994 100.132 36.994C102.105 36.994 103.752 37.779 105.072 39.3489C106.392 40.9188 107.058 42.9951 107.058 45.5525C107.045 48.4265 106.279 50.68 104.733 52.3512ZM107.284 25.6882C106.166 25.6882 105.185 25.2577 104.557 24.1942H104.519L104.418 25.4983H102.558C102.596 24.9159 102.633 23.9537 102.633 23.0548V12.8504H104.808V18.0159H104.846C105.374 17.1803 106.316 16.6233 107.611 16.6233C109.71 16.6233 111.219 18.3831 111.206 21.0165C111.193 24.1436 109.22 25.6882 107.284 25.6882ZM125.988 52.4778C124.467 53.8452 122.368 54.5162 119.666 54.5162C117.164 54.5162 115.166 54.0351 113.657 53.0602L114.525 49.9457C116.146 50.9079 117.944 51.4017 119.879 51.4017C121.287 51.4017 122.368 51.0852 123.147 50.4522C123.927 49.8191 124.316 48.9709 124.316 47.8947C124.316 46.9579 123.99 46.1602 123.361 45.5146C122.708 44.8689 121.652 44.2738 120.168 43.7168C116.108 42.1975 114.085 39.9693 114.085 37.032C114.085 35.1203 114.788 33.5377 116.234 32.3096C117.667 31.0942 119.565 30.4739 121.928 30.4739C124.04 30.4739 125.787 30.841 127.195 31.5753L126.252 34.6265C124.945 33.9175 123.462 33.5504 121.803 33.5504C120.495 33.5504 119.464 33.8795 118.723 34.5126C118.107 35.095 117.793 35.8039 117.793 36.6269C117.793 37.5384 118.145 38.3107 118.861 38.9184C119.477 39.4755 120.608 40.0705 122.23 40.7162C124.228 41.5138 125.699 42.476 126.642 43.5648C127.585 44.6536 128.05 45.9957 128.05 47.6162C128.037 49.6166 127.346 51.2371 125.988 52.4778ZM139.086 40.1338H134.988V48.3252C134.988 50.4015 135.717 51.4397 137.163 51.4397C137.829 51.4397 138.37 51.389 138.81 51.2751L138.91 54.111C138.181 54.3896 137.213 54.5288 136.019 54.5288C134.561 54.5288 133.405 54.0857 132.575 53.1742C131.745 52.2753 131.331 50.756 131.331 48.6417V40.1338H128.892V37.3359H131.331V34.2594L134.976 33.1452V37.3359H139.074V40.1338H139.086ZM136.987 25.6882C134.561 25.6882 132.675 24.017 132.675 21.219C132.675 18.3704 134.536 16.6233 137.138 16.6233C139.702 16.6233 141.424 18.4464 141.424 21.0798C141.412 24.2702 139.174 25.6882 136.987 25.6882ZM154.333 51.9967C152.787 53.7059 150.751 54.5542 148.212 54.5542C145.748 54.5542 143.787 53.7312 142.342 52.098C140.884 50.4648 140.167 48.3885 140.167 45.8944C140.167 43.2863 140.921 41.1467 142.417 39.4882C143.926 37.817 145.937 36.994 148.488 36.994C150.952 36.994 152.926 37.8043 154.409 39.4502C155.829 41.0327 156.533 43.0964 156.533 45.6158C156.521 48.2112 155.792 50.3256 154.333 51.9967ZM158.167 16.8258H159.387V15.1926L161.523 14.5849V16.8132H163.597V18.4464H161.523V22.2825C161.523 23.346 161.8 23.8904 162.642 23.8904C163.032 23.8904 163.246 23.8777 163.497 23.8018L163.535 25.4603C163.22 25.5869 162.63 25.6882 161.963 25.6882C161.146 25.6882 160.493 25.4223 160.09 24.9792C159.613 24.4854 159.399 23.6752 159.399 22.5357V18.459H158.18V16.8258H158.167ZM167.708 40.6276C167.343 40.5643 166.954 40.5263 166.539 40.5263C165.232 40.5263 164.226 41.0201 163.509 42.0076C162.894 42.8938 162.579 43.9826 162.579 45.3373V54.1744H158.859V42.628C158.859 40.7036 158.821 38.9311 158.758 37.3359H161.989L162.127 40.5643H162.227C162.617 39.4628 163.233 38.5639 164.088 37.9056C164.917 37.2979 165.81 37.0067 166.778 37.0067C167.117 37.0067 167.431 37.0194 167.695 37.07V40.6276H167.708ZM168.273 20.2948V25.4983H166.099V12.8504H168.273V18.0033H168.311C168.575 17.5981 168.952 17.2563 169.392 17.0284C169.832 16.7752 170.348 16.6359 170.901 16.6359C172.371 16.6359 173.905 17.6108 173.905 20.3961V25.5109H171.73V20.6366C171.73 19.3832 171.265 18.4211 170.071 18.4211C169.216 18.4211 168.625 18.9908 168.374 19.6491C168.286 19.8264 168.273 20.0669 168.273 20.2948ZM183.609 46.6667H172.459C172.51 48.3252 173.037 49.5912 174.081 50.4648C175.024 51.2498 176.23 51.6422 177.726 51.6422C179.385 51.6422 180.881 51.3764 182.239 50.8446L182.829 53.4527C181.258 54.149 179.373 54.4909 177.223 54.4909C174.634 54.4909 172.598 53.7312 171.127 52.1867C169.644 50.6547 168.902 48.5911 168.902 46.0083C168.902 43.4636 169.593 41.3492 170.963 39.6654C172.422 37.8676 174.37 36.9687 176.821 36.9687C179.234 36.9687 181.057 37.8676 182.289 39.6654C183.269 41.096 183.772 42.8685 183.772 44.9702C183.734 45.6285 183.697 46.1982 183.609 46.6667ZM106.807 18.3324C105.927 18.3324 105.11 18.9781 104.883 19.9403C104.846 20.1049 104.808 20.2948 104.808 20.51V21.9154C104.808 22.0926 104.821 22.2698 104.858 22.4344C105.085 23.3207 105.851 23.9664 106.781 23.9664C108.139 23.9664 108.981 22.8776 108.981 21.1177C108.981 19.5858 108.252 18.3324 106.807 18.3324ZM122.456 18.1172C121.111 18.1172 120.546 19.3453 120.458 20.2315H124.241C124.266 19.4339 123.914 18.1172 122.456 18.1172ZM137.075 18.2058C135.541 18.2058 134.913 19.7251 134.913 21.1684C134.913 22.8396 135.743 24.1056 137.05 24.1056C138.282 24.1056 139.149 22.8902 139.149 21.1304C139.162 19.7757 138.558 18.2058 137.075 18.2058ZM95.2171 22.8776C95.2171 23.7385 95.7702 24.1309 96.449 24.1309C97.3289 24.1309 97.9574 23.5612 98.1711 22.9409C98.2213 22.7763 98.2213 22.6243 98.2213 22.4598V21.2697C96.6878 21.2443 95.2171 21.5609 95.2171 22.8776ZM179.825 18.1172C178.48 18.1172 177.915 19.3453 177.827 20.2315H181.61C181.623 19.4339 181.271 18.1172 179.825 18.1172Z" fill="#F2994A"/>
</svg>
