<svg width="21" height="13" viewBox="0 0 21 13" fill="none" xmlns="http://www.w3.org/2000/svg">
<path d="M17.4027 5.63843C17.9883 5.22688 18.3761 4.54227 18.3761 3.77061C18.3761 2.50824 17.3552 1.48727 16.0928 1.48727C14.8304 1.48727 13.8095 2.50824 13.8095 3.77061C13.8095 4.54227 14.1933 5.22688 14.783 5.63843C14.2804 5.81255 13.8213 6.08165 13.4335 6.42989C12.8993 5.9748 12.2701 5.62656 11.5815 5.42078C12.4165 4.91426 12.9784 3.99221 12.9784 2.94354C12.9784 1.34481 11.6844 0.0507812 10.0857 0.0507812C8.48695 0.0507812 7.19292 1.34876 7.19292 2.94354C7.19292 3.99221 7.7509 4.91426 8.58984 5.42078C7.90919 5.62656 7.2879 5.97084 6.75763 6.41802C6.36981 6.07769 5.91869 5.81255 5.42403 5.64239C6.0097 5.23084 6.39751 4.54623 6.39751 3.77456C6.39751 2.5122 5.37654 1.49122 4.11417 1.49122C2.85181 1.49122 1.83083 2.5122 1.83083 3.77456C1.83083 4.54623 2.21469 5.23084 2.80432 5.64239C1.23329 6.18454 0.105469 7.67642 0.105469 9.42949V9.69067C0.105469 9.69859 0.113383 9.7065 0.121298 9.7065H4.96103C4.93333 9.92415 4.9175 10.1497 4.9175 10.3753V10.6444C4.9175 11.8078 5.85933 12.7496 7.02276 12.7496H13.1565C14.32 12.7496 15.2618 11.8078 15.2618 10.6444V10.3753C15.2618 10.1497 15.246 9.92415 15.2183 9.7065H20.0896C20.0976 9.7065 20.1055 9.69859 20.1055 9.69067V9.42949C20.0976 7.67247 18.9737 6.18058 17.4027 5.63843ZM14.4426 3.76665C14.4426 2.85648 15.1826 2.11647 16.0928 2.11647C17.003 2.11647 17.743 2.85648 17.743 3.76665C17.743 4.66495 17.0188 5.39704 16.1245 5.41683C16.1126 5.41683 16.1047 5.41683 16.0928 5.41683C16.0809 5.41683 16.073 5.41683 16.0611 5.41683C15.1628 5.401 14.4426 4.66891 14.4426 3.76665ZM7.81817 2.94354C7.81817 1.697 8.83123 0.683943 10.0778 0.683943C11.3243 0.683943 12.3374 1.697 12.3374 2.94354C12.3374 4.14655 11.3916 5.13191 10.2084 5.19918C10.1648 5.19918 10.1213 5.19918 10.0778 5.19918C10.0342 5.19918 9.99071 5.19918 9.94718 5.19918C8.76396 5.13191 7.81817 4.14655 7.81817 2.94354ZM2.45212 3.76665C2.45212 2.85648 3.19213 2.11647 4.1023 2.11647C5.01247 2.11647 5.75248 2.85648 5.75248 3.76665C5.75248 4.66495 5.0283 5.39704 4.13396 5.41683C4.12209 5.41683 4.11417 5.41683 4.1023 5.41683C4.09043 5.41683 4.08252 5.41683 4.07064 5.41683C3.1763 5.401 2.45212 4.66891 2.45212 3.76665ZM5.07183 9.06938H0.746545C0.924622 7.38359 2.34924 6.06186 4.07856 6.04999C4.08647 6.04999 4.09439 6.04999 4.1023 6.04999C4.11022 6.04999 4.11813 6.04999 4.12605 6.04999C4.94916 6.05395 5.70104 6.35866 6.28275 6.85331C5.71291 7.47065 5.28948 8.23044 5.07183 9.06938ZM14.6207 10.6444C14.6207 11.4556 13.9598 12.1165 13.1486 12.1165H7.01485C6.20361 12.1165 5.54275 11.4556 5.54275 10.6444V10.3753C5.54275 7.91782 7.50555 5.90753 9.94718 5.8363C9.99071 5.84025 10.0382 5.84025 10.0817 5.84025C10.1253 5.84025 10.1727 5.84025 10.2163 5.8363C12.6579 5.90753 14.6207 7.91782 14.6207 10.3753V10.6444ZM15.0916 9.06938C14.874 8.2344 14.4585 7.48647 13.8926 6.86914C14.4782 6.36261 15.238 6.0579 16.0691 6.04999C16.077 6.04999 16.0849 6.04999 16.0928 6.04999C16.1007 6.04999 16.1086 6.04999 16.1165 6.04999C17.8459 6.06186 19.2705 7.38359 19.4486 9.06938H15.0916Z" fill="white"/>
</svg>
