<svg width="28" height="28" viewBox="0 0 28 28" fill="none" xmlns="http://www.w3.org/2000/svg">
<rect width="28" height="28" rx="3" fill="white"/>
<path d="M20.3011 10.1862C19.8487 10.3866 19.3628 10.5221 18.8519 10.5833C19.379 10.2679 19.7734 9.77145 19.9614 9.18664C19.4662 9.48081 18.9241 9.68787 18.3589 9.79883C17.9788 9.39298 17.4753 9.12398 16.9267 9.03358C16.378 8.94319 15.8149 9.03647 15.3247 9.29892C14.8344 9.56138 14.4446 9.97834 14.2156 10.4851C13.9867 10.9918 13.9314 11.5599 14.0584 12.1013C13.0549 12.0509 12.0733 11.7901 11.1771 11.3357C10.2809 10.8814 9.49028 10.2437 8.85651 9.46402C8.63981 9.83783 8.51521 10.2712 8.51521 10.7328C8.51497 11.1483 8.61729 11.5575 8.81311 11.924C9.00892 12.2905 9.29217 12.603 9.63773 12.8337C9.23698 12.821 8.84507 12.7127 8.49462 12.5179V12.5504C8.49458 13.1332 8.69617 13.698 9.06519 14.1491C9.43421 14.6002 9.94792 14.9097 10.5192 15.0251C10.1474 15.1258 9.75764 15.1406 9.37931 15.0685C9.54048 15.5699 9.85443 16.0084 10.2772 16.3226C10.7 16.6368 11.2104 16.8109 11.737 16.8205C10.843 17.5223 9.73897 17.903 8.60243 17.9013C8.40111 17.9014 8.19995 17.8896 8 17.8661C9.15365 18.6079 10.4966 19.0015 11.8681 19C16.511 19 19.0491 15.1546 19.0491 11.8196C19.0491 11.7112 19.0464 11.6018 19.0415 11.4934C19.5352 11.1364 19.9614 10.6943 20.3 10.1878L20.3011 10.1862Z" fill="black"/>
</svg>
